a1000-p0000.ufo
<glyph name="exclam" format="1">
  <advance width="237"/>
  <unicode hex="0021"/>
  <outline>
    <contour>
      <point x="122" y="6" type="curve" smooth="yes"/>
      <point x="140" y="6"/>
      <point x="152" y="17"/>
      <point x="152" y="35" type="curve" smooth="yes"/>
      <point x="152" y="53"/>
      <point x="140" y="65"/>
      <point x="122" y="65" type="curve" smooth="yes"/>
      <point x="104" y="65"/>
      <point x="93" y="54"/>
      <point x="93" y="35" type="curve" smooth="yes"/>
      <point x="93" y="17"/>
      <point x="104" y="6"/>
    </contour>
    <contour>
      <point x="106" y="147" type="line"/>
      <point x="130" y="147" type="line"/>
      <point x="130" y="161" type="line"/>
      <point x="135" y="730" type="line"/>
      <point x="135" y="740" type="line"/>
      <point x="101" y="740" type="line"/>
      <point x="101" y="730" type="line"/>
      <point x="106" y="161" type="line"/>
    </contour>
  </outline>
</glyph>
<glyph name="ampersand" format="1">
  <advance width="733"/>
  <unicode hex="0026"/>
  <outline>
    <contour>
      <point x="677" y="105" type="line"/>
      <point x="685" y="105" type="line"/>
      <point x="704" y="126" type="line"/>
      <point x="704" y="132" type="line"/>
      <point x="431" y="277" type="line" smooth="yes"/>
      <point x="248" y="374"/>
      <point x="185" y="446"/>
      <point x="185" y="558" type="curve" smooth="yes"/>
      <point x="185" y="665"/>
      <point x="248" y="720"/>
      <point x="370" y="720" type="curve" smooth="yes"/>
      <point x="417" y="720"/>
      <point x="463" y="710"/>
      <point x="529" y="685" type="curve"/>
      <point x="535" y="685" type="line"/>
      <point x="549" y="709" type="line"/>
      <point x="549" y="715" type="line"/>
      <point x="477" y="742"/>
      <point x="422" y="754"/>
      <point x="370" y="754" type="curve" smooth="yes"/>
      <point x="226" y="754"/>
      <point x="151" y="687"/>
      <point x="151" y="558" type="curve" smooth="yes"/>
      <point x="151" y="425"/>
      <point x="210" y="353"/>
      <point x="406" y="249" type="curve" smooth="yes"/>
    </contour>
    <contour>
      <point x="327" y="-12" type="curve" smooth="yes"/>
      <point x="536" y="-12"/>
      <point x="639" y="104"/>
      <point x="639" y="342" type="curve" smooth="yes"/>
      <point x="639" y="408" type="line"/>
      <point x="605" y="408" type="line"/>
      <point x="605" y="342" type="line" smooth="yes"/>
      <point x="605" y="126"/>
      <point x="514" y="22"/>
      <point x="327" y="22" type="curve" smooth="yes"/>
      <point x="183" y="22"/>
      <point x="95" y="92"/>
      <point x="95" y="206" type="curve" smooth="yes"/>
      <point x="95" y="287"/>
      <point x="140" y="344"/>
      <point x="234" y="380" type="curve"/>
      <point x="217" y="425" type="line"/>
      <point x="216" y="410" type="line"/>
      <point x="112" y="372"/>
      <point x="61" y="304"/>
      <point x="61" y="206" type="curve" smooth="yes"/>
      <point x="61" y="70"/>
      <point x="161" y="-12"/>
    </contour>
  </outline>
</glyph>
<glyph name="quotesingle" format="1">
  <advance width="189"/>
  <unicode hex="0027"/>
  <outline>
    <contour>
      <point x="81" y="808" type="line"/>
      <point x="81" y="480" type="line"/>
      <point x="96" y="480" type="line"/>
      <point x="120" y="804" type="line"/>
      <point x="120" y="808" type="line"/>
    </contour>
  </outline>
</glyph>
<glyph name="parenleft" format="1">
  <advance width="277"/>
  <unicode hex="0028"/>
  <outline>
    <contour>
      <point x="214" y="-160" type="curve"/>
      <point x="248" y="-160" type="line"/>
      <point x="248" y="-156" type="line"/>
      <point x="145" y="-13"/>
      <point x="90" y="164"/>
      <point x="90" y="354" type="curve" smooth="yes"/>
      <point x="90" y="543"/>
      <point x="145" y="721"/>
      <point x="248" y="864" type="curve"/>
      <point x="248" y="868" type="line"/>
      <point x="214" y="868" type="line"/>
      <point x="112" y="722"/>
      <point x="56" y="541"/>
      <point x="56" y="354" type="curve" smooth="yes"/>
      <point x="56" y="167"/>
      <point x="112" y="-14"/>
    </contour>
  </outline>
</glyph>
<glyph name="asterisk" format="1">
  <advance width="500"/>
  <unicode hex="002A"/>
  <outline>
    <contour>
      <point x="245" y="625" type="line"/>
      <point x="255" y="625" type="line"/>
      <point x="257" y="628" type="line"/>
      <point x="267" y="741" type="line"/>
      <point x="267" y="825" type="line"/>
      <point x="233" y="825" type="line"/>
      <point x="233" y="741" type="line"/>
      <point x="243" y="628" type="line"/>
    </contour>
    <contour>
      <point x="249" y="622" type="line"/>
      <point x="253" y="635" type="line"/>
      <point x="149" y="679" type="line"/>
      <point x="68" y="704" type="line"/>
      <point x="58" y="672" type="line"/>
      <point x="138" y="647" type="line"/>
    </contour>
    <contour>
      <point x="148" y="459" type="line"/>
      <point x="197" y="527" type="line"/>
      <point x="255" y="625" type="line"/>
      <point x="244" y="633" type="line"/>
      <point x="170" y="547" type="line"/>
      <point x="121" y="478" type="line"/>
    </contour>
    <contour>
      <point x="352" y="459" type="line"/>
      <point x="379" y="478" type="line"/>
      <point x="330" y="547" type="line"/>
      <point x="256" y="633" type="line"/>
      <point x="245" y="625" type="line"/>
      <point x="303" y="527" type="line"/>
    </contour>
    <contour>
      <point x="442" y="672" type="line"/>
      <point x="432" y="704" type="line"/>
      <point x="351" y="679" type="line"/>
      <point x="247" y="635" type="line"/>
      <point x="251" y="622" type="line"/>
      <point x="362" y="647" type="line"/>
    </contour>
  </outline>
</glyph>
<glyph name="hyphen" format="1">
  <advance width="462"/>
  <unicode hex="002D"/>
  <outline>
    <contour>
      <point x="79" y="261" type="line"/>
      <point x="383" y="261" type="line"/>
      <point x="383" y="299" type="line"/>
      <point x="79" y="299" type="line"/>
    </contour>
  </outline>
</glyph>
<glyph name="zero" format="1">
  <advance width="664"/>
  <unicode hex="0030"/>
  <outline>
    <contour>
      <point x="332" y="-12" type="curve" smooth="yes"/>
      <point x="507" y="-12"/>
      <point x="598" y="119"/>
      <point x="598" y="369" type="curve" smooth="yes"/>
      <point x="598" y="619"/>
      <point x="507" y="750"/>
      <point x="332" y="750" type="curve" smooth="yes"/>
      <point x="157" y="750"/>
      <point x="66" y="619"/>
      <point x="66" y="369" type="curve" smooth="yes"/>
      <point x="66" y="119"/>
      <point x="157" y="-12"/>
    </contour>
    <contour>
      <point x="332" y="22" type="curve" smooth="yes"/>
      <point x="180" y="22"/>
      <point x="100" y="143"/>
      <point x="100" y="369" type="curve" smooth="yes"/>
      <point x="100" y="595"/>
      <point x="180" y="716"/>
      <point x="332" y="716" type="curve" smooth="yes"/>
      <point x="484" y="716"/>
      <point x="564" y="595"/>
      <point x="564" y="369" type="curve" smooth="yes"/>
      <point x="564" y="143"/>
      <point x="484" y="22"/>
    </contour>
  </outline>
</glyph>
<glyph name="five" format="1">
  <advance width="535"/>
  <unicode hex="0035"/>
  <outline>
    <contour>
      <point x="208" y="-10" type="curve" smooth="yes"/>
      <point x="386" y="-10"/>
      <point x="479" y="55"/>
      <point x="479" y="213" type="curve" smooth="yes"/>
      <point x="479" y="369"/>
      <point x="368" y="421"/>
      <point x="109" y="421" type="curve"/>
      <point x="119" y="395" type="line"/>
      <point x="141" y="718" type="line"/>
      <point x="122" y="706" type="line"/>
      <point x="450" y="706" type="line"/>
      <point x="450" y="740" type="line"/>
      <point x="109" y="740" type="line"/>
      <point x="83" y="393" type="line"/>
      <point x="87" y="389" type="line"/>
      <point x="170" y="387" type="line" smooth="yes"/>
      <point x="356" y="383"/>
      <point x="445" y="336"/>
      <point x="445" y="213" type="curve" smooth="yes"/>
      <point x="445" y="75"/>
      <point x="366" y="24"/>
      <point x="207" y="24" type="curve" smooth="yes"/>
      <point x="161" y="24"/>
      <point x="112" y="29"/>
      <point x="63" y="39" type="curve"/>
      <point x="59" y="39" type="line"/>
      <point x="59" y="4" type="line"/>
      <point x="108" y="-5"/>
      <point x="162" y="-10"/>
    </contour>
  </outline>
</glyph>
<glyph name="six" format="1">
  <advance width="616"/>
  <unicode hex="0036"/>
  <outline>
    <contour>
      <point x="325" y="-12" type="curve" smooth="yes"/>
      <point x="469" y="-12"/>
      <point x="566" y="88"/>
      <point x="566" y="228" type="curve" smooth="yes"/>
      <point x="566" y="372"/>
      <point x="462" y="445"/>
      <point x="333" y="445" type="curve" smooth="yes"/>
      <point x="237" y="445"/>
      <point x="150" y="404"/>
      <point x="77" y="337" type="curve"/>
      <point x="100" y="321" type="line"/>
      <point x="164" y="376"/>
      <point x="252" y="411"/>
      <point x="324" y="411" type="curve" smooth="yes"/>
      <point x="453" y="411"/>
      <point x="530" y="344"/>
      <point x="530" y="232" type="curve" smooth="yes"/>
      <point x="530" y="106"/>
      <point x="449" y="22"/>
      <point x="325" y="22" type="curve" smooth="yes"/>
      <point x="174" y="22"/>
      <point x="99" y="120"/>
      <point x="99" y="324" type="curve" smooth="yes"/>
      <point x="99" y="569"/>
      <point x="209" y="718"/>
      <point x="391" y="718" type="curve" smooth="yes"/>
      <point x="433" y="718"/>
      <point x="468" y="713"/>
      <point x="515" y="700" type="curve"/>
      <point x="515" y="736" type="line"/>
      <point x="469" y="747"/>
      <point x="431" y="752"/>
      <point x="391" y="752" type="curve" smooth="yes"/>
      <point x="185" y="752"/>
      <point x="65" y="593"/>
      <point x="65" y="324" type="curve" smooth="yes"/>
      <point x="65" y="101"/>
      <point x="153" y="-12"/>
    </contour>
  </outline>
</glyph>
<glyph name="seven" format="1">
  <advance width="492"/>
  <unicode hex="0037"/>
  <outline>
    <contour>
      <point x="168" y="-9" type="line"/>
      <point x="141" y="0" type="line"/>
      <point x="141" y="11" type="line"/>
      <point x="442" y="729" type="line"/>
      <point x="444" y="706" type="line"/>
      <point x="34" y="706" type="line"/>
      <point x="29" y="736" type="line"/>
      <point x="29" y="740" type="line"/>
      <point x="453" y="740" type="line"/>
      <point x="465" y="722" type="line"/>
      <point x="465" y="693" type="line"/>
      <point x="179" y="-2" type="line"/>
    </contour>
  </outline>
</glyph>
<glyph name="eight" format="1">
  <advance width="614"/>
  <unicode hex="0038"/>
  <outline>
    <contour>
      <point x="306" y="-4" type="curve" smooth="yes"/>
      <point x="452" y="-4"/>
      <point x="553" y="62"/>
      <point x="553" y="186" type="curve" smooth="yes"/>
      <point x="553" y="318"/>
      <point x="437" y="356"/>
      <point x="327" y="389" type="curve" smooth="yes"/>
      <point x="225" y="420"/>
      <point x="121" y="451"/>
      <point x="121" y="566" type="curve" smooth="yes"/>
      <point x="121" y="669"/>
      <point x="201" y="716"/>
      <point x="306" y="716" type="curve" smooth="yes"/>
      <point x="411" y="716"/>
      <point x="489" y="671"/>
      <point x="489" y="565" type="curve" smooth="yes"/>
      <point x="489" y="422"/>
      <point x="347" y="380"/>
      <point x="347" y="380" type="curve"/>
      <point x="355" y="352" type="line"/>
      <point x="355" y="352"/>
      <point x="523" y="396"/>
      <point x="523" y="565" type="curve" smooth="yes"/>
      <point x="523" y="695"/>
      <point x="431" y="750"/>
      <point x="306" y="750" type="curve" smooth="yes"/>
      <point x="181" y="750"/>
      <point x="87" y="693"/>
      <point x="87" y="566" type="curve" smooth="yes"/>
      <point x="87" y="426"/>
      <point x="202" y="392"/>
      <point x="317" y="357" type="curve" smooth="yes"/>
      <point x="418" y="327"/>
      <point x="519" y="297"/>
      <point x="519" y="186" type="curve" smooth="yes"/>
      <point x="519" y="84"/>
      <point x="432" y="30"/>
      <point x="306" y="30" type="curve" smooth="yes"/>
      <point x="180" y="30"/>
      <point x="97" y="79"/>
      <point x="97" y="192" type="curve" smooth="yes"/>
      <point x="97" y="348"/>
      <point x="251" y="380"/>
      <point x="251" y="380" type="curve"/>
      <point x="245" y="410" type="line"/>
      <point x="245" y="410"/>
      <point x="63" y="376"/>
      <point x="63" y="192" type="curve" smooth="yes"/>
      <point x="63" y="55"/>
      <point x="160" y="-4"/>
    </contour>
  </outline>
</glyph>
<glyph name="equal" format="1">
  <advance width="526"/>
  <unicode hex="003D"/>
  <outline>
    <contour>
      <point x="81" y="236" type="line"/>
      <point x="445" y="236" type="line"/>
      <point x="445" y="270" type="line"/>
      <point x="81" y="270" type="line"/>
    </contour>
    <contour>
      <point x="81" y="447" type="line"/>
      <point x="445" y="447" type="line"/>
      <point x="445" y="481" type="line"/>
      <point x="81" y="481" type="line"/>
    </contour>
  </outline>
</glyph>
<glyph name="question" format="1">
  <advance width="445"/>
  <unicode hex="003F"/>
  <outline>
    <contour>
      <point x="160" y="153" type="line"/>
      <point x="194" y="153" type="line"/>
      <point x="194" y="173" type="line"/>
      <point x="193" y="340" type="line"/>
      <point x="279" y="365"/>
      <point x="401" y="408"/>
      <point x="401" y="556" type="curve" smooth="yes"/>
      <point x="401" y="708"/>
      <point x="295" y="752"/>
      <point x="202" y="752" type="curve" smooth="yes"/>
      <point x="142" y="752"/>
      <point x="81" y="739"/>
      <point x="35" y="722" type="curve"/>
      <point x="48" y="692" type="line"/>
      <point x="100" y="707"/>
      <point x="148" y="718"/>
      <point x="201" y="718" type="curve" smooth="yes"/>
      <point x="278" y="718"/>
      <point x="367" y="680"/>
      <point x="367" y="556" type="curve" smooth="yes"/>
      <point x="367" y="424"/>
      <point x="240" y="389"/>
      <point x="159" y="368" type="curve"/>
      <point x="160" y="173" type="line"/>
    </contour>
    <contour>
      <point x="178" y="2" type="curve" smooth="yes"/>
      <point x="196" y="2"/>
      <point x="208" y="13"/>
      <point x="208" y="31" type="curve" smooth="yes"/>
      <point x="208" y="49"/>
      <point x="196" y="61"/>
      <point x="178" y="61" type="curve" smooth="yes"/>
      <point x="160" y="61"/>
      <point x="149" y="50"/>
      <point x="149" y="31" type="curve" smooth="yes"/>
      <point x="149" y="13"/>
      <point x="160" y="2"/>
    </contour>
  </outline>
</glyph>
<glyph name="B" format="1">
  <advance width="663"/>
  <unicode hex="0042"/>
  <outline>
    <contour>
      <point x="316" y="-10" type="curve" smooth="yes"/>
      <point x="505" y="-10"/>
      <point x="603" y="58"/>
      <point x="603" y="190" type="curve" smooth="yes"/>
      <point x="603" y="291"/>
      <point x="549" y="353"/>
      <point x="446" y="373" type="curve"/>
      <point x="446" y="377" type="line"/>
      <point x="524" y="391"/>
      <point x="578" y="463"/>
      <point x="578" y="554" type="curve" smooth="yes"/>
      <point x="578" y="694"/>
      <point x="506" y="748"/>
      <point x="316" y="748" type="curve" smooth="yes"/>
      <point x="260" y="748"/>
      <point x="200" y="744"/>
      <point x="106" y="735" type="curve"/>
      <point x="106" y="5" type="line"/>
      <point x="188" y="-5"/>
      <point x="256" y="-10"/>
    </contour>
    <contour>
      <point x="316" y="24" type="curve" smooth="yes"/>
      <point x="243" y="24"/>
      <point x="182" y="28"/>
      <point x="140" y="36" type="curve"/>
      <point x="140" y="358" type="line"/>
      <point x="348" y="358" type="line" smooth="yes"/>
      <point x="494" y="358"/>
      <point x="568" y="301"/>
      <point x="568" y="190" type="curve" smooth="yes"/>
      <point x="568" y="77"/>
      <point x="488" y="24"/>
    </contour>
    <contour>
      <point x="140" y="392" type="line"/>
      <point x="140" y="704" type="line"/>
      <point x="187" y="711"/>
      <point x="240" y="714"/>
      <point x="316" y="714" type="curve" smooth="yes"/>
      <point x="483" y="714"/>
      <point x="544" y="671"/>
      <point x="544" y="554" type="curve" smooth="yes"/>
      <point x="544" y="439"/>
      <point x="487" y="392"/>
      <point x="347" y="392" type="curve" smooth="yes"/>
    </contour>
  </outline>
</glyph>
<glyph name="C" format="1">
  <advance width="609"/>
  <unicode hex="0043"/>
  <outline>
    <contour>
      <point x="362" y="760" type="move" name="topUC"/>
    </contour>
    <contour>
      <point x="372" y="0" type="move" name="bottom"/>
    </contour>
    <contour>
      <point x="375" y="-7" type="curve" smooth="yes"/>
      <point x="424" y="-7"/>
      <point x="516" y="6"/>
      <point x="565" y="20" type="curve"/>
      <point x="565" y="53" type="line"/>
      <point x="519" y="40"/>
      <point x="424" y="27"/>
      <point x="374" y="27" type="curve" smooth="yes"/>
      <point x="197" y="27"/>
      <point x="97" y="151"/>
      <point x="97" y="369" type="curve" smooth="yes"/>
      <point x="97" y="588"/>
      <point x="203" y="715"/>
      <point x="385" y="715" type="curve" smooth="yes"/>
      <point x="430" y="715"/>
      <point x="499" y="706"/>
      <point x="565" y="691" type="curve"/>
      <point x="565" y="726" type="line"/>
      <point x="511" y="739"/>
      <point x="434" y="749"/>
      <point x="385" y="749" type="curve" smooth="yes"/>
      <point x="176" y="749"/>
      <point x="63" y="616"/>
      <point x="63" y="368" type="curve" smooth="yes"/>
      <point x="63" y="126"/>
      <point x="173" y="-7"/>
    </contour>
  </outline>
</glyph>
<glyph name="F" format="1">
  <advance width="593"/>
  <unicode hex="0046"/>
  <outline>
    <contour>
      <point x="106" y="0" type="line"/>
      <point x="140" y="0" type="line"/>
      <point x="140" y="706" type="line"/>
      <point x="554" y="706" type="line"/>
      <point x="554" y="740" type="line"/>
      <point x="106" y="740" type="line"/>
    </contour>
    <contour>
      <point x="121" y="361" type="line"/>
      <point x="517" y="361" type="line"/>
      <point x="517" y="395" type="line"/>
      <point x="121" y="395" type="line"/>
    </contour>
  </outline>
</glyph>
<glyph name="J" format="1">
  <advance width="246"/>
  <unicode hex="004A"/>
  <outline>
    <contour>
      <point x="128" y="760" type="move" name="topUC"/>
    </contour>
    <contour>
      <point x="58" y="-177" type="line"/>
      <point x="124" y="-28"/>
      <point x="142" y="48"/>
      <point x="142" y="180" type="curve" smooth="yes"/>
      <point x="142" y="740" type="line"/>
      <point x="108" y="740" type="line"/>
      <point x="108" y="180" type="line" smooth="yes"/>
      <point x="108" y="44"/>
      <point x="89" y="-40"/>
      <point x="29" y="-161" type="curve"/>
    </contour>
  </outline>
</glyph>
<glyph name="K" format="1">
  <advance width="658"/>
  <unicode hex="004B"/>
  <outline>
    <contour>
      <point x="347" y="0" type="move" name="bottom"/>
    </contour>
    <contour>
      <point x="106" y="0" type="line"/>
      <point x="140" y="0" type="line"/>
      <point x="140" y="362" type="line"/>
      <point x="333" y="362" type="line"/>
      <point x="601" y="0" type="line"/>
      <point x="644" y="0" type="line"/>
      <point x="383" y="352" type="line"/>
      <point x="357" y="376" type="line"/>
      <point x="357" y="382" type="line"/>
      <point x="380" y="406" type="line"/>
      <point x="627" y="740" type="line"/>
      <point x="584" y="740" type="line"/>
      <point x="329" y="396" type="line"/>
      <point x="140" y="396" type="line"/>
      <point x="140" y="740" type="line"/>
      <point x="106" y="740" type="line"/>
    </contour>
  </outline>
</glyph>
<glyph name="L" format="1">
  <advance width="537"/>
  <unicode hex="004C"/>
  <outline>
    <contour>
      <point x="126" y="760" type="move" name="topUC"/>
    </contour>
    <contour>
      <point x="447" y="370" type="move" name="periodcentered"/>
    </contour>
    <contour>
      <point x="447" y="740" type="move" name="caronalt"/>
    </contour>
    <contour>
      <point x="316" y="0" type="move" name="bottom"/>
    </contour>
    <contour>
      <point x="106" y="0" type="line"/>
      <point x="522" y="0" type="line"/>
      <point x="522" y="34" type="line"/>
      <point x="140" y="34" type="line"/>
      <point x="140" y="740" type="line"/>
      <point x="106" y="740" type="line"/>
    </contour>
  </outline>
</glyph>
<glyph name="N" format="1">
  <advance width="798"/>
  <unicode hex="004E"/>
  <outline>
    <contour>
      <point x="398" y="760" type="move" name="topUC"/>
    </contour>
    <contour>
      <point x="403" y="0" type="move" name="bottom"/>
    </contour>
    <contour>
      <point x="106" y="0" type="line"/>
      <point x="140" y="0" type="line"/>
      <point x="140" y="681" type="line"/>
      <point x="144" y="681" type="line"/>
      <point x="202" y="600" type="line"/>
      <point x="657" y="0" type="line"/>
      <point x="692" y="0" type="line"/>
      <point x="692" y="740" type="line"/>
      <point x="658" y="740" type="line"/>
      <point x="658" y="57" type="line"/>
      <point x="654" y="57" type="line"/>
      <point x="588" y="148" type="line"/>
      <point x="140" y="740" type="line"/>
      <point x="106" y="740" type="line"/>
    </contour>
  </outline>
</glyph>
<glyph name="R" format="1">
  <advance width="669"/>
  <unicode hex="0052"/>
  <outline>
    <contour>
      <point x="337" y="760" type="move" name="topUC"/>
    </contour>
    <contour>
      <point x="342" y="0" type="move" name="bottom"/>
    </contour>
    <contour>
      <point x="106" y="0" type="line"/>
      <point x="140" y="0" type="line"/>
      <point x="140" y="303" type="line"/>
      <point x="196" y="296"/>
      <point x="243" y="294"/>
      <point x="284" y="294" type="curve" smooth="yes"/>
      <point x="507" y="294"/>
      <point x="602" y="360"/>
      <point x="602" y="521" type="curve" smooth="yes"/>
      <point x="602" y="681"/>
      <point x="503" y="750"/>
      <point x="274" y="750" type="curve" smooth="yes"/>
      <point x="220" y="750"/>
      <point x="163" y="745"/>
      <point x="106" y="735" type="curve"/>
    </contour>
    <contour>
      <point x="284" y="326" type="curve" smooth="yes"/>
      <point x="226" y="326"/>
      <point x="158" y="332"/>
      <point x="140" y="338" type="curve"/>
      <point x="140" y="706" type="line"/>
      <point x="173" y="712"/>
      <point x="227" y="716"/>
      <point x="273" y="716" type="curve" smooth="yes"/>
      <point x="479" y="716"/>
      <point x="568" y="657"/>
      <point x="568" y="521" type="curve" smooth="yes"/>
      <point x="568" y="381"/>
      <point x="488" y="326"/>
    </contour>
    <contour>
      <point x="585" y="0" type="line"/>
      <point x="625" y="0" type="line"/>
      <point x="411" y="319" type="line"/>
      <point x="376" y="311" type="line"/>
    </contour>
  </outline>
</glyph>
<glyph name="U" format="1">
  <advance width="762"/>
  <unicode hex="0055"/>
  <outline>
    <contour>
      <point x="473" y="15" type="move" name="ogonek"/>
    </contour>
    <contour>
      <point x="378" y="760" type="move" name="topUC"/>
    </contour>
    <contour>
      <point x="376" y="0" type="move" name="bottom"/>
    </contour>
    <contour>
      <point x="381" y="-10" type="curve"/>
      <point x="571" y="-10"/>
      <point x="664" y="76"/>
      <point x="664" y="297" type="curve" smooth="yes"/>
      <point x="664" y="739" type="line"/>
      <point x="630" y="739" type="line"/>
      <point x="630" y="305" type="line" smooth="yes"/>
      <point x="630" y="95"/>
      <point x="543" y="24"/>
      <point x="381" y="24" type="curve" smooth="yes"/>
      <point x="219" y="24"/>
      <point x="132" y="95"/>
      <point x="132" y="305" type="curve" smooth="yes"/>
      <point x="132" y="739" type="line"/>
      <point x="98" y="739" type="line"/>
      <point x="98" y="297" type="line" smooth="yes"/>
      <point x="98" y="76"/>
      <point x="191" y="-10"/>
    </contour>
  </outline>
</glyph>
<glyph name="W" format="1">
  <advance width="1008"/>
  <unicode hex="0057"/>
  <outline>
    <contour>
      <point x="504" y="760" type="move" name="topUC"/>
    </contour>
    <contour>
      <point x="250" y="0" type="line"/>
      <point x="297" y="0" type="line"/>
      <point x="468" y="566" type="line"/>
      <point x="502" y="679" type="line"/>
      <point x="506" y="679" type="line"/>
      <point x="540" y="568" type="line"/>
      <point x="711" y="0" type="line"/>
      <point x="758" y="0" type="line"/>
      <point x="982" y="740" type="line"/>
      <point x="947" y="740" type="line"/>
      <point x="781" y="193" type="line"/>
      <point x="736" y="44" type="line"/>
      <point x="732" y="44" type="line"/>
      <point x="687" y="193" type="line"/>
      <point x="522" y="740" type="line"/>
      <point x="486" y="740" type="line"/>
      <point x="320" y="193" type="line"/>
      <point x="275" y="44" type="line"/>
      <point x="271" y="44" type="line"/>
      <point x="226" y="193" type="line"/>
      <point x="61" y="740" type="line"/>
      <point x="26" y="740" type="line"/>
    </contour>
  </outline>
</glyph>
<glyph name="X" format="1">
  <advance width="664"/>
  <unicode hex="0058"/>
  <outline>
    <contour>
      <point x="13" y="0" type="line"/>
      <point x="57" y="0" type="line"/>
      <point x="323" y="344" type="line"/>
      <point x="329" y="354" type="line"/>
      <point x="333" y="354" type="line"/>
      <point x="339" y="344" type="line"/>
      <point x="608" y="0" type="line"/>
      <point x="652" y="0" type="line"/>
      <point x="355" y="379" type="line"/>
      <point x="635" y="740" type="line"/>
      <point x="592" y="740" type="line"/>
      <point x="341" y="416" type="line"/>
      <point x="335" y="406" type="line"/>
      <point x="331" y="406" type="line"/>
      <point x="325" y="416" type="line"/>
      <point x="73" y="740" type="line"/>
      <point x="30" y="740" type="line"/>
      <point x="309" y="381" type="line"/>
    </contour>
  </outline>
</glyph>
<glyph name="asciicircum" format="1">
  <advance width="478"/>
  <unicode hex="005E"/>
  <outline>
    <contour>
      <point x="57" y="481" type="line"/>
      <point x="89" y="481" type="line"/>
      <point x="237" y="745" type="line"/>
      <point x="241" y="745" type="line"/>
      <point x="389" y="481" type="line"/>
      <point x="421" y="481" type="line"/>
      <point x="251" y="789" type="line"/>
      <point x="227" y="789" type="line"/>
    </contour>
  </outline>
</glyph>
<glyph name="grave" format="1">
  <advance width="237"/>
  <unicode hex="0060"/>
  <outline>
    <contour>
      <point x="161" y="600" type="move" name="_top"/>
    </contour>
    <contour>
      <point x="140" y="620" type="line"/>
      <point x="52" y="808" type="line"/>
      <point x="96" y="808" type="line"/>
      <point x="170" y="630" type="line"/>
    </contour>
  </outline>
</glyph>
<glyph name="c" format="1">
  <advance width="474"/>
  <unicode hex="0063"/>
  <outline>
    <contour>
      <point x="280" y="600" type="move" name="top"/>
    </contour>
    <contour>
      <point x="280" y="0" type="move" name="bottom"/>
    </contour>
    <contour>
      <point x="317" y="-9" type="curve" smooth="yes"/>
      <point x="356" y="-9"/>
      <point x="402" y="-4"/>
      <point x="426" y="4" type="curve"/>
      <point x="425" y="37" type="line"/>
      <point x="385" y="28"/>
      <point x="357" y="25"/>
      <point x="319" y="25" type="curve" smooth="yes"/>
      <point x="163" y="25"/>
      <point x="94" y="100"/>
      <point x="94" y="269" type="curve" smooth="yes"/>
      <point x="94" y="432"/>
      <point x="171" y="515"/>
      <point x="322" y="515" type="curve" smooth="yes"/>
      <point x="358" y="515"/>
      <point x="396" y="510"/>
      <point x="426" y="500" type="curve"/>
      <point x="426" y="536" type="line"/>
      <point x="394" y="544"/>
      <point x="348" y="549"/>
      <point x="317" y="549" type="curve" smooth="yes"/>
      <point x="145" y="549"/>
      <point x="58" y="454"/>
      <point x="58" y="269" type="curve" smooth="yes"/>
      <point x="58" y="84"/>
      <point x="145" y="-9"/>
    </contour>
  </outline>
</glyph>
<glyph name="e" format="1">
  <advance width="543"/>
  <unicode hex="0065"/>
  <outline>
    <contour>
      <point x="286" y="600" type="move" name="top"/>
    </contour>
    <contour>
      <point x="471" y="23" type="move" name="ogonek"/>
    </contour>
    <contour>
      <point x="303" y="0" type="move" name="bottom"/>
    </contour>
    <contour>
      <point x="303" y="-9" type="curve" smooth="yes"/>
      <point x="352" y="-9"/>
      <point x="420" y="4"/>
      <point x="471" y="23" type="curve"/>
      <point x="466" y="55" type="line"/>
      <point x="403" y="34"/>
      <point x="356" y="25"/>
      <point x="308" y="25" type="curve" smooth="yes"/>
      <point x="165" y="25"/>
      <point x="93" y="105"/>
      <point x="93" y="264" type="curve" smooth="yes"/>
      <point x="93" y="429"/>
      <point x="162" y="515"/>
      <point x="294" y="515" type="curve" smooth="yes"/>
      <point x="408" y="515"/>
      <point x="453" y="443"/>
      <point x="453" y="258" type="curve"/>
      <point x="480" y="282" type="line"/>
      <point x="70" y="282" type="line"/>
      <point x="70" y="251" type="line"/>
      <point x="484" y="251" type="line"/>
      <point x="486" y="261"/>
      <point x="487" y="280"/>
      <point x="487" y="308" type="curve" smooth="yes"/>
      <point x="487" y="463"/>
      <point x="418" y="549"/>
      <point x="294" y="549" type="curve" smooth="yes"/>
      <point x="142" y="549"/>
      <point x="59" y="447"/>
      <point x="59" y="259" type="curve" smooth="yes"/>
      <point x="59" y="84"/>
      <point x="144" y="-9"/>
    </contour>
  </outline>
</glyph>
<glyph name="h" format="1">
  <advance width="607"/>
  <unicode hex="0068"/>
  <outline>
    <contour>
      <point x="105" y="808" type="move" name="top"/>
    </contour>
    <contour>
      <point x="305" y="0" type="move" name="bottom"/>
    </contour>
    <contour>
      <point x="90" y="0" type="line"/>
      <point x="124" y="0" type="line"/>
      <point x="124" y="438" type="line"/>
      <point x="222" y="485"/>
      <point x="309" y="515"/>
      <point x="373" y="515" type="curve" smooth="yes"/>
      <point x="449" y="515"/>
      <point x="487" y="479"/>
      <point x="487" y="387" type="curve" smooth="yes"/>
      <point x="487" y="0" type="line"/>
      <point x="521" y="0" type="line"/>
      <point x="521" y="402" type="line" smooth="yes"/>
      <point x="521" y="504"/>
      <point x="469" y="550"/>
      <point x="378" y="550" type="curve" smooth="yes"/>
      <point x="313" y="550"/>
      <point x="255" y="531"/>
      <point x="128" y="475" type="curve"/>
      <point x="124" y="475" type="line"/>
      <point x="124" y="808" type="line"/>
      <point x="90" y="808" type="line"/>
    </contour>
  </outline>
</glyph>
<glyph name="j" format="1">
  <advance width="215"/>
  <unicode hex="006A"/>
  <outline>
    <contour>
      <point x="103" y="672" type="curve" smooth="yes"/>
      <point x="121" y="672"/>
      <point x="133" y="683"/>
      <point x="133" y="701" type="curve" smooth="yes"/>
      <point x="133" y="719"/>
      <point x="121" y="730"/>
      <point x="103" y="730" type="curve" smooth="yes"/>
      <point x="84" y="730"/>
      <point x="74" y="719"/>
      <point x="74" y="701" type="curve" smooth="yes"/>
      <point x="74" y="682"/>
      <point x="84" y="672"/>
    </contour>
    <contour>
      <point x="35" y="-220" type="line"/>
      <point x="93" y="-128"/>
      <point x="125" y="-18"/>
      <point x="125" y="93" type="curve" smooth="yes"/>
      <point x="125" y="540" type="line"/>
      <point x="91" y="540" type="line"/>
      <point x="91" y="110" type="line" smooth="yes"/>
      <point x="91" y="-15"/>
      <point x="66" y="-110"/>
      <point x="11" y="-201" type="curve"/>
    </contour>
  </outline>
</glyph>
<glyph name="m" format="1">
  <advance width="900"/>
  <unicode hex="006D"/>
  <outline>
    <contour>
      <point x="90" y="0" type="line"/>
      <point x="124" y="0" type="line"/>
      <point x="124" y="438" type="line"/>
      <point x="202" y="485"/>
      <point x="269" y="515"/>
      <point x="323" y="515" type="curve" smooth="yes"/>
      <point x="399" y="515"/>
      <point x="437" y="479"/>
      <point x="437" y="387" type="curve" smooth="yes"/>
      <point x="437" y="0" type="line"/>
      <point x="471" y="0" type="line"/>
      <point x="471" y="440" type="line"/>
      <point x="554" y="488"/>
      <point x="615" y="515"/>
      <point x="666" y="515" type="curve" smooth="yes"/>
      <point x="742" y="515"/>
      <point x="780" y="479"/>
      <point x="780" y="387" type="curve" smooth="yes"/>
      <point x="780" y="0" type="line"/>
      <point x="814" y="0" type="line"/>
      <point x="814" y="402" type="line" smooth="yes"/>
      <point x="814" y="504"/>
      <point x="762" y="550"/>
      <point x="671" y="550" type="curve" smooth="yes"/>
      <point x="619" y="550"/>
      <point x="572" y="534"/>
      <point x="464" y="472" type="curve"/>
      <point x="460" y="472" type="line"/>
      <point x="440" y="525"/>
      <point x="394" y="550"/>
      <point x="328" y="550" type="curve" smooth="yes"/>
      <point x="273" y="550"/>
      <point x="227" y="531"/>
      <point x="126" y="475" type="curve"/>
      <point x="122" y="475" type="line"/>
      <point x="117" y="540" type="line"/>
      <point x="90" y="540" type="line"/>
    </contour>
  </outline>
</glyph>
<glyph name="n" format="1">
  <advance width="607"/>
  <unicode hex="006E"/>
  <outline>
    <contour>
      <point x="10" y="674" type="move" name="apostrophe"/>
    </contour>
    <contour>
      <point x="309" y="600" type="move" name="top"/>
    </contour>
    <contour>
      <point x="302" y="0" type="move" name="bottom"/>
    </contour>
    <contour>
      <point x="90" y="0" type="line"/>
      <point x="124" y="0" type="line"/>
      <point x="124" y="438" type="line"/>
      <point x="222" y="485"/>
      <point x="309" y="515"/>
      <point x="373" y="515" type="curve" smooth="yes"/>
      <point x="449" y="515"/>
      <point x="487" y="479"/>
      <point x="487" y="387" type="curve" smooth="yes"/>
      <point x="487" y="0" type="line"/>
      <point x="521" y="0" type="line"/>
      <point x="521" y="402" type="line" smooth="yes"/>
      <point x="521" y="504"/>
      <point x="469" y="550"/>
      <point x="378" y="550" type="curve" smooth="yes"/>
      <point x="313" y="550"/>
      <point x="253" y="531"/>
      <point x="126" y="475" type="curve"/>
      <point x="122" y="475" type="line"/>
      <point x="117" y="540" type="line"/>
      <point x="90" y="540" type="line"/>
    </contour>
  </outline>
</glyph>
<glyph name="p" format="1">
  <advance width="605"/>
  <unicode hex="0070"/>
  <outline>
    <contour>
      <point x="90" y="-220" type="line"/>
      <point x="124" y="-220" type="line"/>
      <point x="124" y="2" type="line"/>
      <point x="165" y="-1"/>
      <point x="225" y="-10"/>
      <point x="290" y="-10" type="curve" smooth="yes"/>
      <point x="441" y="-10"/>
      <point x="546" y="75"/>
      <point x="546" y="270" type="curve" smooth="yes"/>
      <point x="546" y="465"/>
      <point x="461" y="550"/>
      <point x="310" y="550" type="curve"/>
      <point x="230" y="550"/>
      <point x="169" y="523"/>
      <point x="128" y="475" type="curve"/>
      <point x="123" y="475" type="line"/>
      <point x="119" y="540" type="line"/>
      <point x="90" y="540" type="line"/>
    </contour>
    <contour>
      <point x="290" y="24" type="curve" smooth="yes"/>
      <point x="226" y="24"/>
      <point x="164" y="31"/>
      <point x="124" y="36" type="curve"/>
      <point x="124" y="380" type="line" smooth="yes"/>
      <point x="124" y="462"/>
      <point x="217" y="516"/>
      <point x="310" y="516" type="curve"/>
      <point x="444" y="516"/>
      <point x="510" y="446"/>
      <point x="510" y="270" type="curve" smooth="yes"/>
      <point x="510" y="98"/>
      <point x="427" y="24"/>
    </contour>
  </outline>
</glyph>
<glyph name="q" format="1">
  <advance width="604"/>
  <unicode hex="0071"/>
  <outline>
    <contour>
      <point x="480" y="-220" type="line"/>
      <point x="514" y="-220" type="line"/>
      <point x="514" y="532" type="line"/>
      <point x="468" y="542"/>
      <point x="378" y="550"/>
      <point x="314" y="550" type="curve" smooth="yes"/>
      <point x="149" y="550"/>
      <point x="58" y="450"/>
      <point x="58" y="270" type="curve" smooth="yes"/>
      <point x="58" y="83"/>
      <point x="136" y="-10"/>
      <point x="294" y="-10" type="curve" smooth="yes"/>
      <point x="372" y="-10"/>
      <point x="438" y="18"/>
      <point x="480" y="70" type="curve"/>
    </contour>
    <contour>
      <point x="294" y="24" type="curve" smooth="yes"/>
      <point x="155" y="24"/>
      <point x="94" y="100"/>
      <point x="94" y="270" type="curve" smooth="yes"/>
      <point x="94" y="433"/>
      <point x="169" y="516"/>
      <point x="314" y="516" type="curve" smooth="yes"/>
      <point x="361" y="516"/>
      <point x="416" y="512"/>
      <point x="480" y="504" type="curve"/>
      <point x="480" y="165" type="line" smooth="yes"/>
      <point x="480" y="87"/>
      <point x="397" y="24"/>
    </contour>
  </outline>
</glyph>
<glyph name="r" format="1">
  <advance width="372"/>
  <unicode hex="0072"/>
  <outline>
    <contour>
      <point x="220" y="600" type="move" name="top"/>
    </contour>
    <contour>
      <point x="107" y="0" type="move" name="bottom"/>
    </contour>
    <contour>
      <point x="90" y="0" type="line"/>
      <point x="124" y="0" type="line"/>
      <point x="124" y="428" type="line"/>
      <point x="209" y="468"/>
      <point x="287" y="506"/>
      <point x="348" y="513" type="curve"/>
      <point x="359" y="513" type="line"/>
      <point x="359" y="549" type="line"/>
      <point x="347" y="549" type="line"/>
      <point x="292" y="543"/>
      <point x="232" y="512"/>
      <point x="126" y="465" type="curve"/>
      <point x="122" y="465" type="line"/>
      <point x="117" y="540" type="line"/>
      <point x="90" y="540" type="line"/>
    </contour>
  </outline>
</glyph>
<glyph name="v" format="1">
  <advance width="538"/>
  <unicode hex="0076"/>
  <outline>
    <contour>
      <point x="242" y="0" type="line"/>
      <point x="296" y="0" type="line"/>
      <point x="510" y="530" type="line"/>
      <point x="510" y="540" type="line"/>
      <point x="477" y="540" type="line"/>
      <point x="293" y="84" type="line"/>
      <point x="271" y="25" type="line"/>
      <point x="267" y="25" type="line"/>
      <point x="245" y="84" type="line"/>
      <point x="61" y="540" type="line"/>
      <point x="28" y="540" type="line"/>
      <point x="28" y="530" type="line"/>
    </contour>
  </outline>
</glyph>
<glyph name="y" format="1">
  <advance width="555"/>
  <unicode hex="0079"/>
  <outline>
    <contour>
      <point x="276" y="600" type="move" name="top"/>
    </contour>
    <contour>
      <point x="192" y="-220" type="line"/>
      <point x="534" y="533" type="line"/>
      <point x="534" y="540" type="line"/>
      <point x="501" y="540" type="line"/>
      <point x="302" y="103" type="line"/>
      <point x="278" y="45" type="line"/>
      <point x="274" y="45" type="line"/>
      <point x="251" y="103" type="line"/>
      <point x="61" y="540" type="line"/>
      <point x="26" y="540" type="line"/>
      <point x="26" y="533" type="line"/>
      <point x="257" y="3" type="line"/>
      <point x="164" y="-202" type="line"/>
      <point x="165" y="-210" type="line"/>
    </contour>
  </outline>
</glyph>
<glyph name="braceleft" format="1">
  <advance width="373"/>
  <unicode hex="007B"/>
  <outline>
    <contour>
      <point x="43" y="335" type="line"/>
      <point x="90" y="335"/>
      <point x="124" y="298"/>
      <point x="124" y="223" type="curve" smooth="yes"/>
      <point x="124" y="-33" type="line" smooth="yes"/>
      <point x="124" y="-125"/>
      <point x="153" y="-160"/>
      <point x="233" y="-160" type="curve" smooth="yes"/>
      <point x="258" y="-160"/>
      <point x="323" y="-157"/>
      <point x="335" y="-155" type="curve"/>
      <point x="335" y="-126" type="line"/>
      <point x="203" y="-126" type="line" smooth="yes"/>
      <point x="171" y="-126"/>
      <point x="158" y="-113"/>
      <point x="158" y="-84" type="curve" smooth="yes"/>
      <point x="158" y="231" type="line" smooth="yes"/>
      <point x="158" y="293"/>
      <point x="131" y="347"/>
      <point x="81" y="354" type="curve"/>
      <point x="131" y="363"/>
      <point x="158" y="418"/>
      <point x="158" y="480" type="curve" smooth="yes"/>
      <point x="158" y="792" type="line" smooth="yes"/>
      <point x="158" y="821"/>
      <point x="171" y="834"/>
      <point x="203" y="834" type="curve" smooth="yes"/>
      <point x="335" y="834" type="line"/>
      <point x="335" y="863" type="line"/>
      <point x="323" y="865"/>
      <point x="256" y="868"/>
      <point x="231" y="868" type="curve" smooth="yes"/>
      <point x="151" y="868"/>
      <point x="124" y="833"/>
      <point x="124" y="741" type="curve" smooth="yes"/>
      <point x="124" y="488" type="line" smooth="yes"/>
      <point x="124" y="413"/>
      <point x="90" y="375"/>
      <point x="43" y="375" type="curve"/>
    </contour>
  </outline>
</glyph>
<glyph name="bar" format="1">
  <advance width="234"/>
  <unicode hex="007C"/>
  <outline>
    <contour>
      <point x="100" y="808" type="line"/>
      <point x="100" y="-220" type="line"/>
      <point x="134" y="-220" type="line"/>
      <point x="134" y="808" type="line"/>
    </contour>
  </outline>
</glyph>
<glyph name="yen" format="1">
  <advance width="658"/>
  <unicode hex="00A5"/>
  <outline>
    <contour>
      <point x="91" y="118" type="line"/>
      <point x="537" y="118" type="line"/>
      <point x="537" y="150" type="line"/>
      <point x="91" y="150" type="line"/>
    </contour>
    <contour>
      <point x="91" y="247" type="line"/>
      <point x="537" y="247" type="line"/>
      <point x="537" y="279" type="line"/>
      <point x="91" y="279" type="line"/>
    </contour>
    <component base="Y" xOffset="30"/>
  </outline>
</glyph>
<glyph name="brokenbar" format="1">
  <advance width="236"/>
  <unicode hex="00A6"/>
  <outline>
    <contour>
      <point x="101" y="-220" type="line"/>
      <point x="135" y="-220" type="line"/>
      <point x="135" y="202" type="line"/>
      <point x="101" y="202" type="line"/>
    </contour>
    <contour>
      <point x="101" y="386" type="line"/>
      <point x="135" y="386" type="line"/>
      <point x="135" y="808" type="line"/>
      <point x="101" y="808" type="line"/>
    </contour>
  </outline>
</glyph>
<glyph name="dieresis" format="1">
  <advance width="471"/>
  <unicode hex="00A8"/>
  <outline>
    <contour>
      <point x="227" y="600" type="move" name="_top"/>
    </contour>
    <contour>
      <point x="106" y="676" type="curve" smooth="yes"/>
      <point x="122" y="676"/>
      <point x="137" y="686"/>
      <point x="137" y="707" type="curve" smooth="yes"/>
      <point x="137" y="728"/>
      <point x="122" y="737"/>
      <point x="106" y="737" type="curve" smooth="yes"/>
      <point x="88" y="737"/>
      <point x="75" y="727"/>
      <point x="75" y="707" type="curve" smooth="yes"/>
      <point x="75" y="686"/>
      <point x="88" y="676"/>
    </contour>
    <contour>
      <point x="346" y="676" type="curve" smooth="yes"/>
      <point x="362" y="676"/>
      <point x="377" y="686"/>
      <point x="377" y="707" type="curve" smooth="yes"/>
      <point x="377" y="728"/>
      <point x="362" y="737"/>
      <point x="346" y="737" type="curve" smooth="yes"/>
      <point x="328" y="737"/>
      <point x="316" y="727"/>
      <point x="316" y="707" type="curve" smooth="yes"/>
      <point x="316" y="686"/>
      <point x="328" y="676"/>
    </contour>
  </outline>
</glyph>
<glyph name="ordfeminine" format="1">
  <advance width="440"/>
  <unicode hex="00AA"/>
  <outline>
    <contour>
      <point x="174" y="348" type="curve" smooth="yes"/>
      <point x="216" y="348"/>
      <point x="257" y="364"/>
      <point x="320" y="399" type="curve"/>
      <point x="324" y="399" type="line"/>
      <point x="330" y="352" type="line"/>
      <point x="360" y="352" type="line"/>
      <point x="360" y="622" type="line" smooth="yes"/>
      <point x="360" y="708"/>
      <point x="322" y="746"/>
      <point x="220" y="746" type="curve" smooth="yes"/>
      <point x="193" y="746"/>
      <point x="155" y="743"/>
      <point x="95" y="734" type="curve"/>
      <point x="103" y="695" type="line"/>
      <point x="161" y="704"/>
      <point x="188" y="705"/>
      <point x="206" y="705" type="curve" smooth="yes"/>
      <point x="295" y="705"/>
      <point x="327" y="680"/>
      <point x="327" y="618" type="curve" smooth="yes"/>
      <point x="327" y="428" type="line"/>
      <point x="252" y="395"/>
      <point x="213" y="382"/>
      <point x="174" y="382" type="curve" smooth="yes"/>
      <point x="123" y="382"/>
      <point x="95" y="406"/>
      <point x="95" y="451" type="curve" smooth="yes"/>
      <point x="95" y="505"/>
      <point x="136" y="529"/>
      <point x="270" y="535" type="curve" smooth="yes"/>
      <point x="350" y="540" type="line"/>
      <point x="345" y="574" type="line"/>
      <point x="223" y="563" type="line" smooth="yes"/>
      <point x="113" y="557"/>
      <point x="56" y="511"/>
      <point x="56" y="447" type="curve" smooth="yes"/>
      <point x="56" y="389"/>
      <point x="106" y="348"/>
    </contour>
  </outline>
</glyph>
<glyph name="logicalnot" format="1">
  <advance width="810"/>
  <unicode hex="00AC"/>
  <outline>
    <contour>
      <point x="79" y="386" type="line"/>
      <point x="691" y="386" type="line"/>
      <point x="691" y="121" type="line"/>
      <point x="725" y="121" type="line"/>
      <point x="725" y="420" type="line"/>
      <point x="79" y="420" type="line"/>
    </contour>
  </outline>
</glyph>
<glyph name="uni00AD" format="1">
  <advance width="462"/>
  <unicode hex="00AD"/>
  <outline>
    <contour>
      <point x="79" y="261" type="line"/>
      <point x="383" y="261" type="line"/>
      <point x="383" y="299" type="line"/>
      <point x="79" y="299" type="line"/>
    </contour>
  </outline>
</glyph>
<glyph name="macron" format="1">
  <advance width="480"/>
  <unicode hex="00AF"/>
  <outline>
    <contour>
      <point x="217" y="600" type="move" name="_top"/>
    </contour>
    <contour>
      <point x="74" y="653" type="line"/>
      <point x="373" y="653" type="line"/>
      <point x="373" y="687" type="line"/>
      <point x="74" y="687" type="line"/>
    </contour>
  </outline>
</glyph>
<glyph name="degree" format="1">
  <advance width="474"/>
  <unicode hex="00B0"/>
  <outline>
    <contour>
      <point x="237" y="380" type="curve" smooth="yes"/>
      <point x="337" y="380"/>
      <point x="418" y="461"/>
      <point x="418" y="561" type="curve" smooth="yes"/>
      <point x="418" y="661"/>
      <point x="337" y="742"/>
      <point x="237" y="742" type="curve" smooth="yes"/>
      <point x="137" y="742"/>
      <point x="56" y="661"/>
      <point x="56" y="561" type="curve"/>
      <point x="56" y="461"/>
      <point x="137" y="380"/>
    </contour>
    <contour>
      <point x="237" y="414" type="curve" smooth="yes"/>
      <point x="155" y="414"/>
      <point x="90" y="479"/>
      <point x="90" y="561" type="curve"/>
      <point x="90" y="643"/>
      <point x="155" y="708"/>
      <point x="237" y="708" type="curve" smooth="yes"/>
      <point x="319" y="708"/>
      <point x="384" y="643"/>
      <point x="384" y="561" type="curve" smooth="yes"/>
      <point x="384" y="479"/>
      <point x="319" y="414"/>
    </contour>
  </outline>
</glyph>
<glyph name="plusminus" format="1">
  <advance width="541"/>
  <unicode hex="00B1"/>
  <outline>
    <contour>
      <point x="88" y="413" type="line"/>
      <point x="452" y="413" type="line"/>
      <point x="452" y="447" type="line"/>
      <point x="88" y="447" type="line"/>
    </contour>
    <contour>
      <point x="88" y="113" type="line"/>
      <point x="452" y="113" type="line"/>
      <point x="452" y="147" type="line"/>
      <point x="88" y="147" type="line"/>
    </contour>
    <contour>
      <point x="253" y="238" type="line"/>
      <point x="287" y="238" type="line"/>
      <point x="287" y="622" type="line"/>
      <point x="253" y="622" type="line"/>
    </contour>
  </outline>
</glyph>
<glyph name="acute" format="1">
  <advance width="228"/>
  <unicode hex="00B4"/>
  <outline>
    <contour>
      <point x="66" y="600" type="move" name="_top"/>
    </contour>
    <contour>
      <point x="80" y="610" type="line"/>
      <point x="167" y="798" type="line"/>
      <point x="131" y="798" type="line"/>
      <point x="56" y="616" type="line"/>
    </contour>
  </outline>
</glyph>
<glyph name="mu" format="1">
  <advance width="632"/>
  <unicode hex="00B5"/>
  <outline>
    <contour>
      <point x="226" y="-10" type="curve" smooth="yes"/>
      <point x="311" y="-10"/>
      <point x="357" y="15"/>
      <point x="493" y="71" type="curve"/>
      <point x="497" y="71" type="line"/>
      <point x="502" y="0" type="line"/>
      <point x="529" y="0" type="line"/>
      <point x="529" y="540" type="line"/>
      <point x="495" y="540" type="line"/>
      <point x="495" y="106" type="line"/>
      <point x="391" y="62"/>
      <point x="317" y="25"/>
      <point x="231" y="25" type="curve" smooth="yes"/>
      <point x="162" y="25"/>
      <point x="132" y="64"/>
      <point x="132" y="153" type="curve" smooth="yes"/>
      <point x="132" y="540" type="line"/>
      <point x="98" y="540" type="line"/>
      <point x="98" y="138" type="line" smooth="yes"/>
      <point x="98" y="40"/>
      <point x="141" y="-10"/>
    </contour>
    <contour>
      <point x="98" y="-220" type="line"/>
      <point x="132" y="-220" type="line"/>
      <point x="132" y="229" type="line"/>
      <point x="98" y="229" type="line"/>
    </contour>
  </outline>
</glyph>
<glyph name="paragraph" format="1">
  <advance width="591"/>
  <unicode hex="00B6"/>
  <outline>
    <contour>
      <point x="387" y="0" type="line"/>
      <point x="353" y="0" type="line"/>
      <point x="353" y="266" type="line"/>
      <point x="342" y="265"/>
      <point x="320" y="265"/>
      <point x="311" y="265" type="curve" smooth="yes"/>
      <point x="150" y="265"/>
      <point x="46" y="326"/>
      <point x="46" y="505" type="curve" smooth="yes"/>
      <point x="46" y="684"/>
      <point x="149" y="745"/>
      <point x="308" y="745" type="curve" smooth="yes"/>
      <point x="335" y="745"/>
      <point x="357" y="741"/>
      <point x="387" y="735" type="curve"/>
    </contour>
    <contour>
      <point x="481" y="0" type="line"/>
      <point x="447" y="0" type="line"/>
      <point x="447" y="735" type="line"/>
      <point x="481" y="735" type="line"/>
    </contour>
  </outline>
</glyph>
<glyph name="cedilla" format="1">
  <advance width="320"/>
  <unicode hex="00B8"/>
  <outline>
    <contour>
      <point x="187" y="0" type="move" name="_bottom"/>
    </contour>
    <contour>
      <point x="121" y="-220" type="curve" smooth="yes"/>
      <point x="197" y="-220"/>
      <point x="239" y="-179"/>
      <point x="239" y="-104" type="curve" smooth="yes"/>
      <point x="239" y="-76"/>
      <point x="233" y="-57"/>
      <point x="202" y="8" type="curve"/>
      <point x="163" y="8" type="line"/>
      <point x="193" y="-50"/>
      <point x="201" y="-72"/>
      <point x="201" y="-105" type="curve" smooth="yes"/>
      <point x="201" y="-162"/>
      <point x="177" y="-184"/>
      <point x="109" y="-184" type="curve" smooth="yes"/>
      <point x="89" y="-184"/>
      <point x="73" y="-182"/>
      <point x="39" y="-174" type="curve"/>
      <point x="39" y="-208" type="line"/>
      <point x="67" y="-216"/>
      <point x="97" y="-220"/>
    </contour>
  </outline>
</glyph>
<glyph name="Thorn" format="1">
  <advance width="651"/>
  <unicode hex="00DE"/>
  <outline>
    <contour>
      <point x="284" y="123" type="curve" smooth="yes"/>
      <point x="508" y="123"/>
      <point x="602" y="197"/>
      <point x="602" y="372" type="curve" smooth="yes"/>
      <point x="602" y="545"/>
      <point x="502" y="621"/>
      <point x="274" y="621" type="curve" smooth="yes"/>
      <point x="221" y="621"/>
      <point x="164" y="616"/>
      <point x="106" y="606" type="curve"/>
      <point x="106" y="139" type="line"/>
      <point x="185" y="128"/>
      <point x="239" y="123"/>
    </contour>
    <contour>
      <point x="284" y="157" type="curve" smooth="yes"/>
      <point x="233" y="157"/>
      <point x="160" y="163"/>
      <point x="140" y="169" type="curve"/>
      <point x="140" y="577" type="line"/>
      <point x="173" y="583"/>
      <point x="227" y="587"/>
      <point x="273" y="587" type="curve" smooth="yes"/>
      <point x="480" y="587"/>
      <point x="568" y="523"/>
      <point x="568" y="372" type="curve" smooth="yes"/>
      <point x="568" y="217"/>
      <point x="489" y="157"/>
    </contour>
    <contour>
      <point x="106" y="0" type="line"/>
      <point x="140" y="0" type="line"/>
      <point x="140" y="741" type="line"/>
      <point x="106" y="741" type="line"/>
    </contour>
  </outline>
</glyph>
<glyph name="icircumflex" format="1">
  <advance width="218"/>
  <unicode hex="00EE"/>
  <outline>
    <contour>
      <point x="-41" y="644" type="line"/>
      <point x="110" y="716" type="line"/>
      <point x="261" y="644" type="line"/>
      <point x="261" y="685" type="line"/>
      <point x="110" y="757" type="line"/>
      <point x="-41" y="685" type="line"/>
    </contour>
    <component base="dotlessi"/>
  </outline>
</glyph>
<glyph name="oslash" format="1">
  <advance width="594"/>
  <unicode hex="00F8"/>
  <outline>
    <contour>
      <point x="306" y="600" type="move" name="top"/>
    </contour>
    <contour>
      <point x="297" y="-10" type="curve" smooth="yes"/>
      <point x="448" y="-10"/>
      <point x="533" y="91"/>
      <point x="533" y="270" type="curve" smooth="yes"/>
      <point x="533" y="449"/>
      <point x="448" y="550"/>
      <point x="297" y="550" type="curve" smooth="yes"/>
      <point x="146" y="550"/>
      <point x="61" y="449"/>
      <point x="61" y="270" type="curve" smooth="yes"/>
      <point x="61" y="91"/>
      <point x="146" y="-10"/>
    </contour>
    <contour>
      <point x="297" y="24" type="curve" smooth="yes"/>
      <point x="163" y="24"/>
      <point x="97" y="106"/>
      <point x="97" y="270" type="curve" smooth="yes"/>
      <point x="97" y="434"/>
      <point x="163" y="516"/>
      <point x="297" y="516" type="curve" smooth="yes"/>
      <point x="431" y="516"/>
      <point x="497" y="434"/>
      <point x="497" y="270" type="curve" smooth="yes"/>
      <point x="497" y="106"/>
      <point x="431" y="24"/>
    </contour>
    <contour>
      <point x="40" y="0" type="line"/>
      <point x="87" y="0" type="line"/>
      <point x="554" y="540" type="line"/>
      <point x="507" y="540" type="line"/>
    </contour>
  </outline>
</glyph>
<glyph name="Dcroat" format="1">
  <advance width="749"/>
  <unicode hex="0110"/>
  <outline>
    <contour>
      <point x="7" y="351" type="line"/>
      <point x="379" y="351" type="line"/>
      <point x="379" y="385" type="line"/>
      <point x="7" y="385" type="line"/>
    </contour>
    <component base="D" xOffset="4"/>
  </outline>
</glyph>
<glyph name="gcommaaccent" format="1">
  <advance width="604"/>
  <unicode hex="0123"/>
  <outline>
    <contour>
      <point x="376" y="798" type="line"/>
      <point x="322" y="648" type="line"/>
      <point x="361" y="648" type="line"/>
      <point x="412" y="798" type="line"/>
    </contour>
    <component base="g"/>
  </outline>
</glyph>
<glyph name="itilde" format="1">
  <advance width="218"/>
  <unicode hex="0129"/>
  <outline>
    <contour>
      <point x="-65" y="666" type="line"/>
      <point x="-35" y="692"/>
      <point x="-4" y="703"/>
      <point x="27" y="703" type="curve" smooth="yes"/>
      <point x="78" y="703"/>
      <point x="130" y="660"/>
      <point x="184" y="660" type="curve" smooth="yes"/>
      <point x="229" y="660"/>
      <point x="272" y="678"/>
      <point x="306" y="707" type="curve"/>
      <point x="282" y="731" type="line"/>
      <point x="252" y="706"/>
      <point x="219" y="693"/>
      <point x="185" y="693" type="curve" smooth="yes"/>
      <point x="127" y="693"/>
      <point x="88" y="736"/>
      <point x="24" y="736" type="curve" smooth="yes"/>
      <point x="-15" y="736"/>
      <point x="-52" y="722"/>
      <point x="-89" y="690" type="curve"/>
    </contour>
    <component base="dotlessi"/>
  </outline>
</glyph>
<glyph name="ibreve" format="1">
  <advance width="218"/>
  <unicode hex="012D"/>
  <outline>
    <contour>
      <point x="110" y="621" type="curve" smooth="yes"/>
      <point x="223" y="621"/>
      <point x="277" y="673"/>
      <point x="277" y="762" type="curve"/>
      <point x="243" y="762" type="line"/>
      <point x="243" y="677"/>
      <point x="191" y="650"/>
      <point x="110" y="650" type="curve" smooth="yes"/>
      <point x="28" y="650"/>
      <point x="-23" y="677"/>
      <point x="-23" y="762" type="curve"/>
      <point x="-57" y="762" type="line"/>
      <point x="-57" y="672"/>
      <point x="-1" y="621"/>
    </contour>
    <component base="dotlessi"/>
  </outline>
</glyph>
<glyph name="jcircumflex" format="1">
  <advance width="214"/>
  <unicode hex="0135"/>
  <outline>
    <contour>
      <point x="-43" y="650" type="line"/>
      <point x="108" y="722" type="line"/>
      <point x="259" y="650" type="line"/>
      <point x="259" y="691" type="line"/>
      <point x="108" y="763" type="line"/>
      <point x="-43" y="691" type="line"/>
    </contour>
    <component base="dotlessj"/>
  </outline>
</glyph>
<glyph name="kgreenlandic" format="1">
  <advance width="550"/>
  <unicode hex="0138"/>
  <outline>
    <contour>
      <point x="90" y="0" type="line"/>
      <point x="124" y="0" type="line"/>
      <point x="124" y="261" type="line"/>
      <point x="302" y="261" type="line"/>
      <point x="496" y="0" type="line"/>
      <point x="536" y="0" type="line"/>
      <point x="341" y="264" type="line"/>
      <point x="325" y="274" type="line"/>
      <point x="325" y="278" type="line"/>
      <point x="340" y="287" type="line"/>
      <point x="520" y="540" type="line"/>
      <point x="480" y="540" type="line"/>
      <point x="304" y="293" type="line"/>
      <point x="124" y="293" type="line"/>
      <point x="124" y="540" type="line"/>
      <point x="90" y="540" type="line"/>
    </contour>
  </outline>
</glyph>
<glyph name="Tbar" format="1">
  <advance width="624"/>
  <unicode hex="0166"/>
  <outline>
    <contour>
      <point x="156" y="372" type="line"/>
      <point x="471" y="372" type="line"/>
      <point x="471" y="406" type="line"/>
      <point x="156" y="406" type="line"/>
    </contour>
    <component base="T" xOffset="4"/>
  </outline>
</glyph>
<glyph name="Schwa" format="1">
  <advance width="695"/>
  <unicode hex="018F"/>
  <outline>
    <contour>
      <point x="597" y="377" type="curve" smooth="yes"/>
      <point x="597" y="148"/>
      <point x="505" y="24"/>
      <point x="335" y="24" type="curve" smooth="yes"/>
      <point x="165" y="24"/>
      <point x="70" y="171"/>
      <point x="94" y="394" type="curve"/>
      <point x="69" y="371" type="line"/>
      <point x="610" y="371" type="line"/>
      <point x="610" y="405" type="line"/>
      <point x="62" y="405" type="line"/>
      <point x="59" y="392"/>
      <point x="57" y="361"/>
      <point x="57" y="330" type="curve" smooth="yes"/>
      <point x="57" y="122"/>
      <point x="166" y="-10"/>
      <point x="339" y="-10" type="curve" smooth="yes"/>
      <point x="523" y="-10"/>
      <point x="631" y="136"/>
      <point x="631" y="385" type="curve" smooth="yes"/>
      <point x="631" y="628"/>
      <point x="527" y="749"/>
      <point x="318" y="749" type="curve" smooth="yes"/>
      <point x="238" y="749"/>
      <point x="133" y="731"/>
      <point x="82" y="708" type="curve"/>
      <point x="86" y="675" type="line"/>
      <point x="172" y="701"/>
      <point x="253" y="715"/>
      <point x="323" y="715" type="curve" smooth="yes"/>
      <point x="510" y="715"/>
      <point x="597" y="607"/>
    </contour>
  </outline>
</glyph>
<glyph name="dotlessj" format="1">
  <advance width="215"/>
  <unicode hex="0237"/>
  <outline>
    <contour>
      <point x="108" y="606" type="move" name="top"/>
    </contour>
    <contour>
      <point x="35" y="-220" type="line"/>
      <point x="93" y="-128"/>
      <point x="125" y="-18"/>
      <point x="125" y="93" type="curve" smooth="yes"/>
      <point x="125" y="540" type="line"/>
      <point x="91" y="540" type="line"/>
      <point x="91" y="110" type="line" smooth="yes"/>
      <point x="91" y="-15"/>
      <point x="66" y="-110"/>
      <point x="11" y="-201" type="curve"/>
    </contour>
  </outline>
</glyph>
<glyph name="apostrophe" format="1">
  <advance width="212"/>
  <unicode hex="02BC"/>
  <outline>
    <contour>
      <point x="108" y="674" type="move" name="_apostrophe"/>
    </contour>
    <contour>
      <point x="88" y="808" type="line"/>
      <point x="88" y="580" type="line"/>
      <point x="103" y="580" type="line"/>
      <point x="127" y="804" type="line"/>
      <point x="127" y="808" type="line"/>
    </contour>
  </outline>
</glyph>
<glyph name="circumflex" format="1">
  <advance width="457"/>
  <unicode hex="02C6"/>
  <outline>
    <contour>
      <point x="228" y="600" type="move" name="_top"/>
    </contour>
    <contour>
      <point x="77" y="644" type="line"/>
      <point x="228" y="716" type="line"/>
      <point x="379" y="644" type="line"/>
      <point x="379" y="685" type="line"/>
      <point x="228" y="757" type="line"/>
      <point x="77" y="685" type="line"/>
    </contour>
  </outline>
</glyph>
<glyph name="ogonek" format="1">
  <advance width="295"/>
  <unicode hex="02DB"/>
  <outline>
    <contour>
      <point x="226" y="0" type="move" name="_ogonek"/>
    </contour>
    <contour>
      <point x="151" y="-220" type="curve" smooth="yes"/>
      <point x="177" y="-220"/>
      <point x="205" y="-215"/>
      <point x="224" y="-208" type="curve"/>
      <point x="224" y="-181" type="line"/>
      <point x="201" y="-188"/>
      <point x="179" y="-191"/>
      <point x="160" y="-191" type="curve" smooth="yes"/>
      <point x="120" y="-191"/>
      <point x="103" y="-178"/>
      <point x="103" y="-147" type="curve" smooth="yes"/>
      <point x="103" y="-101"/>
      <point x="139" y="-65"/>
      <point x="226" y="-24" type="curve"/>
      <point x="226" y="0" type="line"/>
      <point x="198" y="0" type="line"/>
      <point x="98" y="-59"/>
      <point x="70" y="-92"/>
      <point x="70" y="-147" type="curve" smooth="yes"/>
      <point x="70" y="-198"/>
      <point x="94" y="-220"/>
    </contour>
  </outline>
</glyph>
<glyph name="hungarumlaut" format="1">
  <advance width="398"/>
  <unicode hex="02DD"/>
  <outline>
    <contour>
      <point x="158" y="600" type="move" name="_top"/>
    </contour>
    <contour>
      <point x="87" y="620" type="line"/>
      <point x="176" y="808" type="line"/>
      <point x="133" y="808" type="line"/>
      <point x="59" y="630" type="line"/>
    </contour>
    <contour>
      <point x="258" y="620" type="line"/>
      <point x="347" y="808" type="line"/>
      <point x="305" y="808" type="line"/>
      <point x="231" y="630" type="line"/>
    </contour>
  </outline>
</glyph>
<glyph name="uni030F" format="1">
  <advance width="407"/>
  <unicode hex="030F"/>
  <outline>
    <contour>
      <point x="237" y="600" type="move" name="_top"/>
    </contour>
    <contour>
      <point x="167" y="630" type="line"/>
      <point x="93" y="808" type="line"/>
      <point x="51" y="808" type="line"/>
      <point x="140" y="620" type="line"/>
    </contour>
    <contour>
      <point x="339" y="630" type="line"/>
      <point x="265" y="808" type="line"/>
      <point x="222" y="808" type="line"/>
      <point x="311" y="620" type="line"/>
    </contour>
  </outline>
</glyph>
<glyph name="uni03A9" format="1">
  <advance width="784"/>
  <unicode hex="03A9"/>
  <outline>
    <contour>
      <point x="58" y="0" type="line"/>
      <point x="326" y="0" type="line"/>
      <point x="326" y="32" type="line"/>
      <point x="261" y="70"/>
      <point x="103" y="155"/>
      <point x="103" y="398" type="curve" smooth="yes"/>
      <point x="103" y="589"/>
      <point x="218" y="716"/>
      <point x="392" y="716" type="curve" smooth="yes"/>
      <point x="566" y="716"/>
      <point x="681" y="589"/>
      <point x="681" y="398" type="curve" smooth="yes"/>
      <point x="681" y="242"/>
      <point x="605" y="118"/>
      <point x="458" y="32" type="curve"/>
      <point x="458" y="0" type="line"/>
      <point x="726" y="0" type="line"/>
      <point x="726" y="34" type="line"/>
      <point x="515" y="34" type="line"/>
      <point x="644" y="117"/>
      <point x="715" y="244"/>
      <point x="715" y="398" type="curve" smooth="yes"/>
      <point x="715" y="610"/>
      <point x="587" y="750"/>
      <point x="392" y="750" type="curve" smooth="yes"/>
      <point x="197" y="750"/>
      <point x="69" y="610"/>
      <point x="69" y="398" type="curve" smooth="yes"/>
      <point x="69" y="244"/>
      <point x="139" y="117"/>
      <point x="269" y="34" type="curve"/>
      <point x="58" y="34" type="line"/>
    </contour>
  </outline>
</glyph>
<glyph name="pi" format="1">
  <advance width="765"/>
  <unicode hex="03C0"/>
  <outline>
    <contour>
      <point x="216" y="-101" type="line"/>
      <point x="250" y="-101" type="line"/>
      <point x="250" y="506" type="line"/>
      <point x="546" y="506" type="line"/>
      <point x="546" y="111" type="line" smooth="yes"/>
      <point x="546" y="41"/>
      <point x="587" y="0"/>
      <point x="657" y="0" type="curve" smooth="yes"/>
      <point x="673" y="0" type="line"/>
      <point x="673" y="34" type="line"/>
      <point x="657" y="34" type="line" smooth="yes"/>
      <point x="613" y="34"/>
      <point x="580" y="67"/>
      <point x="580" y="111" type="curve" smooth="yes"/>
      <point x="580" y="506" type="line"/>
      <point x="740" y="506" type="line"/>
      <point x="740" y="525" type="line"/>
      <point x="725" y="540" type="line"/>
      <point x="176" y="540" type="line" smooth="yes"/>
      <point x="93" y="540"/>
      <point x="44" y="507"/>
      <point x="20" y="435" type="curve"/>
      <point x="51" y="420" type="line"/>
      <point x="69" y="481"/>
      <point x="106" y="506"/>
      <point x="179" y="506" type="curve" smooth="yes"/>
      <point x="216" y="506" type="line"/>
    </contour>
  </outline>
</glyph>
<glyph name="endash" format="1">
  <advance width="612"/>
  <unicode hex="2013"/>
  <outline>
    <contour>
      <point x="79" y="261" type="line"/>
      <point x="533" y="261" type="line"/>
      <point x="533" y="299" type="line"/>
      <point x="79" y="299" type="line"/>
    </contour>
  </outline>
</glyph>
<glyph name="quoteleft" format="1">
  <advance width="194"/>
  <unicode hex="2018"/>
  <outline>
    <contour>
      <point x="83" y="530" type="curve"/>
      <point x="117" y="540" type="line"/>
      <point x="106" y="574"/>
      <point x="101" y="605"/>
      <point x="101" y="633" type="curve" smooth="yes"/>
      <point x="101" y="686"/>
      <point x="114" y="751"/>
      <point x="134" y="803" type="curve"/>
      <point x="114" y="811" type="line"/>
      <point x="87" y="766"/>
      <point x="69" y="694"/>
      <point x="69" y="633" type="curve" smooth="yes"/>
      <point x="69" y="591"/>
      <point x="73" y="559"/>
    </contour>
  </outline>
</glyph>
<glyph name="quoteright" format="1">
  <advance width="194"/>
  <unicode hex="2019"/>
  <outline>
    <contour>
      <point x="80" y="801" type="line"/>
      <point x="91" y="767"/>
      <point x="96" y="736"/>
      <point x="96" y="708" type="curve" smooth="yes"/>
      <point x="96" y="655"/>
      <point x="83" y="590"/>
      <point x="63" y="538" type="curve"/>
      <point x="83" y="530" type="line"/>
      <point x="110" y="575"/>
      <point x="128" y="647"/>
      <point x="128" y="708" type="curve" smooth="yes"/>
      <point x="128" y="750"/>
      <point x="124" y="782"/>
      <point x="114" y="811" type="curve"/>
    </contour>
  </outline>
</glyph>
<glyph name="bullet" format="1">
  <advance width="319"/>
  <unicode hex="2022"/>
  <outline>
    <contour>
      <point x="160" y="311" type="curve" smooth="yes"/>
      <point x="189" y="311"/>
      <point x="218" y="322"/>
      <point x="218" y="370" type="curve" smooth="yes"/>
      <point x="218" y="418"/>
      <point x="189" y="429"/>
      <point x="160" y="429" type="curve" smooth="yes"/>
      <point x="130" y="429"/>
      <point x="101" y="418"/>
      <point x="101" y="370" type="curve" smooth="yes"/>
      <point x="101" y="322"/>
      <point x="130" y="311"/>
    </contour>
  </outline>
</glyph>
<glyph name="guilsinglright" format="1">
  <advance width="344"/>
  <unicode hex="203A"/>
  <outline>
    <contour>
      <point x="306" y="268" type="line"/>
      <point x="306" y="272" type="line"/>
      <point x="98" y="510" type="line"/>
      <point x="56" y="510" type="line"/>
      <point x="264" y="272" type="line"/>
      <point x="264" y="268" type="line"/>
      <point x="56" y="30" type="line"/>
      <point x="98" y="30" type="line"/>
    </contour>
  </outline>
</glyph>
<glyph name="zerosuperior" format="1">
  <advance width="507"/>
  <unicode hex="2070"/>
  <outline>
    <contour>
      <point x="253" y="292" type="curve"/>
      <point x="383" y="292"/>
      <point x="451" y="388"/>
      <point x="451" y="573" type="curve" smooth="yes"/>
      <point x="451" y="757"/>
      <point x="383" y="854"/>
      <point x="253" y="854" type="curve" smooth="yes"/>
      <point x="123" y="854"/>
      <point x="56" y="757"/>
      <point x="56" y="573" type="curve" smooth="yes"/>
      <point x="56" y="388"/>
      <point x="123" y="292"/>
    </contour>
    <contour>
      <point x="253" y="326" type="curve"/>
      <point x="146" y="326"/>
      <point x="90" y="412"/>
      <point x="90" y="573" type="curve" smooth="yes"/>
      <point x="90" y="733"/>
      <point x="146" y="820"/>
      <point x="253" y="820" type="curve" smooth="yes"/>
      <point x="360" y="820"/>
      <point x="417" y="733"/>
      <point x="417" y="573" type="curve" smooth="yes"/>
      <point x="417" y="412"/>
      <point x="360" y="326"/>
    </contour>
  </outline>
</glyph>
<glyph name="sevensuperior" format="1">
  <advance width="371"/>
  <unicode hex="2077"/>
  <outline>
    <contour>
      <point x="128" y="290" type="line"/>
      <point x="101" y="299" type="line"/>
      <point x="101" y="310" type="line"/>
      <point x="318" y="828" type="line"/>
      <point x="320" y="805" type="line"/>
      <point x="34" y="805" type="line"/>
      <point x="29" y="835" type="line"/>
      <point x="29" y="839" type="line"/>
      <point x="329" y="839" type="line"/>
      <point x="341" y="821" type="line"/>
      <point x="341" y="792" type="line"/>
      <point x="139" y="297" type="line"/>
    </contour>
  </outline>
</glyph>
<glyph name="ninesuperior" format="1">
  <advance width="471"/>
  <unicode hex="2079"/>
  <outline>
    <contour>
      <point x="175" y="292" type="curve" smooth="yes"/>
      <point x="327" y="292"/>
      <point x="416" y="408"/>
      <point x="416" y="607" type="curve" smooth="yes"/>
      <point x="416" y="771"/>
      <point x="351" y="855"/>
      <point x="223" y="855" type="curve" smooth="yes"/>
      <point x="116" y="855"/>
      <point x="44" y="782"/>
      <point x="44" y="673" type="curve" smooth="yes"/>
      <point x="44" y="575"/>
      <point x="113" y="514"/>
      <point x="224" y="514" type="curve" smooth="yes"/>
      <point x="272" y="514"/>
      <point x="331" y="535"/>
      <point x="381" y="571" type="curve"/>
      <point x="371" y="417"/>
      <point x="295" y="326"/>
      <point x="175" y="326" type="curve" smooth="yes"/>
      <point x="145" y="326"/>
      <point x="119" y="330"/>
      <point x="81" y="340" type="curve"/>
      <point x="81" y="304" type="line"/>
      <point x="119" y="296"/>
      <point x="147" y="292"/>
    </contour>
    <contour>
      <point x="224" y="548" type="curve" smooth="yes"/>
      <point x="133" y="548"/>
      <point x="79" y="595"/>
      <point x="79" y="673" type="curve" smooth="yes"/>
      <point x="79" y="762"/>
      <point x="136" y="821"/>
      <point x="223" y="821" type="curve" smooth="yes"/>
      <point x="328" y="821"/>
      <point x="381" y="752"/>
      <point x="382" y="612" type="curve"/>
      <point x="334" y="573"/>
      <point x="273" y="548"/>
    </contour>
  </outline>
</glyph>
<glyph name="zeroinferior" format="1">
  <advance width="507"/>
  <unicode hex="2080"/>
  <outline>
    <contour>
      <point x="253" y="-108" type="curve"/>
      <point x="383" y="-108"/>
      <point x="451" y="-12"/>
      <point x="451" y="173" type="curve" smooth="yes"/>
      <point x="451" y="357"/>
      <point x="383" y="454"/>
      <point x="253" y="454" type="curve" smooth="yes"/>
      <point x="123" y="454"/>
      <point x="56" y="357"/>
      <point x="56" y="173" type="curve" smooth="yes"/>
      <point x="56" y="-12"/>
      <point x="123" y="-108"/>
    </contour>
    <contour>
      <point x="253" y="-74" type="curve"/>
      <point x="146" y="-74"/>
      <point x="90" y="12"/>
      <point x="90" y="173" type="curve" smooth="yes"/>
      <point x="90" y="333"/>
      <point x="146" y="420"/>
      <point x="253" y="420" type="curve" smooth="yes"/>
      <point x="360" y="420"/>
      <point x="417" y="333"/>
      <point x="417" y="173" type="curve" smooth="yes"/>
      <point x="417" y="12"/>
      <point x="360" y="-74"/>
    </contour>
  </outline>
</glyph>
<glyph name="oneinferior" format="1">
  <advance width="307"/>
  <unicode hex="2081"/>
  <outline>
    <contour>
      <point x="182" y="-100" type="line"/>
      <point x="216" y="-100" type="line"/>
      <point x="216" y="446" type="line"/>
      <point x="191" y="446" type="line"/>
      <point x="30" y="351" type="line"/>
      <point x="30" y="345" type="line"/>
      <point x="34" y="325" type="line"/>
      <point x="44" y="325" type="line"/>
      <point x="182" y="401" type="line"/>
    </contour>
  </outline>
</glyph>
<glyph name="threeinferior" format="1">
  <advance width="401"/>
  <unicode hex="2083"/>
  <outline>
    <contour>
      <point x="157" y="-107" type="curve" smooth="yes"/>
      <point x="280" y="-107"/>
      <point x="347" y="-51"/>
      <point x="347" y="51" type="curve" smooth="yes"/>
      <point x="347" y="118"/>
      <point x="315" y="164"/>
      <point x="257" y="180" type="curve"/>
      <point x="305" y="199"/>
      <point x="332" y="242"/>
      <point x="332" y="302" type="curve" smooth="yes"/>
      <point x="332" y="398"/>
      <point x="270" y="454"/>
      <point x="162" y="454" type="curve" smooth="yes"/>
      <point x="124" y="454"/>
      <point x="88" y="450"/>
      <point x="54" y="442" type="curve"/>
      <point x="54" y="410" type="line"/>
      <point x="62" y="410" type="line"/>
      <point x="105" y="416"/>
      <point x="141" y="420"/>
      <point x="163" y="420" type="curve" smooth="yes"/>
      <point x="251" y="420"/>
      <point x="297" y="380"/>
      <point x="297" y="305" type="curve" smooth="yes"/>
      <point x="297" y="233"/>
      <point x="255" y="194"/>
      <point x="178" y="194" type="curve" smooth="yes"/>
      <point x="115" y="194" type="line"/>
      <point x="115" y="160" type="line"/>
      <point x="179" y="160" type="line" smooth="yes"/>
      <point x="265" y="160"/>
      <point x="312" y="123"/>
      <point x="312" y="54" type="curve" smooth="yes"/>
      <point x="312" y="-27"/>
      <point x="255" y="-73"/>
      <point x="157" y="-73" type="curve" smooth="yes"/>
      <point x="130" y="-73"/>
      <point x="86" y="-69"/>
      <point x="62" y="-64" type="curve"/>
      <point x="54" y="-64" type="line"/>
      <point x="54" y="-96" type="line"/>
      <point x="92" y="-103"/>
      <point x="127" y="-107"/>
    </contour>
  </outline>
</glyph>
<glyph name="fourinferior" format="1">
  <advance width="455"/>
  <unicode hex="2084"/>
  <outline>
    <contour>
      <point x="300" y="-100" type="line"/>
      <point x="334" y="-100" type="line"/>
      <point x="334" y="40" type="line"/>
      <point x="423" y="40" type="line"/>
      <point x="423" y="74" type="line"/>
      <point x="334" y="74" type="line"/>
      <point x="334" y="273" type="line"/>
      <point x="310" y="273" type="line"/>
      <point x="301" y="74" type="line"/>
      <point x="72" y="74" type="line"/>
      <point x="237" y="438" type="line"/>
      <point x="237" y="445" type="line"/>
      <point x="217" y="454" type="line"/>
      <point x="211" y="454" type="line"/>
      <point x="28" y="62" type="line"/>
      <point x="43" y="40" type="line"/>
      <point x="300" y="40" type="line"/>
    </contour>
  </outline>
</glyph>
<glyph name="fiveinferior" format="1">
  <advance width="411"/>
  <unicode hex="2085"/>
  <outline>
    <contour>
      <point x="163" y="-107" type="curve" smooth="yes"/>
      <point x="295" y="-107"/>
      <point x="364" y="-58"/>
      <point x="364" y="59" type="curve" smooth="yes"/>
      <point x="364" y="172"/>
      <point x="286" y="212"/>
      <point x="104" y="215" type="curve"/>
      <point x="118" y="412" type="line"/>
      <point x="343" y="412" type="line"/>
      <point x="343" y="446" type="line"/>
      <point x="87" y="446" type="line"/>
      <point x="67" y="188" type="line"/>
      <point x="73" y="183" type="line"/>
      <point x="135" y="181" type="line"/>
      <point x="267" y="178"/>
      <point x="330" y="145"/>
      <point x="330" y="59" type="curve" smooth="yes"/>
      <point x="330" y="-37"/>
      <point x="274" y="-73"/>
      <point x="162" y="-73" type="curve" smooth="yes"/>
      <point x="129" y="-73"/>
      <point x="94" y="-69"/>
      <point x="58" y="-62" type="curve"/>
      <point x="50" y="-62" type="line"/>
      <point x="50" y="-96" type="line"/>
      <point x="88" y="-103"/>
      <point x="129" y="-107"/>
    </contour>
  </outline>
</glyph>
<glyph name="seveninferior" format="1">
  <advance width="371"/>
  <unicode hex="2087"/>
  <outline>
    <contour>
      <point x="128" y="-110" type="line"/>
      <point x="101" y="-101" type="line"/>
      <point x="101" y="-90" type="line"/>
      <point x="318" y="428" type="line"/>
      <point x="320" y="405" type="line"/>
      <point x="34" y="405" type="line"/>
      <point x="29" y="435" type="line"/>
      <point x="29" y="439" type="line"/>
      <point x="329" y="439" type="line"/>
      <point x="341" y="421" type="line"/>
      <point x="341" y="392" type="line"/>
      <point x="139" y="-103" type="line"/>
    </contour>
  </outline>
</glyph>
<glyph name="nineinferior" format="1">
  <advance width="471"/>
  <unicode hex="2089"/>
  <outline>
    <contour>
      <point x="175" y="-108" type="curve" smooth="yes"/>
      <point x="327" y="-108"/>
      <point x="416" y="8"/>
      <point x="416" y="207" type="curve" smooth="yes"/>
      <point x="416" y="371"/>
      <point x="351" y="455"/>
      <point x="223" y="455" type="curve" smooth="yes"/>
      <point x="116" y="455"/>
      <point x="44" y="382"/>
      <point x="44" y="273" type="curve" smooth="yes"/>
      <point x="44" y="175"/>
      <point x="113" y="114"/>
      <point x="224" y="114" type="curve" smooth="yes"/>
      <point x="272" y="114"/>
      <point x="331" y="135"/>
      <point x="381" y="171" type="curve"/>
      <point x="371" y="17"/>
      <point x="295" y="-74"/>
      <point x="175" y="-74" type="curve" smooth="yes"/>
      <point x="145" y="-74"/>
      <point x="119" y="-70"/>
      <point x="81" y="-60" type="curve"/>
      <point x="81" y="-96" type="line"/>
      <point x="119" y="-104"/>
      <point x="147" y="-108"/>
    </contour>
    <contour>
      <point x="224" y="148" type="curve" smooth="yes"/>
      <point x="133" y="148"/>
      <point x="79" y="195"/>
      <point x="79" y="273" type="curve" smooth="yes"/>
      <point x="79" y="362"/>
      <point x="136" y="421"/>
      <point x="223" y="421" type="curve" smooth="yes"/>
      <point x="328" y="421"/>
      <point x="381" y="352"/>
      <point x="382" y="212" type="curve"/>
      <point x="334" y="173"/>
      <point x="273" y="148"/>
    </contour>
  </outline>
</glyph>
<glyph name="colonmonetary" format="1">
  <advance width="622"/>
  <unicode hex="20A1"/>
  <outline>
    <contour>
      <point x="185" y="-51" type="line"/>
      <point x="219" y="-51" type="line"/>
      <point x="493" y="809" type="line"/>
      <point x="459" y="809" type="line"/>
    </contour>
    <component base="C"/>
  </outline>
</glyph>
<glyph name="uni20A6" format="1">
  <advance width="870"/>
  <unicode hex="20A6"/>
  <outline>
    <contour>
      <point x="57" y="266" type="line"/>
      <point x="815" y="266" type="line"/>
      <point x="815" y="300" type="line"/>
      <point x="57" y="300" type="line"/>
    </contour>
    <contour>
      <point x="57" y="437" type="line"/>
      <point x="815" y="437" type="line"/>
      <point x="815" y="471" type="line"/>
      <point x="57" y="471" type="line"/>
    </contour>
    <component base="N" xOffset="33"/>
  </outline>
</glyph>
<glyph name="uni20B9" format="1">
  <advance width="729"/>
  <unicode hex="20B9"/>
  <outline>
    <contour>
      <point x="79" y="699" type="line"/>
      <point x="143" y="703"/>
      <point x="182" y="705"/>
      <point x="234" y="705" type="curve" smooth="yes"/>
      <point x="426" y="705"/>
      <point x="504" y="657"/>
      <point x="504" y="513" type="curve" smooth="yes"/>
      <point x="504" y="370"/>
      <point x="421" y="327"/>
      <point x="221" y="327" type="curve" smooth="yes"/>
      <point x="79" y="327" type="line"/>
      <point x="79" y="295" type="line"/>
      <point x="333" y="295" type="line"/>
      <point x="363" y="284" type="line"/>
      <point x="363" y="295" type="line"/>
      <point x="489" y="325"/>
      <point x="552" y="402"/>
      <point x="552" y="510" type="curve" smooth="yes"/>
      <point x="552" y="618"/>
      <point x="506" y="692"/>
      <point x="409" y="728" type="curve"/>
      <point x="80" y="728" type="line"/>
    </contour>
    <contour>
      <point x="510" y="0" type="line"/>
      <point x="572" y="0" type="line"/>
      <point x="338" y="326" type="line"/>
      <point x="294" y="313" type="line"/>
    </contour>
    <contour>
      <point x="80" y="705" type="line"/>
      <point x="678" y="705" type="line"/>
      <point x="698" y="740" type="line"/>
      <point x="80" y="740" type="line"/>
    </contour>
    <contour>
      <point x="80" y="495" type="line"/>
      <point x="646" y="495" type="line"/>
      <point x="666" y="530" type="line"/>
      <point x="80" y="530" type="line"/>
    </contour>
  </outline>
</glyph>
<glyph name="uni20BA" format="1">
  <advance width="667"/>
  <unicode hex="20BA"/>
  <outline>
    <contour>
      <point x="56" y="416" type="line"/>
      <point x="488" y="516" type="line"/>
      <point x="488" y="551" type="line"/>
      <point x="56" y="451" type="line"/>
    </contour>
    <contour>
      <point x="56" y="247" type="line"/>
      <point x="488" y="347" type="line"/>
      <point x="488" y="382" type="line"/>
      <point x="56" y="282" type="line"/>
    </contour>
    <contour>
      <point x="221" y="0" type="line"/>
      <point x="433" y="0" type="line" smooth="yes"/>
      <point x="510" y="0"/>
      <point x="625" y="39"/>
      <point x="625" y="270" type="curve"/>
      <point x="578" y="270" type="line"/>
      <point x="578" y="134"/>
      <point x="540" y="39"/>
      <point x="433" y="39" type="curve" smooth="yes"/>
      <point x="268" y="39" type="line"/>
      <point x="268" y="740" type="line"/>
      <point x="221" y="740" type="line"/>
    </contour>
  </outline>
</glyph>
<glyph name="servicemark" format="1">
  <advance width="940"/>
  <unicode hex="2120"/>
  <outline>
    <contour>
      <point x="207" y="312" type="curve" smooth="yes"/>
      <point x="301" y="312"/>
      <point x="354" y="352"/>
      <point x="354" y="423" type="curve" smooth="yes"/>
      <point x="354" y="514"/>
      <point x="288" y="533"/>
      <point x="224" y="552" type="curve" smooth="yes"/>
      <point x="147" y="573"/>
      <point x="121" y="593"/>
      <point x="121" y="635" type="curve" smooth="yes"/>
      <point x="121" y="682"/>
      <point x="163" y="713"/>
      <point x="226" y="713" type="curve" smooth="yes"/>
      <point x="254" y="713"/>
      <point x="294" y="707"/>
      <point x="333" y="697" type="curve"/>
      <point x="333" y="732" type="line"/>
      <point x="295" y="742"/>
      <point x="255" y="747"/>
      <point x="226" y="747" type="curve" smooth="yes"/>
      <point x="143" y="747"/>
      <point x="87" y="702"/>
      <point x="87" y="635" type="curve" smooth="yes"/>
      <point x="87" y="575"/>
      <point x="119" y="545"/>
      <point x="213" y="519" type="curve" smooth="yes"/>
      <point x="267" y="502"/>
      <point x="320" y="487"/>
      <point x="320" y="423" type="curve" smooth="yes"/>
      <point x="320" y="374"/>
      <point x="278" y="346"/>
      <point x="207" y="346" type="curve" smooth="yes"/>
      <point x="176" y="346"/>
      <point x="125" y="353"/>
      <point x="79" y="364" type="curve"/>
      <point x="79" y="330" type="line"/>
      <point x="125" y="318"/>
      <point x="173" y="312"/>
    </contour>
    <contour>
      <point x="446" y="320" type="line"/>
      <point x="480" y="320" type="line"/>
      <point x="480" y="674" type="line"/>
      <point x="633" y="337" type="line"/>
      <point x="666" y="337" type="line"/>
      <point x="819" y="674" type="line"/>
      <point x="819" y="320" type="line"/>
      <point x="853" y="320" type="line"/>
      <point x="853" y="740" type="line"/>
      <point x="814" y="740" type="line"/>
      <point x="649" y="377" type="line"/>
      <point x="485" y="740" type="line"/>
      <point x="446" y="740" type="line"/>
    </contour>
  </outline>
</glyph>
<glyph name="trademark" format="1">
  <advance width="926"/>
  <unicode hex="2122"/>
  <outline>
    <contour>
      <point x="432" y="320" type="line"/>
      <point x="466" y="320" type="line"/>
      <point x="466" y="674" type="line"/>
      <point x="619" y="337" type="line"/>
      <point x="652" y="337" type="line"/>
      <point x="805" y="674" type="line"/>
      <point x="805" y="320" type="line"/>
      <point x="839" y="320" type="line"/>
      <point x="839" y="740" type="line"/>
      <point x="800" y="740" type="line"/>
      <point x="635" y="377" type="line"/>
      <point x="471" y="740" type="line"/>
      <point x="432" y="740" type="line"/>
    </contour>
    <contour>
      <point x="187" y="320" type="line"/>
      <point x="221" y="320" type="line"/>
      <point x="221" y="706" type="line"/>
      <point x="371" y="706" type="line"/>
      <point x="371" y="740" type="line"/>
      <point x="37" y="740" type="line"/>
      <point x="37" y="706" type="line"/>
      <point x="187" y="706" type="line"/>
    </contour>
  </outline>
</glyph>
<glyph name="Omega" format="1">
  <advance width="790"/>
  <unicode hex="2126"/>
  <outline>
    <contour>
      <point x="61" y="0" type="line"/>
      <point x="329" y="0" type="line"/>
      <point x="329" y="32" type="line"/>
      <point x="264" y="70"/>
      <point x="106" y="155"/>
      <point x="106" y="398" type="curve" smooth="yes"/>
      <point x="106" y="589"/>
      <point x="221" y="716"/>
      <point x="395" y="716" type="curve" smooth="yes"/>
      <point x="569" y="716"/>
      <point x="684" y="589"/>
      <point x="684" y="398" type="curve" smooth="yes"/>
      <point x="684" y="242"/>
      <point x="608" y="118"/>
      <point x="461" y="32" type="curve"/>
      <point x="461" y="0" type="line"/>
      <point x="729" y="0" type="line"/>
      <point x="729" y="34" type="line"/>
      <point x="518" y="34" type="line"/>
      <point x="647" y="117"/>
      <point x="718" y="244"/>
      <point x="718" y="398" type="curve" smooth="yes"/>
      <point x="718" y="610"/>
      <point x="590" y="750"/>
      <point x="395" y="750" type="curve" smooth="yes"/>
      <point x="200" y="750"/>
      <point x="72" y="610"/>
      <point x="72" y="398" type="curve" smooth="yes"/>
      <point x="72" y="244"/>
      <point x="142" y="117"/>
      <point x="272" y="34" type="curve"/>
      <point x="61" y="34" type="line"/>
    </contour>
  </outline>
</glyph>
<glyph name="Delta" format="1">
  <advance width="739"/>
  <unicode hex="2206"/>
  <outline>
    <contour>
      <point x="28" y="0" type="line"/>
      <point x="711" y="0" type="line"/>
      <point x="392" y="740" type="line"/>
      <point x="347" y="740" type="line"/>
    </contour>
    <contour>
      <point x="78" y="34" type="line"/>
      <point x="369" y="708" type="line"/>
      <point x="660" y="34" type="line"/>
    </contour>
  </outline>
</glyph>
<glyph name="summation" format="1">
  <advance width="612"/>
  <unicode hex="2211"/>
  <outline>
    <contour>
      <point x="43" y="-101" type="line"/>
      <point x="559" y="-101" type="line"/>
      <point x="559" y="-67" type="line"/>
      <point x="87" y="-67" type="line"/>
      <point x="373" y="319" type="line"/>
      <point x="86" y="706" type="line"/>
      <point x="559" y="706" type="line"/>
      <point x="559" y="740" type="line"/>
      <point x="43" y="740" type="line"/>
      <point x="43" y="709" type="line"/>
      <point x="332" y="319" type="line"/>
      <point x="43" y="-71" type="line"/>
    </contour>
  </outline>
</glyph>
<glyph name="minus" format="1">
  <advance width="526"/>
  <unicode hex="2212"/>
  <outline>
    <contour>
      <point x="81" y="353" type="line"/>
      <point x="445" y="353" type="line"/>
      <point x="445" y="387" type="line"/>
      <point x="81" y="387" type="line"/>
    </contour>
  </outline>
</glyph>
<glyph name="notequal" format="1">
  <advance width="453"/>
  <unicode hex="2260"/>
  <outline>
    <contour>
      <point x="271" y="578" type="line"/>
      <point x="154" y="142" type="line"/>
      <point x="186" y="134" type="line"/>
      <point x="303" y="570" type="line"/>
    </contour>
    <contour>
      <point x="44" y="236" type="line"/>
      <point x="408" y="236" type="line"/>
      <point x="408" y="270" type="line"/>
      <point x="44" y="270" type="line"/>
    </contour>
    <contour>
      <point x="44" y="447" type="line"/>
      <point x="408" y="447" type="line"/>
      <point x="408" y="481" type="line"/>
      <point x="44" y="481" type="line"/>
    </contour>
  </outline>
</glyph>
<glyph name="lozenge" format="1">
  <advance width="548"/>
  <unicode hex="25CA"/>
  <outline>
    <contour>
      <point x="251" y="0" type="line"/>
      <point x="297" y="0" type="line"/>
      <point x="509" y="366" type="line"/>
      <point x="509" y="374" type="line"/>
      <point x="297" y="740" type="line"/>
      <point x="251" y="740" type="line"/>
      <point x="39" y="374" type="line"/>
      <point x="39" y="366" type="line"/>
    </contour>
    <contour>
      <point x="274" y="22" type="line"/>
      <point x="74" y="370" type="line"/>
      <point x="274" y="717" type="line"/>
      <point x="473" y="370" type="line"/>
    </contour>
  </outline>
</glyph>
<glyph name="AE.sc" format="1">
  <advance width="759"/>
  <outline>
    <contour>
      <point x="452" y="760" type="move" name="topUC"/>
    </contour>
    <contour>
      <point x="25" y="0" type="line"/>
      <point x="58" y="0" type="line"/>
      <point x="150" y="190" type="line"/>
      <point x="376" y="190" type="line"/>
      <point x="385" y="0" type="line"/>
      <point x="704" y="0" type="line"/>
      <point x="704" y="32" type="line"/>
      <point x="419" y="32" type="line"/>
      <point x="407" y="277" type="line"/>
      <point x="668" y="277" type="line"/>
      <point x="668" y="309" type="line"/>
      <point x="405" y="309" type="line"/>
      <point x="394" y="545" type="line"/>
      <point x="696" y="545" type="line"/>
      <point x="696" y="577" type="line"/>
      <point x="299" y="577" type="line"/>
      <point x="25" y="5" type="line"/>
    </contour>
    <contour>
      <point x="323" y="545" type="line"/>
      <point x="360" y="545" type="line"/>
      <point x="375" y="222" type="line"/>
      <point x="166" y="222" type="line"/>
    </contour>
  </outline>
</glyph>
<glyph name="A.sc" format="1">
  <advance width="609"/>
  <note>
    520
  </note>
  <outline>
    <contour>
      <point x="517" y="0" type="move" name="ogonek"/>
    </contour>
    <contour>
      <point x="267" y="760" type="move" name="topUC"/>
    </contour>
    <contour>
      <point x="20" y="0" type="line"/>
      <point x="56" y="0" type="line"/>
      <point x="141" y="190" type="line"/>
      <point x="468" y="190" type="line"/>
      <point x="553" y="0" type="line"/>
      <point x="589" y="0" type="line"/>
      <point x="589" y="4" type="line"/>
      <point x="333" y="577" type="line"/>
      <point x="276" y="577" type="line"/>
      <point x="20" y="4" type="line"/>
    </contour>
    <contour>
      <point x="154" y="222" type="line"/>
      <point x="260" y="457" type="line"/>
      <point x="302" y="553" type="line"/>
      <point x="306" y="553" type="line"/>
      <point x="349" y="457" type="line"/>
      <point x="454" y="222" type="line"/>
    </contour>
  </outline>
</glyph>
<glyph name="Abreve.sc" format="1">
  <advance width="609"/>
  <outline>
    <contour>
      <point x="305" y="636" type="curve" smooth="yes"/>
      <point x="395" y="636"/>
      <point x="449" y="677"/>
      <point x="449" y="742" type="curve"/>
      <point x="417" y="742" type="line"/>
      <point x="417" y="694"/>
      <point x="375" y="666"/>
      <point x="305" y="666" type="curve" smooth="yes"/>
      <point x="235" y="666"/>
      <point x="193" y="694"/>
      <point x="193" y="742" type="curve"/>
      <point x="161" y="742" type="line"/>
      <point x="161" y="677"/>
      <point x="215" y="636"/>
    </contour>
    <contour>
      <point x="20" y="0" type="line"/>
      <point x="56" y="0" type="line"/>
      <point x="141" y="190" type="line"/>
      <point x="468" y="190" type="line"/>
      <point x="553" y="0" type="line"/>
      <point x="589" y="0" type="line"/>
      <point x="589" y="4" type="line"/>
      <point x="333" y="577" type="line"/>
      <point x="276" y="577" type="line"/>
      <point x="20" y="4" type="line"/>
    </contour>
    <contour>
      <point x="154" y="222" type="line"/>
      <point x="260" y="457" type="line"/>
      <point x="302" y="553" type="line"/>
      <point x="306" y="553" type="line"/>
      <point x="349" y="457" type="line"/>
      <point x="454" y="222" type="line"/>
    </contour>
  </outline>
</glyph>
<glyph name="Adieresis.sc" format="1">
  <advance width="609"/>
  <outline>
    <contour>
      <point x="189" y="650" type="curve" smooth="yes"/>
      <point x="206" y="650"/>
      <point x="221" y="658"/>
      <point x="221" y="679" type="curve" smooth="yes"/>
      <point x="221" y="700"/>
      <point x="206" y="708"/>
      <point x="189" y="708" type="curve" smooth="yes"/>
      <point x="171" y="708"/>
      <point x="159" y="699"/>
      <point x="159" y="679" type="curve" smooth="yes"/>
      <point x="159" y="659"/>
      <point x="171" y="650"/>
    </contour>
    <contour>
      <point x="421" y="650" type="curve" smooth="yes"/>
      <point x="437" y="650"/>
      <point x="452" y="658"/>
      <point x="452" y="679" type="curve" smooth="yes"/>
      <point x="452" y="700"/>
      <point x="437" y="708"/>
      <point x="421" y="708" type="curve" smooth="yes"/>
      <point x="403" y="708"/>
      <point x="390" y="699"/>
      <point x="390" y="679" type="curve" smooth="yes"/>
      <point x="390" y="659"/>
      <point x="403" y="650"/>
    </contour>
    <contour>
      <point x="20" y="0" type="line"/>
      <point x="56" y="0" type="line"/>
      <point x="141" y="190" type="line"/>
      <point x="468" y="190" type="line"/>
      <point x="553" y="0" type="line"/>
      <point x="589" y="0" type="line"/>
      <point x="589" y="4" type="line"/>
      <point x="333" y="577" type="line"/>
      <point x="276" y="577" type="line"/>
      <point x="20" y="4" type="line"/>
    </contour>
    <contour>
      <point x="154" y="222" type="line"/>
      <point x="260" y="457" type="line"/>
      <point x="302" y="553" type="line"/>
      <point x="306" y="553" type="line"/>
      <point x="349" y="457" type="line"/>
      <point x="454" y="222" type="line"/>
    </contour>
  </outline>
</glyph>
<glyph name="Amacron.sc" format="1">
  <advance width="609"/>
  <outline>
    <contour>
      <point x="20" y="0" type="line"/>
      <point x="56" y="0" type="line"/>
      <point x="141" y="190" type="line"/>
      <point x="468" y="190" type="line"/>
      <point x="553" y="0" type="line"/>
      <point x="589" y="0" type="line"/>
      <point x="589" y="4" type="line"/>
      <point x="333" y="577" type="line"/>
      <point x="276" y="577" type="line"/>
      <point x="20" y="4" type="line"/>
    </contour>
    <contour>
      <point x="154" y="222" type="line"/>
      <point x="260" y="457" type="line"/>
      <point x="302" y="553" type="line"/>
      <point x="306" y="553" type="line"/>
      <point x="349" y="457" type="line"/>
      <point x="454" y="222" type="line"/>
    </contour>
    <contour>
      <point x="176" y="657" type="line"/>
      <point x="437" y="657" type="line"/>
      <point x="437" y="688" type="line"/>
      <point x="176" y="688" type="line"/>
    </contour>
  </outline>
</glyph>
<glyph name="Aogonek.sc" format="1">
  <advance width="608"/>
  <outline>
    <contour>
      <point x="522" y="-168" type="curve" smooth="yes"/>
      <point x="545" y="-168"/>
      <point x="570" y="-164"/>
      <point x="586" y="-158" type="curve"/>
      <point x="586" y="-134" type="line"/>
      <point x="568" y="-139"/>
      <point x="548" y="-142"/>
      <point x="529" y="-142" type="curve" smooth="yes"/>
      <point x="500" y="-142"/>
      <point x="482" y="-135"/>
      <point x="482" y="-109" type="curve" smooth="yes"/>
      <point x="482" y="-69"/>
      <point x="524" y="-42"/>
      <point x="588" y="-14" type="curve"/>
      <point x="588" y="4" type="line"/>
      <point x="332" y="577" type="line"/>
      <point x="275" y="577" type="line"/>
      <point x="19" y="4" type="line"/>
      <point x="19" y="0" type="line"/>
      <point x="55" y="0" type="line"/>
      <point x="140" y="190" type="line"/>
      <point x="467" y="190" type="line"/>
      <point x="551" y="0" type="line"/>
      <point x="552" y="0" type="line"/>
      <point x="472" y="-47"/>
      <point x="451" y="-69"/>
      <point x="451" y="-109" type="curve" smooth="yes"/>
      <point x="451" y="-150"/>
      <point x="472" y="-168"/>
    </contour>
    <contour>
      <point x="153" y="222" type="line"/>
      <point x="259" y="460" type="line"/>
      <point x="301" y="553" type="line"/>
      <point x="305" y="553" type="line"/>
      <point x="348" y="460" type="line"/>
      <point x="453" y="222" type="line"/>
    </contour>
  </outline>
</glyph>
<glyph name="Aringacute.sc" format="1">
  <advance width="610"/>
  <outline>
    <contour>
      <point x="21" y="0" type="line"/>
      <point x="57" y="0" type="line"/>
      <point x="142" y="190" type="line"/>
      <point x="469" y="190" type="line"/>
      <point x="554" y="0" type="line"/>
      <point x="590" y="0" type="line"/>
      <point x="590" y="4" type="line"/>
      <point x="360" y="519" type="line"/>
      <point x="389" y="534"/>
      <point x="408" y="559"/>
      <point x="408" y="590" type="curve" smooth="yes"/>
      <point x="408" y="632"/>
      <point x="374" y="665"/>
      <point x="326" y="673" type="curve"/>
      <point x="385" y="753" type="line"/>
      <point x="348" y="753" type="line"/>
      <point x="288" y="674" type="line"/>
      <point x="235" y="668"/>
      <point x="198" y="634"/>
      <point x="198" y="590" type="curve" smooth="yes"/>
      <point x="198" y="558"/>
      <point x="218" y="532"/>
      <point x="250" y="517" type="curve"/>
      <point x="21" y="4" type="line"/>
    </contour>
    <contour>
      <point x="304" y="535" type="curve" smooth="yes"/>
      <point x="259" y="535"/>
      <point x="230" y="556"/>
      <point x="230" y="590" type="curve" smooth="yes"/>
      <point x="230" y="625"/>
      <point x="259" y="646"/>
      <point x="304" y="646" type="curve" smooth="yes"/>
      <point x="348" y="646"/>
      <point x="375" y="625"/>
      <point x="375" y="590" type="curve" smooth="yes"/>
      <point x="375" y="556"/>
      <point x="348" y="535"/>
    </contour>
    <contour>
      <point x="155" y="222" type="line"/>
      <point x="261" y="457" type="line"/>
      <point x="282" y="506" type="line"/>
      <point x="328" y="507" type="line"/>
      <point x="350" y="457" type="line"/>
      <point x="455" y="222" type="line"/>
    </contour>
  </outline>
</glyph>
<glyph name="B.sc" format="1">
  <advance width="590"/>
  <outline>
    <contour>
      <point x="282" y="-8" type="curve" smooth="yes"/>
      <point x="446" y="-8"/>
      <point x="530" y="45"/>
      <point x="530" y="149" type="curve" smooth="yes"/>
      <point x="530" y="227"/>
      <point x="484" y="275"/>
      <point x="396" y="291" type="curve"/>
      <point x="396" y="294" type="line"/>
      <point x="463" y="305"/>
      <point x="509" y="361"/>
      <point x="509" y="431" type="curve" smooth="yes"/>
      <point x="509" y="541"/>
      <point x="447" y="583"/>
      <point x="282" y="583" type="curve" smooth="yes"/>
      <point x="233" y="583"/>
      <point x="180" y="580"/>
      <point x="99" y="573" type="curve"/>
      <point x="99" y="4" type="line"/>
      <point x="172" y="-4"/>
      <point x="230" y="-8"/>
    </contour>
    <contour>
      <point x="282" y="24" type="curve" smooth="yes"/>
      <point x="218" y="24"/>
      <point x="169" y="27"/>
      <point x="133" y="33" type="curve"/>
      <point x="133" y="277" type="line"/>
      <point x="311" y="277" type="line" smooth="yes"/>
      <point x="433" y="277"/>
      <point x="495" y="234"/>
      <point x="495" y="150" type="curve" smooth="yes"/>
      <point x="495" y="64"/>
      <point x="428" y="24"/>
    </contour>
    <contour>
      <point x="133" y="308" type="line"/>
      <point x="133" y="544" type="line"/>
      <point x="172" y="550"/>
      <point x="217" y="552"/>
      <point x="282" y="552" type="curve" smooth="yes"/>
      <point x="424" y="552"/>
      <point x="475" y="520"/>
      <point x="475" y="431" type="curve" smooth="yes"/>
      <point x="475" y="344"/>
      <point x="427" y="308"/>
      <point x="309" y="308" type="curve" smooth="yes"/>
    </contour>
  </outline>
</glyph>
<glyph name="Cacute.sc" format="1">
  <advance width="544"/>
  <outline>
    <contour>
      <point x="331" y="-6" type="curve" smooth="yes"/>
      <point x="373" y="-6"/>
      <point x="453" y="5"/>
      <point x="496" y="16" type="curve"/>
      <point x="496" y="47" type="line"/>
      <point x="457" y="37"/>
      <point x="374" y="27"/>
      <point x="331" y="27" type="curve" smooth="yes"/>
      <point x="181" y="27"/>
      <point x="97" y="121"/>
      <point x="97" y="288" type="curve" smooth="yes"/>
      <point x="97" y="455"/>
      <point x="187" y="552"/>
      <point x="340" y="552" type="curve" smooth="yes"/>
      <point x="378" y="552"/>
      <point x="437" y="545"/>
      <point x="496" y="533" type="curve"/>
      <point x="496" y="566" type="line"/>
      <point x="448" y="577"/>
      <point x="382" y="584"/>
      <point x="339" y="584" type="curve" smooth="yes"/>
      <point x="161" y="584"/>
      <point x="63" y="480"/>
      <point x="63" y="287" type="curve" smooth="yes"/>
      <point x="63" y="98"/>
      <point x="158" y="-6"/>
    </contour>
    <contour>
      <point x="329" y="628" type="line"/>
      <point x="403" y="729" type="line"/>
      <point x="365" y="729" type="line"/>
      <point x="298" y="633" type="line"/>
    </contour>
  </outline>
</glyph>
<glyph name="Ccaron.sc" format="1">
  <advance width="544"/>
  <outline>
    <contour>
      <point x="331" y="-6" type="curve" smooth="yes"/>
      <point x="373" y="-6"/>
      <point x="453" y="5"/>
      <point x="496" y="16" type="curve"/>
      <point x="496" y="47" type="line"/>
      <point x="457" y="37"/>
      <point x="374" y="27"/>
      <point x="331" y="27" type="curve" smooth="yes"/>
      <point x="181" y="27"/>
      <point x="97" y="121"/>
      <point x="97" y="288" type="curve" smooth="yes"/>
      <point x="97" y="455"/>
      <point x="187" y="552"/>
      <point x="340" y="552" type="curve" smooth="yes"/>
      <point x="378" y="552"/>
      <point x="437" y="545"/>
      <point x="496" y="533" type="curve"/>
      <point x="496" y="566" type="line"/>
      <point x="448" y="577"/>
      <point x="382" y="584"/>
      <point x="339" y="584" type="curve" smooth="yes"/>
      <point x="161" y="584"/>
      <point x="63" y="480"/>
      <point x="63" y="287" type="curve" smooth="yes"/>
      <point x="63" y="98"/>
      <point x="158" y="-6"/>
    </contour>
    <contour>
      <point x="188" y="695" type="line"/>
      <point x="320" y="639" type="line"/>
      <point x="451" y="695" type="line"/>
      <point x="451" y="731" type="line"/>
      <point x="320" y="675" type="line"/>
      <point x="188" y="731" type="line"/>
    </contour>
  </outline>
</glyph>
<glyph name="Ccedilla.sc" format="1">
  <advance width="544"/>
  <outline>
    <contour>
      <point x="275" y="-172" type="curve" smooth="yes"/>
      <point x="340" y="-172"/>
      <point x="375" y="-139"/>
      <point x="375" y="-80" type="curve" smooth="yes"/>
      <point x="375" y="-60"/>
      <point x="369" y="-44"/>
      <point x="348" y="-5" type="curve"/>
      <point x="392" y="-3"/>
      <point x="458" y="6"/>
      <point x="496" y="16" type="curve"/>
      <point x="496" y="47" type="line"/>
      <point x="457" y="37"/>
      <point x="374" y="27"/>
      <point x="331" y="27" type="curve" smooth="yes"/>
      <point x="181" y="27"/>
      <point x="97" y="121"/>
      <point x="97" y="288" type="curve" smooth="yes"/>
      <point x="97" y="455"/>
      <point x="187" y="552"/>
      <point x="340" y="552" type="curve" smooth="yes"/>
      <point x="378" y="552"/>
      <point x="437" y="545"/>
      <point x="496" y="533" type="curve"/>
      <point x="496" y="566" type="line"/>
      <point x="448" y="577"/>
      <point x="382" y="584"/>
      <point x="339" y="584" type="curve" smooth="yes"/>
      <point x="161" y="584"/>
      <point x="63" y="480"/>
      <point x="63" y="287" type="curve" smooth="yes"/>
      <point x="63" y="104"/>
      <point x="151" y="0"/>
      <point x="314" y="-6" type="curve"/>
      <point x="336" y="-44"/>
      <point x="340" y="-57"/>
      <point x="340" y="-74" type="curve" smooth="yes"/>
      <point x="340" y="-122"/>
      <point x="321" y="-140"/>
      <point x="260" y="-140" type="curve" smooth="yes"/>
      <point x="236" y="-140"/>
      <point x="219" y="-138"/>
      <point x="202" y="-132" type="curve"/>
      <point x="202" y="-162" type="line"/>
      <point x="228" y="-169"/>
      <point x="256" y="-172"/>
    </contour>
  </outline>
</glyph>
<glyph name="Dcroat.sc" format="1">
  <advance width="667"/>
  <outline>
    <contour>
      <point x="16" y="271" type="line"/>
      <point x="104" y="271" type="line"/>
      <point x="104" y="8" type="line"/>
      <point x="125" y="-1"/>
      <point x="193" y="-7"/>
      <point x="271" y="-7" type="curve" smooth="yes"/>
      <point x="500" y="-7"/>
      <point x="604" y="86"/>
      <point x="604" y="289" type="curve" smooth="yes"/>
      <point x="604" y="492"/>
      <point x="500" y="583"/>
      <point x="271" y="583" type="curve" smooth="yes"/>
      <point x="231" y="583"/>
      <point x="140" y="580"/>
      <point x="104" y="577" type="curve"/>
      <point x="104" y="303" type="line"/>
      <point x="16" y="303" type="line"/>
    </contour>
    <contour>
      <point x="274" y="25" type="curve" smooth="yes"/>
      <point x="223" y="25"/>
      <point x="194" y="27"/>
      <point x="138" y="34" type="curve"/>
      <point x="138" y="271" type="line"/>
      <point x="337" y="271" type="line"/>
      <point x="337" y="303" type="line"/>
      <point x="138" y="303" type="line"/>
      <point x="138" y="544" type="line"/>
      <point x="174" y="547"/>
      <point x="237" y="550"/>
      <point x="272" y="550" type="curve" smooth="yes"/>
      <point x="477" y="550"/>
      <point x="569" y="469"/>
      <point x="569" y="289" type="curve" smooth="yes"/>
      <point x="569" y="109"/>
      <point x="476" y="25"/>
    </contour>
  </outline>
</glyph>
<glyph name="E.sc" format="1">
  <advance width="556"/>
  <outline>
    <contour>
      <point x="471" y="0" type="move" name="ogonek"/>
    </contour>
    <contour>
      <point x="280" y="760" type="move" name="topUC"/>
    </contour>
    <contour>
      <point x="300" y="0" type="move" name="bottom"/>
    </contour>
    <contour>
      <point x="100" y="0" type="line"/>
      <point x="496" y="0" type="line"/>
      <point x="496" y="32" type="line"/>
      <point x="134" y="32" type="line"/>
      <point x="134" y="279" type="line"/>
      <point x="474" y="279" type="line"/>
      <point x="474" y="311" type="line"/>
      <point x="134" y="311" type="line"/>
      <point x="134" y="545" type="line"/>
      <point x="489" y="545" type="line"/>
      <point x="489" y="577" type="line"/>
      <point x="100" y="577" type="line"/>
    </contour>
  </outline>
</glyph>
<glyph name="Eacute.sc" format="1">
  <advance width="555"/>
  <outline>
    <contour>
      <point x="100" y="0" type="line"/>
      <point x="496" y="0" type="line"/>
      <point x="496" y="32" type="line"/>
      <point x="134" y="32" type="line"/>
      <point x="134" y="279" type="line"/>
      <point x="474" y="279" type="line"/>
      <point x="474" y="311" type="line"/>
      <point x="134" y="311" type="line"/>
      <point x="134" y="545" type="line"/>
      <point x="489" y="545" type="line"/>
      <point x="489" y="577" type="line"/>
      <point x="100" y="577" type="line"/>
    </contour>
    <contour>
      <point x="307" y="628" type="line"/>
      <point x="380" y="729" type="line"/>
      <point x="343" y="729" type="line"/>
      <point x="276" y="633" type="line"/>
    </contour>
  </outline>
</glyph>
<glyph name="Ecircumflex.sc" format="1">
  <advance width="555"/>
  <outline>
    <contour>
      <point x="100" y="0" type="line"/>
      <point x="496" y="0" type="line"/>
      <point x="496" y="32" type="line"/>
      <point x="134" y="32" type="line"/>
      <point x="134" y="279" type="line"/>
      <point x="474" y="279" type="line"/>
      <point x="474" y="311" type="line"/>
      <point x="134" y="311" type="line"/>
      <point x="134" y="545" type="line"/>
      <point x="489" y="545" type="line"/>
      <point x="489" y="577" type="line"/>
      <point x="100" y="577" type="line"/>
    </contour>
    <contour>
      <point x="167" y="638" type="line"/>
      <point x="298" y="694" type="line"/>
      <point x="430" y="638" type="line"/>
      <point x="430" y="674" type="line"/>
      <point x="298" y="731" type="line"/>
      <point x="167" y="674" type="line"/>
    </contour>
  </outline>
</glyph>
<glyph name="Edieresis.sc" format="1">
  <advance width="555"/>
  <outline>
    <contour>
      <point x="182" y="650" type="curve" smooth="yes"/>
      <point x="198" y="650"/>
      <point x="213" y="658"/>
      <point x="213" y="679" type="curve" smooth="yes"/>
      <point x="213" y="700"/>
      <point x="198" y="708"/>
      <point x="182" y="708" type="curve" smooth="yes"/>
      <point x="164" y="708"/>
      <point x="151" y="699"/>
      <point x="151" y="679" type="curve" smooth="yes"/>
      <point x="151" y="659"/>
      <point x="164" y="650"/>
    </contour>
    <contour>
      <point x="413" y="650" type="curve" smooth="yes"/>
      <point x="430" y="650"/>
      <point x="444" y="658"/>
      <point x="444" y="679" type="curve" smooth="yes"/>
      <point x="444" y="700"/>
      <point x="430" y="708"/>
      <point x="413" y="708" type="curve" smooth="yes"/>
      <point x="395" y="708"/>
      <point x="383" y="699"/>
      <point x="383" y="679" type="curve" smooth="yes"/>
      <point x="383" y="659"/>
      <point x="395" y="650"/>
    </contour>
    <contour>
      <point x="100" y="0" type="line"/>
      <point x="496" y="0" type="line"/>
      <point x="496" y="32" type="line"/>
      <point x="134" y="32" type="line"/>
      <point x="134" y="279" type="line"/>
      <point x="474" y="279" type="line"/>
      <point x="474" y="311" type="line"/>
      <point x="134" y="311" type="line"/>
      <point x="134" y="545" type="line"/>
      <point x="489" y="545" type="line"/>
      <point x="489" y="577" type="line"/>
      <point x="100" y="577" type="line"/>
    </contour>
  </outline>
</glyph>
<glyph name="Edotaccent.sc" format="1">
  <advance width="555"/>
  <outline>
    <contour>
      <point x="298" y="646" type="curve" smooth="yes"/>
      <point x="314" y="646"/>
      <point x="329" y="654"/>
      <point x="329" y="675" type="curve" smooth="yes"/>
      <point x="329" y="696"/>
      <point x="314" y="704"/>
      <point x="298" y="704" type="curve" smooth="yes"/>
      <point x="280" y="704"/>
      <point x="267" y="695"/>
      <point x="267" y="675" type="curve" smooth="yes"/>
      <point x="267" y="654"/>
      <point x="280" y="646"/>
    </contour>
    <contour>
      <point x="100" y="0" type="line"/>
      <point x="496" y="0" type="line"/>
      <point x="496" y="32" type="line"/>
      <point x="134" y="32" type="line"/>
      <point x="134" y="279" type="line"/>
      <point x="474" y="279" type="line"/>
      <point x="474" y="311" type="line"/>
      <point x="134" y="311" type="line"/>
      <point x="134" y="545" type="line"/>
      <point x="489" y="545" type="line"/>
      <point x="489" y="577" type="line"/>
      <point x="100" y="577" type="line"/>
    </contour>
  </outline>
</glyph>
<glyph name="Einvertedbreve.sc" format="1">
  <advance width="555"/>
  <outline>
    <contour>
      <point x="153" y="636" type="curve"/>
      <point x="185" y="636" type="line"/>
      <point x="185" y="684"/>
      <point x="227" y="712"/>
      <point x="297" y="712" type="curve" smooth="yes"/>
      <point x="367" y="712"/>
      <point x="409" y="684"/>
      <point x="409" y="636" type="curve"/>
      <point x="441" y="636" type="line"/>
      <point x="441" y="701"/>
      <point x="387" y="742"/>
      <point x="297" y="742" type="curve" smooth="yes"/>
      <point x="207" y="742"/>
      <point x="153" y="701"/>
    </contour>
    <contour>
      <point x="100" y="0" type="line"/>
      <point x="496" y="0" type="line"/>
      <point x="496" y="32" type="line"/>
      <point x="134" y="32" type="line"/>
      <point x="134" y="279" type="line"/>
      <point x="474" y="279" type="line"/>
      <point x="474" y="311" type="line"/>
      <point x="134" y="311" type="line"/>
      <point x="134" y="545" type="line"/>
      <point x="489" y="545" type="line"/>
      <point x="489" y="577" type="line"/>
      <point x="100" y="577" type="line"/>
    </contour>
  </outline>
</glyph>
<glyph name="Emacron.sc" format="1">
  <advance width="555"/>
  <outline>
    <contour>
      <point x="100" y="0" type="line"/>
      <point x="496" y="0" type="line"/>
      <point x="496" y="32" type="line"/>
      <point x="134" y="32" type="line"/>
      <point x="134" y="279" type="line"/>
      <point x="474" y="279" type="line"/>
      <point x="474" y="311" type="line"/>
      <point x="134" y="311" type="line"/>
      <point x="134" y="545" type="line"/>
      <point x="489" y="545" type="line"/>
      <point x="489" y="577" type="line"/>
      <point x="100" y="577" type="line"/>
    </contour>
    <contour>
      <point x="168" y="657" type="line"/>
      <point x="429" y="657" type="line"/>
      <point x="429" y="688" type="line"/>
      <point x="168" y="688" type="line"/>
    </contour>
  </outline>
</glyph>
<glyph name="G.sc" format="1">
  <advance width="593"/>
  <outline>
    <contour>
      <point x="348" y="760" type="move" name="topUC"/>
    </contour>
    <contour>
      <point x="348" y="0" type="move" name="bottom"/>
    </contour>
    <contour>
      <point x="344" y="-6" type="curve" smooth="yes"/>
      <point x="392" y="-6"/>
      <point x="469" y="6"/>
      <point x="520" y="21" type="curve"/>
      <point x="520" y="293" type="line"/>
      <point x="486" y="293" type="line"/>
      <point x="486" y="44" type="line"/>
      <point x="447" y="35"/>
      <point x="381" y="27"/>
      <point x="344" y="27" type="curve" smooth="yes"/>
      <point x="186" y="27"/>
      <point x="97" y="121"/>
      <point x="97" y="288" type="curve" smooth="yes"/>
      <point x="97" y="455"/>
      <point x="192" y="552"/>
      <point x="354" y="552" type="curve" smooth="yes"/>
      <point x="405" y="552"/>
      <point x="438" y="547"/>
      <point x="514" y="529" type="curve"/>
      <point x="514" y="562" type="line"/>
      <point x="453" y="577"/>
      <point x="404" y="584"/>
      <point x="353" y="584" type="curve" smooth="yes"/>
      <point x="165" y="584"/>
      <point x="63" y="479"/>
      <point x="63" y="287" type="curve" smooth="yes"/>
      <point x="63" y="98"/>
      <point x="163" y="-6"/>
    </contour>
  </outline>
</glyph>
<glyph name="Gdotaccent.sc" format="1">
  <advance width="593"/>
  <outline>
    <contour>
      <point x="344" y="-6" type="curve" smooth="yes"/>
      <point x="392" y="-6"/>
      <point x="469" y="6"/>
      <point x="520" y="21" type="curve"/>
      <point x="520" y="293" type="line"/>
      <point x="486" y="293" type="line"/>
      <point x="486" y="44" type="line"/>
      <point x="447" y="35"/>
      <point x="381" y="27"/>
      <point x="344" y="27" type="curve" smooth="yes"/>
      <point x="186" y="27"/>
      <point x="97" y="121"/>
      <point x="97" y="288" type="curve" smooth="yes"/>
      <point x="97" y="455"/>
      <point x="192" y="552"/>
      <point x="354" y="552" type="curve" smooth="yes"/>
      <point x="405" y="552"/>
      <point x="438" y="547"/>
      <point x="514" y="529" type="curve"/>
      <point x="514" y="562" type="line"/>
      <point x="453" y="577"/>
      <point x="404" y="584"/>
      <point x="353" y="584" type="curve" smooth="yes"/>
      <point x="165" y="584"/>
      <point x="63" y="479"/>
      <point x="63" y="287" type="curve" smooth="yes"/>
      <point x="63" y="98"/>
      <point x="163" y="-6"/>
    </contour>
    <contour>
      <point x="319" y="646" type="curve" smooth="yes"/>
      <point x="335" y="646"/>
      <point x="350" y="654"/>
      <point x="350" y="675" type="curve" smooth="yes"/>
      <point x="350" y="696"/>
      <point x="335" y="704"/>
      <point x="319" y="704" type="curve" smooth="yes"/>
      <point x="301" y="704"/>
      <point x="288" y="695"/>
      <point x="288" y="675" type="curve" smooth="yes"/>
      <point x="288" y="654"/>
      <point x="301" y="646"/>
    </contour>
  </outline>
</glyph>
<glyph name="H.sc" format="1">
  <advance width="692"/>
  <outline>
    <contour>
      <point x="311" y="760" type="move" name="topUC"/>
    </contour>
    <contour>
      <point x="331" y="0" type="move" name="bottom"/>
    </contour>
    <contour>
      <point x="100" y="0" type="line"/>
      <point x="134" y="0" type="line"/>
      <point x="134" y="281" type="line"/>
      <point x="558" y="281" type="line"/>
      <point x="558" y="0" type="line"/>
      <point x="592" y="0" type="line"/>
      <point x="592" y="577" type="line"/>
      <point x="558" y="577" type="line"/>
      <point x="558" y="312" type="line"/>
      <point x="134" y="312" type="line"/>
      <point x="134" y="577" type="line"/>
      <point x="100" y="577" type="line"/>
    </contour>
  </outline>
</glyph>
<glyph name="Iacute.sc" format="1">
  <advance width="234"/>
  <outline>
    <contour>
      <point x="100" y="0" type="line"/>
      <point x="134" y="0" type="line"/>
      <point x="134" y="577" type="line"/>
      <point x="100" y="577" type="line"/>
    </contour>
    <contour>
      <point x="127" y="628" type="line"/>
      <point x="200" y="729" type="line"/>
      <point x="163" y="729" type="line"/>
      <point x="96" y="633" type="line"/>
    </contour>
  </outline>
</glyph>
<glyph name="Idblgrave.sc" format="1">
  <advance width="234"/>
  <outline>
    <contour>
      <point x="100" y="0" type="line"/>
      <point x="134" y="0" type="line"/>
      <point x="134" y="577" type="line"/>
      <point x="100" y="577" type="line"/>
    </contour>
    <contour>
      <point x="79" y="631" type="line"/>
      <point x="12" y="721" type="line"/>
      <point x="-25" y="721" type="line"/>
      <point x="48" y="620" type="line"/>
    </contour>
    <contour>
      <point x="190" y="631" type="line"/>
      <point x="124" y="721" type="line"/>
      <point x="86" y="721" type="line"/>
      <point x="160" y="620" type="line"/>
    </contour>
  </outline>
</glyph>
<glyph name="Idotaccent.sc" format="1">
  <advance width="234"/>
  <outline>
    <contour>
      <point x="100" y="0" type="line"/>
      <point x="134" y="0" type="line"/>
      <point x="134" y="577" type="line"/>
      <point x="100" y="577" type="line"/>
    </contour>
    <contour>
      <point x="118" y="646" type="curve" smooth="yes"/>
      <point x="134" y="646"/>
      <point x="149" y="654"/>
      <point x="149" y="675" type="curve" smooth="yes"/>
      <point x="149" y="696"/>
      <point x="134" y="704"/>
      <point x="118" y="704" type="curve" smooth="yes"/>
      <point x="99" y="704"/>
      <point x="87" y="695"/>
      <point x="87" y="675" type="curve" smooth="yes"/>
      <point x="87" y="654"/>
      <point x="99" y="646"/>
    </contour>
  </outline>
</glyph>
<glyph name="Igrave.sc" format="1">
  <advance width="234"/>
  <outline>
    <contour>
      <point x="100" y="0" type="line"/>
      <point x="134" y="0" type="line"/>
      <point x="134" y="577" type="line"/>
      <point x="100" y="577" type="line"/>
    </contour>
    <contour>
      <point x="137" y="639" type="line"/>
      <point x="70" y="729" type="line"/>
      <point x="33" y="729" type="line"/>
      <point x="106" y="628" type="line"/>
    </contour>
  </outline>
</glyph>
<glyph name="Iinvertedbreve.sc" format="1">
  <advance width="234"/>
  <outline>
    <contour>
      <point x="100" y="0" type="line"/>
      <point x="134" y="0" type="line"/>
      <point x="134" y="577" type="line"/>
      <point x="100" y="577" type="line"/>
    </contour>
    <contour>
      <point x="261" y="636" type="line"/>
      <point x="261" y="701"/>
      <point x="207" y="742"/>
      <point x="117" y="742" type="curve" smooth="yes"/>
      <point x="27" y="742"/>
      <point x="-27" y="701"/>
      <point x="-27" y="636" type="curve"/>
      <point x="5" y="636" type="line"/>
      <point x="5" y="684"/>
      <point x="47" y="712"/>
      <point x="117" y="712" type="curve" smooth="yes"/>
      <point x="187" y="712"/>
      <point x="229" y="684"/>
      <point x="229" y="636" type="curve"/>
    </contour>
  </outline>
</glyph>
<glyph name="Iogonek.sc" format="1">
  <advance width="234"/>
  <outline>
    <contour>
      <point x="100" y="0" type="line"/>
      <point x="103" y="0" type="line"/>
      <point x="16" y="-50"/>
      <point x="-3" y="-72"/>
      <point x="-3" y="-113" type="curve" smooth="yes"/>
      <point x="-3" y="-154"/>
      <point x="18" y="-172"/>
      <point x="68" y="-172" type="curve" smooth="yes"/>
      <point x="92" y="-172"/>
      <point x="116" y="-168"/>
      <point x="132" y="-162" type="curve"/>
      <point x="132" y="-138" type="line"/>
      <point x="114" y="-143"/>
      <point x="94" y="-146"/>
      <point x="75" y="-146" type="curve" smooth="yes"/>
      <point x="46" y="-146"/>
      <point x="28" y="-139"/>
      <point x="28" y="-113" type="curve" smooth="yes"/>
      <point x="28" y="-73"/>
      <point x="70" y="-46"/>
      <point x="134" y="-18" type="curve"/>
      <point x="134" y="577" type="line"/>
      <point x="100" y="577" type="line"/>
    </contour>
  </outline>
</glyph>
<glyph name="L.sc" format="1">
  <advance width="482"/>
  <outline>
    <contour>
      <point x="137" y="760" type="move" name="topUC"/>
    </contour>
    <contour>
      <point x="307" y="370" type="move" name="periodcentered"/>
    </contour>
    <contour>
      <point x="355" y="740" type="move" name="caronalt"/>
    </contour>
    <contour>
      <point x="251" y="0" type="move" name="bottom"/>
    </contour>
    <contour>
      <point x="100" y="0" type="line"/>
      <point x="462" y="0" type="line"/>
      <point x="462" y="32" type="line"/>
      <point x="134" y="32" type="line"/>
      <point x="134" y="577" type="line"/>
      <point x="100" y="577" type="line"/>
    </contour>
  </outline>
</glyph>
<glyph name="M.sc" format="1">
  <advance width="820"/>
  <outline>
    <contour>
      <point x="100" y="0" type="line"/>
      <point x="133" y="0" type="line"/>
      <point x="133" y="531" type="line"/>
      <point x="138" y="531" type="line"/>
      <point x="234" y="330" type="line"/>
      <point x="390" y="23" type="line"/>
      <point x="430" y="23" type="line"/>
      <point x="586" y="330" type="line"/>
      <point x="683" y="531" type="line"/>
      <point x="687" y="531" type="line"/>
      <point x="687" y="0" type="line"/>
      <point x="720" y="0" type="line"/>
      <point x="720" y="577" type="line"/>
      <point x="672" y="577" type="line"/>
      <point x="483" y="205" type="line"/>
      <point x="412" y="57" type="line"/>
      <point x="407" y="57" type="line"/>
      <point x="337" y="205" type="line"/>
      <point x="149" y="577" type="line"/>
      <point x="100" y="577" type="line"/>
    </contour>
  </outline>
</glyph>
<glyph name="Ncommaaccent.sc" format="1">
  <advance width="707"/>
  <outline>
    <contour>
      <point x="100" y="0" type="line"/>
      <point x="133" y="0" type="line"/>
      <point x="133" y="522" type="line"/>
      <point x="138" y="522" type="line"/>
      <point x="187" y="457" type="line"/>
      <point x="574" y="0" type="line"/>
      <point x="607" y="0" type="line"/>
      <point x="607" y="577" type="line"/>
      <point x="573" y="577" type="line"/>
      <point x="573" y="54" type="line"/>
      <point x="569" y="54" type="line"/>
      <point x="513" y="126" type="line"/>
      <point x="132" y="577" type="line"/>
      <point x="100" y="577" type="line"/>
    </contour>
    <contour>
      <point x="304" y="-172" type="line"/>
      <point x="337" y="-172" type="line"/>
      <point x="385" y="-55" type="line"/>
      <point x="347" y="-55" type="line"/>
    </contour>
  </outline>
</glyph>
<glyph name="OE.sc" format="1">
  <advance width="859"/>
  <outline>
    <contour>
      <point x="342" y="-8" type="curve" smooth="yes"/>
      <point x="373" y="-8"/>
      <point x="402" y="-5"/>
      <point x="427" y="0" type="curve"/>
      <point x="798" y="0" type="line"/>
      <point x="798" y="32" type="line"/>
      <point x="461" y="32" type="line"/>
      <point x="461" y="279" type="line"/>
      <point x="777" y="279" type="line"/>
      <point x="777" y="311" type="line"/>
      <point x="461" y="311" type="line"/>
      <point x="461" y="545" type="line"/>
      <point x="792" y="545" type="line"/>
      <point x="792" y="577" type="line"/>
      <point x="427" y="577" type="line"/>
      <point x="399" y="584"/>
      <point x="374" y="585"/>
      <point x="342" y="585" type="curve" smooth="yes"/>
      <point x="168" y="585"/>
      <point x="63" y="480"/>
      <point x="63" y="288" type="curve" smooth="yes"/>
      <point x="63" y="95"/>
      <point x="168" y="-8"/>
    </contour>
    <contour>
      <point x="342" y="24" type="curve" smooth="yes"/>
      <point x="188" y="24"/>
      <point x="97" y="121"/>
      <point x="97" y="288" type="curve" smooth="yes"/>
      <point x="97" y="457"/>
      <point x="187" y="553"/>
      <point x="342" y="553" type="curve" smooth="yes"/>
      <point x="375" y="553"/>
      <point x="400" y="551"/>
      <point x="427" y="543" type="curve"/>
      <point x="427" y="34" type="line"/>
      <point x="401" y="26"/>
      <point x="374" y="24"/>
    </contour>
  </outline>
</glyph>
<glyph name="Oacute.sc" format="1">
  <advance width="675"/>
  <outline>
    <contour>
      <point x="338" y="-8" type="curve" smooth="yes"/>
      <point x="509" y="-8"/>
      <point x="612" y="95"/>
      <point x="612" y="288" type="curve" smooth="yes"/>
      <point x="612" y="480"/>
      <point x="509" y="585"/>
      <point x="338" y="585" type="curve" smooth="yes"/>
      <point x="166" y="585"/>
      <point x="63" y="480"/>
      <point x="63" y="288" type="curve" smooth="yes"/>
      <point x="63" y="95"/>
      <point x="166" y="-8"/>
    </contour>
    <contour>
      <point x="338" y="24" type="curve" smooth="yes"/>
      <point x="186" y="24"/>
      <point x="97" y="122"/>
      <point x="97" y="288" type="curve" smooth="yes"/>
      <point x="97" y="456"/>
      <point x="185" y="553"/>
      <point x="338" y="553" type="curve" smooth="yes"/>
      <point x="490" y="553"/>
      <point x="578" y="456"/>
      <point x="578" y="288" type="curve" smooth="yes"/>
      <point x="578" y="123"/>
      <point x="488" y="24"/>
    </contour>
    <contour>
      <point x="347" y="628" type="line"/>
      <point x="420" y="729" type="line"/>
      <point x="383" y="729" type="line"/>
      <point x="316" y="633" type="line"/>
    </contour>
  </outline>
</glyph>
<glyph name="Odotbelow.sc" format="1">
  <advance width="675"/>
  <outline>
    <contour>
      <point x="338" y="-8" type="curve" smooth="yes"/>
      <point x="509" y="-8"/>
      <point x="612" y="95"/>
      <point x="612" y="288" type="curve" smooth="yes"/>
      <point x="612" y="480"/>
      <point x="509" y="585"/>
      <point x="338" y="585" type="curve" smooth="yes"/>
      <point x="166" y="585"/>
      <point x="63" y="480"/>
      <point x="63" y="288" type="curve" smooth="yes"/>
      <point x="63" y="95"/>
      <point x="166" y="-8"/>
    </contour>
    <contour>
      <point x="338" y="24" type="curve" smooth="yes"/>
      <point x="186" y="24"/>
      <point x="97" y="122"/>
      <point x="97" y="288" type="curve" smooth="yes"/>
      <point x="97" y="456"/>
      <point x="185" y="553"/>
      <point x="338" y="553" type="curve" smooth="yes"/>
      <point x="490" y="553"/>
      <point x="578" y="456"/>
      <point x="578" y="288" type="curve" smooth="yes"/>
      <point x="578" y="123"/>
      <point x="488" y="24"/>
    </contour>
    <contour>
      <point x="338" y="-135" type="curve" smooth="yes"/>
      <point x="357" y="-135"/>
      <point x="371" y="-127"/>
      <point x="371" y="-104" type="curve" smooth="yes"/>
      <point x="371" y="-81"/>
      <point x="357" y="-72"/>
      <point x="338" y="-72" type="curve" smooth="yes"/>
      <point x="318" y="-72"/>
      <point x="305" y="-82"/>
      <point x="305" y="-104" type="curve" smooth="yes"/>
      <point x="305" y="-126"/>
      <point x="318" y="-135"/>
    </contour>
  </outline>
</glyph>
<glyph name="Oslash.sc" format="1">
  <advance width="674"/>
  <outline>
    <contour>
      <point x="317" y="760" type="move" name="topUC"/>
    </contour>
    <contour>
      <point x="62" y="0" type="line"/>
      <point x="102" y="0" type="line"/>
      <point x="150" y="54" type="line"/>
      <point x="196" y="13"/>
      <point x="260" y="-8"/>
      <point x="338" y="-8" type="curve" smooth="yes"/>
      <point x="509" y="-8"/>
      <point x="612" y="95"/>
      <point x="612" y="288" type="curve" smooth="yes"/>
      <point x="612" y="380"/>
      <point x="588" y="453"/>
      <point x="544" y="503" type="curve"/>
      <point x="609" y="577" type="line"/>
      <point x="569" y="577" type="line"/>
      <point x="523" y="524" type="line"/>
      <point x="477" y="564"/>
      <point x="414" y="585"/>
      <point x="338" y="585" type="curve" smooth="yes"/>
      <point x="166" y="585"/>
      <point x="63" y="480"/>
      <point x="63" y="288" type="curve" smooth="yes"/>
      <point x="63" y="196"/>
      <point x="86" y="125"/>
      <point x="128" y="76" type="curve"/>
    </contour>
    <contour>
      <point x="338" y="24" type="curve" smooth="yes"/>
      <point x="270" y="24"/>
      <point x="214" y="44"/>
      <point x="173" y="81" type="curve"/>
      <point x="521" y="476" type="line"/>
      <point x="558" y="431"/>
      <point x="578" y="368"/>
      <point x="578" y="288" type="curve" smooth="yes"/>
      <point x="578" y="123"/>
      <point x="488" y="24"/>
    </contour>
    <contour>
      <point x="97" y="288" type="curve" smooth="yes"/>
      <point x="97" y="456"/>
      <point x="186" y="553"/>
      <point x="338" y="553" type="curve" smooth="yes"/>
      <point x="405" y="553"/>
      <point x="460" y="534"/>
      <point x="500" y="498" type="curve"/>
      <point x="152" y="103" type="line"/>
      <point x="116" y="148"/>
      <point x="97" y="211"/>
    </contour>
  </outline>
</glyph>
<glyph name="Otilde.sc" format="1">
  <advance width="675"/>
  <outline>
    <contour>
      <point x="338" y="-8" type="curve" smooth="yes"/>
      <point x="509" y="-8"/>
      <point x="612" y="95"/>
      <point x="612" y="288" type="curve" smooth="yes"/>
      <point x="612" y="480"/>
      <point x="509" y="585"/>
      <point x="338" y="585" type="curve" smooth="yes"/>
      <point x="166" y="585"/>
      <point x="63" y="480"/>
      <point x="63" y="288" type="curve" smooth="yes"/>
      <point x="63" y="95"/>
      <point x="166" y="-8"/>
    </contour>
    <contour>
      <point x="338" y="24" type="curve" smooth="yes"/>
      <point x="186" y="24"/>
      <point x="97" y="122"/>
      <point x="97" y="288" type="curve" smooth="yes"/>
      <point x="97" y="456"/>
      <point x="185" y="553"/>
      <point x="338" y="553" type="curve" smooth="yes"/>
      <point x="490" y="553"/>
      <point x="578" y="456"/>
      <point x="578" y="288" type="curve" smooth="yes"/>
      <point x="578" y="123"/>
      <point x="488" y="24"/>
    </contour>
    <contour>
      <point x="198" y="658" type="line"/>
      <point x="224" y="679"/>
      <point x="251" y="687"/>
      <point x="277" y="687" type="curve" smooth="yes"/>
      <point x="322" y="687"/>
      <point x="368" y="654"/>
      <point x="414" y="654" type="curve" smooth="yes"/>
      <point x="453" y="654"/>
      <point x="491" y="669"/>
      <point x="521" y="694" type="curve"/>
      <point x="501" y="713" type="line"/>
      <point x="474" y="694"/>
      <point x="446" y="684"/>
      <point x="417" y="684" type="curve" smooth="yes"/>
      <point x="366" y="684"/>
      <point x="332" y="717"/>
      <point x="276" y="717" type="curve" smooth="yes"/>
      <point x="242" y="717"/>
      <point x="210" y="705"/>
      <point x="177" y="677" type="curve"/>
    </contour>
  </outline>
</glyph>
<glyph name="P.sc" format="1">
  <advance width="578"/>
  <outline>
    <contour>
      <point x="99" y="0" type="line"/>
      <point x="133" y="0" type="line"/>
      <point x="133" y="202" type="line"/>
      <point x="184" y="196"/>
      <point x="222" y="194"/>
      <point x="255" y="194" type="curve" smooth="yes"/>
      <point x="448" y="194"/>
      <point x="530" y="253"/>
      <point x="530" y="390" type="curve" smooth="yes"/>
      <point x="530" y="525"/>
      <point x="444" y="585"/>
      <point x="245" y="585" type="curve" smooth="yes"/>
      <point x="199" y="585"/>
      <point x="149" y="581"/>
      <point x="99" y="573" type="curve"/>
    </contour>
    <contour>
      <point x="255" y="226" type="curve" smooth="yes"/>
      <point x="212" y="226"/>
      <point x="150" y="231"/>
      <point x="133" y="236" type="curve"/>
      <point x="133" y="545" type="line"/>
      <point x="160" y="550"/>
      <point x="207" y="553"/>
      <point x="246" y="553" type="curve" smooth="yes"/>
      <point x="422" y="553"/>
      <point x="496" y="505"/>
      <point x="496" y="390" type="curve" smooth="yes"/>
      <point x="496" y="271"/>
      <point x="430" y="226"/>
    </contour>
  </outline>
</glyph>
<glyph name="Q.sc" format="1">
  <advance width="673"/>
  <outline>
    <contour>
      <point x="593" y="-77" type="curve"/>
      <point x="600" y="-42" type="line"/>
      <point x="506" y="-37"/>
      <point x="429" y="-27"/>
      <point x="330" y="-4" type="curve"/>
      <point x="330" y="-1" type="line"/>
      <point x="509" y="-2"/>
      <point x="611" y="103"/>
      <point x="611" y="288" type="curve" smooth="yes"/>
      <point x="611" y="476"/>
      <point x="511" y="585"/>
      <point x="337" y="585" type="curve" smooth="yes"/>
      <point x="162" y="585"/>
      <point x="62" y="476"/>
      <point x="62" y="288" type="curve" smooth="yes"/>
      <point x="62" y="59"/>
      <point x="190" y="-31"/>
    </contour>
    <contour>
      <point x="337" y="24" type="curve" smooth="yes"/>
      <point x="185" y="24"/>
      <point x="96" y="122"/>
      <point x="96" y="288" type="curve" smooth="yes"/>
      <point x="96" y="456"/>
      <point x="185" y="553"/>
      <point x="337" y="553" type="curve" smooth="yes"/>
      <point x="489" y="553"/>
      <point x="577" y="456"/>
      <point x="577" y="288" type="curve" smooth="yes"/>
      <point x="577" y="124"/>
      <point x="487" y="24"/>
    </contour>
  </outline>
</glyph>
<glyph name="Rinvertedbreve.sc" format="1">
  <advance width="594"/>
  <outline>
    <contour>
      <point x="99" y="0" type="line"/>
      <point x="133" y="0" type="line"/>
      <point x="133" y="234" type="line"/>
      <point x="181" y="228"/>
      <point x="220" y="225"/>
      <point x="255" y="225" type="curve" smooth="yes"/>
      <point x="287" y="225"/>
      <point x="315" y="226"/>
      <point x="341" y="229" type="curve"/>
      <point x="511" y="0" type="line"/>
      <point x="551" y="0" type="line"/>
      <point x="377" y="235" type="line"/>
      <point x="483" y="256"/>
      <point x="530" y="310"/>
      <point x="530" y="405" type="curve" smooth="yes"/>
      <point x="530" y="531"/>
      <point x="444" y="585"/>
      <point x="245" y="585" type="curve" smooth="yes"/>
      <point x="198" y="585"/>
      <point x="149" y="581"/>
      <point x="99" y="573" type="curve"/>
    </contour>
    <contour>
      <point x="155" y="636" type="curve"/>
      <point x="187" y="636" type="line"/>
      <point x="187" y="684"/>
      <point x="229" y="712"/>
      <point x="299" y="712" type="curve" smooth="yes"/>
      <point x="369" y="712"/>
      <point x="411" y="684"/>
      <point x="411" y="636" type="curve"/>
      <point x="443" y="636" type="line"/>
      <point x="443" y="701"/>
      <point x="389" y="742"/>
      <point x="299" y="742" type="curve" smooth="yes"/>
      <point x="209" y="742"/>
      <point x="155" y="701"/>
    </contour>
    <contour>
      <point x="255" y="258" type="curve" smooth="yes"/>
      <point x="205" y="258"/>
      <point x="148" y="262"/>
      <point x="133" y="267" type="curve"/>
      <point x="133" y="545" type="line"/>
      <point x="160" y="550"/>
      <point x="207" y="553"/>
      <point x="246" y="553" type="curve" smooth="yes"/>
      <point x="421" y="553"/>
      <point x="496" y="509"/>
      <point x="496" y="405" type="curve" smooth="yes"/>
      <point x="496" y="299"/>
      <point x="429" y="258"/>
    </contour>
  </outline>
</glyph>
<glyph name="T.sc" format="1">
  <advance width="545"/>
  <outline>
    <contour>
      <point x="223" y="760" type="move" name="topUC"/>
    </contour>
    <contour>
      <point x="224" y="0" type="move" name="bottom"/>
    </contour>
    <contour>
      <point x="256" y="0" type="line"/>
      <point x="290" y="0" type="line"/>
      <point x="290" y="545" type="line"/>
      <point x="524" y="545" type="line"/>
      <point x="524" y="577" type="line"/>
      <point x="21" y="577" type="line"/>
      <point x="21" y="545" type="line"/>
      <point x="256" y="545" type="line"/>
    </contour>
  </outline>
</glyph>
<glyph name="Tbar.sc" format="1">
  <advance width="554"/>
  <outline>
    <contour>
      <point x="141" y="287" type="line"/>
      <point x="260" y="287" type="line"/>
      <point x="260" y="0" type="line"/>
      <point x="294" y="0" type="line"/>
      <point x="294" y="287" type="line"/>
      <point x="417" y="287" type="line"/>
      <point x="417" y="318" type="line"/>
      <point x="294" y="318" type="line"/>
      <point x="294" y="545" type="line"/>
      <point x="528" y="545" type="line"/>
      <point x="528" y="577" type="line"/>
      <point x="25" y="577" type="line"/>
      <point x="25" y="545" type="line"/>
      <point x="260" y="545" type="line"/>
      <point x="260" y="318" type="line"/>
      <point x="141" y="318" type="line"/>
    </contour>
  </outline>
</glyph>
<glyph name="Thorn.sc" format="1">
  <advance width="582"/>
  <outline>
    <contour>
      <point x="100" y="0" type="line"/>
      <point x="134" y="0" type="line"/>
      <point x="134" y="103" type="line"/>
      <point x="185" y="97"/>
      <point x="223" y="95"/>
      <point x="256" y="95" type="curve" smooth="yes"/>
      <point x="450" y="95"/>
      <point x="531" y="153"/>
      <point x="531" y="290" type="curve" smooth="yes"/>
      <point x="531" y="425"/>
      <point x="445" y="485"/>
      <point x="247" y="485" type="curve" smooth="yes"/>
      <point x="210" y="485"/>
      <point x="173" y="483"/>
      <point x="134" y="478" type="curve"/>
      <point x="134" y="578" type="line"/>
      <point x="100" y="578" type="line"/>
    </contour>
    <contour>
      <point x="256" y="128" type="curve" smooth="yes"/>
      <point x="213" y="128"/>
      <point x="150" y="133"/>
      <point x="134" y="137" type="curve"/>
      <point x="134" y="445" type="line"/>
      <point x="161" y="449"/>
      <point x="207" y="452"/>
      <point x="246" y="452" type="curve" smooth="yes"/>
      <point x="423" y="452"/>
      <point x="497" y="405"/>
      <point x="497" y="290" type="curve" smooth="yes"/>
      <point x="497" y="172"/>
      <point x="431" y="128"/>
    </contour>
  </outline>
</glyph>
<glyph name="U.sc" format="1">
  <advance width="676"/>
  <outline>
    <contour>
      <point x="331" y="-10" type="move" name="ogonek"/>
    </contour>
    <contour>
      <point x="331" y="760" type="move" name="topUC"/>
    </contour>
    <contour>
      <point x="332" y="0" type="move" name="bottom"/>
    </contour>
    <contour>
      <point x="338" y="-8" type="curve" smooth="yes"/>
      <point x="503" y="-8"/>
      <point x="583" y="60"/>
      <point x="583" y="233" type="curve" smooth="yes"/>
      <point x="583" y="577" type="line"/>
      <point x="549" y="577" type="line"/>
      <point x="549" y="238" type="line" smooth="yes"/>
      <point x="549" y="79"/>
      <point x="475" y="24"/>
      <point x="338" y="24" type="curve" smooth="yes"/>
      <point x="201" y="24"/>
      <point x="127" y="79"/>
      <point x="127" y="238" type="curve" smooth="yes"/>
      <point x="127" y="577" type="line"/>
      <point x="93" y="577" type="line"/>
      <point x="93" y="233" type="line" smooth="yes"/>
      <point x="93" y="60"/>
      <point x="173" y="-8"/>
    </contour>
  </outline>
</glyph>
<glyph name="Udotbelow.sc" format="1">
  <advance width="676"/>
  <outline>
    <contour>
      <point x="338" y="-8" type="curve" smooth="yes"/>
      <point x="503" y="-8"/>
      <point x="583" y="60"/>
      <point x="583" y="233" type="curve" smooth="yes"/>
      <point x="583" y="577" type="line"/>
      <point x="549" y="577" type="line"/>
      <point x="549" y="238" type="line" smooth="yes"/>
      <point x="549" y="79"/>
      <point x="475" y="24"/>
      <point x="338" y="24" type="curve" smooth="yes"/>
      <point x="201" y="24"/>
      <point x="127" y="79"/>
      <point x="127" y="238" type="curve" smooth="yes"/>
      <point x="127" y="577" type="line"/>
      <point x="93" y="577" type="line"/>
      <point x="93" y="233" type="line" smooth="yes"/>
      <point x="93" y="60"/>
      <point x="173" y="-8"/>
    </contour>
    <contour>
      <point x="334" y="-135" type="curve" smooth="yes"/>
      <point x="353" y="-135"/>
      <point x="367" y="-127"/>
      <point x="367" y="-104" type="curve" smooth="yes"/>
      <point x="367" y="-81"/>
      <point x="353" y="-72"/>
      <point x="334" y="-72" type="curve" smooth="yes"/>
      <point x="314" y="-72"/>
      <point x="301" y="-82"/>
      <point x="301" y="-104" type="curve" smooth="yes"/>
      <point x="301" y="-126"/>
      <point x="314" y="-135"/>
    </contour>
  </outline>
</glyph>
<glyph name="Uinvertedbreve.sc" format="1">
  <advance width="676"/>
  <outline>
    <contour>
      <point x="338" y="-8" type="curve" smooth="yes"/>
      <point x="503" y="-8"/>
      <point x="583" y="60"/>
      <point x="583" y="233" type="curve" smooth="yes"/>
      <point x="583" y="577" type="line"/>
      <point x="549" y="577" type="line"/>
      <point x="549" y="238" type="line" smooth="yes"/>
      <point x="549" y="79"/>
      <point x="475" y="24"/>
      <point x="338" y="24" type="curve" smooth="yes"/>
      <point x="201" y="24"/>
      <point x="127" y="79"/>
      <point x="127" y="238" type="curve" smooth="yes"/>
      <point x="127" y="577" type="line"/>
      <point x="93" y="577" type="line"/>
      <point x="93" y="233" type="line" smooth="yes"/>
      <point x="93" y="60"/>
      <point x="173" y="-8"/>
    </contour>
    <contour>
      <point x="478" y="636" type="line"/>
      <point x="478" y="701"/>
      <point x="424" y="742"/>
      <point x="334" y="742" type="curve" smooth="yes"/>
      <point x="244" y="742"/>
      <point x="191" y="701"/>
      <point x="191" y="636" type="curve"/>
      <point x="222" y="636" type="line"/>
      <point x="222" y="684"/>
      <point x="265" y="712"/>
      <point x="334" y="712" type="curve" smooth="yes"/>
      <point x="404" y="712"/>
      <point x="446" y="684"/>
      <point x="446" y="636" type="curve"/>
    </contour>
  </outline>
</glyph>
<glyph name="V.sc" format="1">
  <advance width="604"/>
  <outline>
    <contour>
      <point x="278" y="0" type="line"/>
      <point x="326" y="0" type="line"/>
      <point x="582" y="577" type="line"/>
      <point x="545" y="577" type="line"/>
      <point x="352" y="146" type="line"/>
      <point x="302" y="35" type="line"/>
      <point x="301" y="35" type="line"/>
      <point x="251" y="146" type="line"/>
      <point x="59" y="577" type="line"/>
      <point x="22" y="577" type="line"/>
    </contour>
  </outline>
</glyph>
<glyph name="Wacute.sc" format="1">
  <advance width="888"/>
  <outline>
    <contour>
      <point x="223" y="0" type="line"/>
      <point x="270" y="0" type="line"/>
      <point x="413" y="429" type="line"/>
      <point x="442" y="521" type="line"/>
      <point x="446" y="521" type="line"/>
      <point x="475" y="431" type="line"/>
      <point x="619" y="0" type="line"/>
      <point x="666" y="0" type="line"/>
      <point x="856" y="577" type="line"/>
      <point x="821" y="577" type="line"/>
      <point x="681" y="157" type="line"/>
      <point x="643" y="41" type="line"/>
      <point x="640" y="41" type="line"/>
      <point x="601" y="157" type="line"/>
      <point x="462" y="577" type="line"/>
      <point x="426" y="577" type="line"/>
      <point x="286" y="157" type="line"/>
      <point x="248" y="41" type="line"/>
      <point x="244" y="41" type="line"/>
      <point x="206" y="157" type="line"/>
      <point x="67" y="577" type="line"/>
      <point x="32" y="577" type="line"/>
    </contour>
    <contour>
      <point x="453" y="628" type="line"/>
      <point x="527" y="729" type="line"/>
      <point x="489" y="729" type="line"/>
      <point x="423" y="633" type="line"/>
    </contour>
  </outline>
</glyph>
<glyph name="X.sc" format="1">
  <advance width="590"/>
  <outline>
    <contour>
      <point x="18" y="0" type="line"/>
      <point x="61" y="0" type="line"/>
      <point x="286" y="263" type="line"/>
      <point x="292" y="272" type="line"/>
      <point x="296" y="272" type="line"/>
      <point x="301" y="263" type="line"/>
      <point x="529" y="0" type="line"/>
      <point x="572" y="0" type="line"/>
      <point x="317" y="296" type="line"/>
      <point x="557" y="577" type="line"/>
      <point x="515" y="577" type="line"/>
      <point x="303" y="331" type="line"/>
      <point x="297" y="322" type="line"/>
      <point x="294" y="322" type="line"/>
      <point x="288" y="331" type="line"/>
      <point x="76" y="577" type="line"/>
      <point x="33" y="577" type="line"/>
      <point x="272" y="298" type="line"/>
    </contour>
  </outline>
</glyph>
<glyph name="Yacute.sc" format="1">
  <advance width="548"/>
  <outline>
    <contour>
      <point x="257" y="0" type="line"/>
      <point x="291" y="0" type="line"/>
      <point x="291" y="200" type="line"/>
      <point x="529" y="577" type="line"/>
      <point x="490" y="577" type="line"/>
      <point x="302" y="282" type="line"/>
      <point x="276" y="236" type="line"/>
      <point x="272" y="236" type="line"/>
      <point x="245" y="282" type="line"/>
      <point x="58" y="577" type="line"/>
      <point x="19" y="577" type="line"/>
      <point x="257" y="200" type="line"/>
    </contour>
    <contour>
      <point x="283" y="628" type="line"/>
      <point x="357" y="729" type="line"/>
      <point x="319" y="729" type="line"/>
      <point x="253" y="633" type="line"/>
    </contour>
  </outline>
</glyph>
<glyph name="Ycircumflex.sc" format="1">
  <advance width="548"/>
  <outline>
    <contour>
      <point x="257" y="0" type="line"/>
      <point x="291" y="0" type="line"/>
      <point x="291" y="200" type="line"/>
      <point x="529" y="577" type="line"/>
      <point x="490" y="577" type="line"/>
      <point x="302" y="282" type="line"/>
      <point x="276" y="236" type="line"/>
      <point x="272" y="236" type="line"/>
      <point x="245" y="282" type="line"/>
      <point x="58" y="577" type="line"/>
      <point x="19" y="577" type="line"/>
      <point x="257" y="200" type="line"/>
    </contour>
    <contour>
      <point x="142" y="638" type="line"/>
      <point x="274" y="694" type="line"/>
      <point x="405" y="638" type="line"/>
      <point x="405" y="674" type="line"/>
      <point x="274" y="731" type="line"/>
      <point x="142" y="674" type="line"/>
    </contour>
  </outline>
</glyph>
<glyph name="Ydieresis.sc" format="1">
  <advance width="548"/>
  <outline>
    <contour>
      <point x="157" y="650" type="curve" smooth="yes"/>
      <point x="174" y="650"/>
      <point x="188" y="658"/>
      <point x="188" y="679" type="curve" smooth="yes"/>
      <point x="188" y="700"/>
      <point x="174" y="708"/>
      <point x="157" y="708" type="curve" smooth="yes"/>
      <point x="139" y="708"/>
      <point x="127" y="699"/>
      <point x="127" y="679" type="curve" smooth="yes"/>
      <point x="127" y="659"/>
      <point x="139" y="650"/>
    </contour>
    <contour>
      <point x="389" y="650" type="curve" smooth="yes"/>
      <point x="405" y="650"/>
      <point x="420" y="658"/>
      <point x="420" y="679" type="curve" smooth="yes"/>
      <point x="420" y="700"/>
      <point x="405" y="708"/>
      <point x="389" y="708" type="curve" smooth="yes"/>
      <point x="371" y="708"/>
      <point x="358" y="699"/>
      <point x="358" y="679" type="curve" smooth="yes"/>
      <point x="358" y="659"/>
      <point x="371" y="650"/>
    </contour>
    <contour>
      <point x="257" y="0" type="line"/>
      <point x="291" y="0" type="line"/>
      <point x="291" y="200" type="line"/>
      <point x="529" y="577" type="line"/>
      <point x="490" y="577" type="line"/>
      <point x="302" y="282" type="line"/>
      <point x="276" y="236" type="line"/>
      <point x="272" y="236" type="line"/>
      <point x="245" y="282" type="line"/>
      <point x="58" y="577" type="line"/>
      <point x="19" y="577" type="line"/>
      <point x="257" y="200" type="line"/>
    </contour>
  </outline>
</glyph>
<glyph name="Ytilde.sc" format="1">
  <advance width="548"/>
  <outline>
    <contour>
      <point x="257" y="0" type="line"/>
      <point x="291" y="0" type="line"/>
      <point x="291" y="200" type="line"/>
      <point x="529" y="577" type="line"/>
      <point x="490" y="577" type="line"/>
      <point x="302" y="282" type="line"/>
      <point x="276" y="236" type="line"/>
      <point x="272" y="236" type="line"/>
      <point x="245" y="282" type="line"/>
      <point x="58" y="577" type="line"/>
      <point x="19" y="577" type="line"/>
      <point x="257" y="200" type="line"/>
    </contour>
    <contour>
      <point x="134" y="658" type="line"/>
      <point x="160" y="679"/>
      <point x="187" y="687"/>
      <point x="214" y="687" type="curve" smooth="yes"/>
      <point x="258" y="687"/>
      <point x="304" y="654"/>
      <point x="350" y="654" type="curve" smooth="yes"/>
      <point x="390" y="654"/>
      <point x="427" y="669"/>
      <point x="457" y="694" type="curve"/>
      <point x="437" y="713" type="line"/>
      <point x="411" y="694"/>
      <point x="382" y="684"/>
      <point x="353" y="684" type="curve" smooth="yes"/>
      <point x="302" y="684"/>
      <point x="268" y="717"/>
      <point x="212" y="717" type="curve" smooth="yes"/>
      <point x="178" y="717"/>
      <point x="146" y="705"/>
      <point x="113" y="677" type="curve"/>
    </contour>
  </outline>
</glyph>
<glyph name="Z.sc" format="1">
  <advance width="518"/>
  <outline>
    <contour>
      <point x="235" y="760" type="move" name="topUC"/>
    </contour>
    <contour>
      <point x="228" y="0" type="move" name="bottom"/>
    </contour>
    <contour>
      <point x="41" y="0" type="line"/>
      <point x="476" y="0" type="line"/>
      <point x="476" y="32" type="line"/>
      <point x="86" y="32" type="line"/>
      <point x="86" y="35" type="line"/>
      <point x="469" y="550" type="line"/>
      <point x="469" y="577" type="line"/>
      <point x="53" y="577" type="line"/>
      <point x="53" y="545" type="line"/>
      <point x="425" y="545" type="line"/>
      <point x="425" y="542" type="line"/>
      <point x="41" y="29" type="line"/>
    </contour>
  </outline>
</glyph>
<glyph name="Zcaron.sc" format="1">
  <advance width="519"/>
  <outline>
    <contour>
      <point x="41" y="0" type="line"/>
      <point x="476" y="0" type="line"/>
      <point x="476" y="32" type="line"/>
      <point x="86" y="32" type="line"/>
      <point x="86" y="35" type="line"/>
      <point x="469" y="550" type="line"/>
      <point x="469" y="577" type="line"/>
      <point x="53" y="577" type="line"/>
      <point x="53" y="545" type="line"/>
      <point x="425" y="545" type="line"/>
      <point x="425" y="542" type="line"/>
      <point x="41" y="29" type="line"/>
    </contour>
    <contour>
      <point x="134" y="695" type="line"/>
      <point x="266" y="639" type="line"/>
      <point x="398" y="695" type="line"/>
      <point x="398" y="731" type="line"/>
      <point x="266" y="675" type="line"/>
      <point x="134" y="731" type="line"/>
    </contour>
  </outline>
</glyph>
<glyph name="Zdotaccent.sc" format="1">
  <advance width="519"/>
  <outline>
    <contour>
      <point x="41" y="0" type="line"/>
      <point x="476" y="0" type="line"/>
      <point x="476" y="32" type="line"/>
      <point x="86" y="32" type="line"/>
      <point x="86" y="35" type="line"/>
      <point x="469" y="550" type="line"/>
      <point x="469" y="577" type="line"/>
      <point x="53" y="577" type="line"/>
      <point x="53" y="545" type="line"/>
      <point x="425" y="545" type="line"/>
      <point x="425" y="542" type="line"/>
      <point x="41" y="29" type="line"/>
    </contour>
    <contour>
      <point x="266" y="646" type="curve" smooth="yes"/>
      <point x="283" y="646"/>
      <point x="297" y="654"/>
      <point x="297" y="675" type="curve" smooth="yes"/>
      <point x="297" y="696"/>
      <point x="283" y="704"/>
      <point x="266" y="704" type="curve" smooth="yes"/>
      <point x="248" y="704"/>
      <point x="236" y="695"/>
      <point x="236" y="675" type="curve" smooth="yes"/>
      <point x="236" y="654"/>
      <point x="248" y="646"/>
    </contour>
  </outline>
</glyph>
<glyph name="Zdotbelow.sc" format="1">
  <advance width="519"/>
  <outline>
    <contour>
      <point x="41" y="0" type="line"/>
      <point x="476" y="0" type="line"/>
      <point x="476" y="32" type="line"/>
      <point x="86" y="32" type="line"/>
      <point x="86" y="35" type="line"/>
      <point x="469" y="550" type="line"/>
      <point x="469" y="577" type="line"/>
      <point x="53" y="577" type="line"/>
      <point x="53" y="545" type="line"/>
      <point x="425" y="545" type="line"/>
      <point x="425" y="542" type="line"/>
      <point x="41" y="29" type="line"/>
    </contour>
    <contour>
      <point x="258" y="-135" type="curve" smooth="yes"/>
      <point x="277" y="-135"/>
      <point x="291" y="-127"/>
      <point x="291" y="-104" type="curve" smooth="yes"/>
      <point x="291" y="-81"/>
      <point x="277" y="-72"/>
      <point x="258" y="-72" type="curve" smooth="yes"/>
      <point x="238" y="-72"/>
      <point x="225" y="-82"/>
      <point x="225" y="-104" type="curve" smooth="yes"/>
      <point x="225" y="-126"/>
      <point x="238" y="-135"/>
    </contour>
  </outline>
</glyph>
<glyph name="braceleft.sc" format="1">
  <advance width="350"/>
  <outline>
    <contour>
      <point x="51" y="258" type="line"/>
      <point x="91" y="258"/>
      <point x="119" y="230"/>
      <point x="119" y="172" type="curve" smooth="yes"/>
      <point x="119" y="-25" type="line" smooth="yes"/>
      <point x="119" y="-97"/>
      <point x="144" y="-125"/>
      <point x="212" y="-125" type="curve" smooth="yes"/>
      <point x="233" y="-125"/>
      <point x="289" y="-123"/>
      <point x="299" y="-121" type="curve"/>
      <point x="299" y="-95" type="line"/>
      <point x="190" y="-95" type="line" smooth="yes"/>
      <point x="163" y="-95"/>
      <point x="152" y="-84"/>
      <point x="152" y="-62" type="curve" smooth="yes"/>
      <point x="152" y="180" type="line" smooth="yes"/>
      <point x="152" y="229"/>
      <point x="128" y="271"/>
      <point x="85" y="276" type="curve"/>
      <point x="128" y="283"/>
      <point x="152" y="325"/>
      <point x="152" y="374" type="curve" smooth="yes"/>
      <point x="152" y="614" type="line" smooth="yes"/>
      <point x="152" y="636"/>
      <point x="163" y="646"/>
      <point x="190" y="646" type="curve" smooth="yes"/>
      <point x="299" y="646" type="line"/>
      <point x="299" y="673" type="line"/>
      <point x="289" y="675"/>
      <point x="232" y="677"/>
      <point x="211" y="677" type="curve" smooth="yes"/>
      <point x="143" y="677"/>
      <point x="119" y="649"/>
      <point x="119" y="577" type="curve" smooth="yes"/>
      <point x="119" y="382" type="line" smooth="yes"/>
      <point x="119" y="324"/>
      <point x="91" y="295"/>
      <point x="51" y="295" type="curve"/>
    </contour>
  </outline>
</glyph>
<glyph name="braceright.sc" format="1">
  <advance width="350"/>
  <outline>
    <contour>
      <point x="299" y="295" type="line"/>
      <point x="260" y="295"/>
      <point x="231" y="324"/>
      <point x="231" y="382" type="curve" smooth="yes"/>
      <point x="231" y="577" type="line" smooth="yes"/>
      <point x="231" y="649"/>
      <point x="208" y="677"/>
      <point x="140" y="677" type="curve" smooth="yes"/>
      <point x="119" y="677"/>
      <point x="61" y="675"/>
      <point x="51" y="673" type="curve"/>
      <point x="51" y="646" type="line"/>
      <point x="161" y="646" type="line" smooth="yes"/>
      <point x="188" y="646"/>
      <point x="199" y="636"/>
      <point x="199" y="614" type="curve" smooth="yes"/>
      <point x="199" y="374" type="line" smooth="yes"/>
      <point x="199" y="325"/>
      <point x="222" y="283"/>
      <point x="265" y="276" type="curve"/>
      <point x="222" y="271"/>
      <point x="199" y="229"/>
      <point x="199" y="180" type="curve" smooth="yes"/>
      <point x="199" y="-62" type="line" smooth="yes"/>
      <point x="199" y="-84"/>
      <point x="188" y="-95"/>
      <point x="161" y="-95" type="curve" smooth="yes"/>
      <point x="51" y="-95" type="line"/>
      <point x="51" y="-121" type="line"/>
      <point x="61" y="-123"/>
      <point x="117" y="-125"/>
      <point x="138" y="-125" type="curve" smooth="yes"/>
      <point x="206" y="-125"/>
      <point x="231" y="-97"/>
      <point x="231" y="-25" type="curve" smooth="yes"/>
      <point x="231" y="172" type="line" smooth="yes"/>
      <point x="231" y="230"/>
      <point x="260" y="258"/>
      <point x="299" y="258" type="curve"/>
    </contour>
  </outline>
</glyph>
<glyph name="bracketright.sc" format="1">
  <advance width="303"/>
  <outline>
    <contour>
      <point x="194" y="-125" type="line"/>
      <point x="194" y="677" type="line"/>
      <point x="52" y="677" type="line"/>
      <point x="52" y="646" type="line"/>
      <point x="162" y="646" type="line"/>
      <point x="162" y="-94" type="line"/>
      <point x="52" y="-94" type="line"/>
      <point x="52" y="-125" type="line"/>
    </contour>
  </outline>
</glyph>
<glyph name="breve.cap" format="1">
  <advance width="454"/>
  <outline>
    <contour>
      <point x="227" y="760" type="move" name="_topUC"/>
    </contour>
    <contour>
      <point x="226" y="816" type="curve" smooth="yes"/>
      <point x="328" y="816"/>
      <point x="391" y="866"/>
      <point x="391" y="948" type="curve"/>
      <point x="357" y="948" type="line"/>
      <point x="357" y="887"/>
      <point x="307" y="850"/>
      <point x="226" y="850" type="curve" smooth="yes"/>
      <point x="145" y="850"/>
      <point x="95" y="887"/>
      <point x="95" y="948" type="curve"/>
      <point x="61" y="948" type="line"/>
      <point x="61" y="866"/>
      <point x="124" y="816"/>
    </contour>
  </outline>
</glyph>
<glyph name="caron.alt" format="1">
  <advance width="212"/>
  <outline>
    <contour>
      <point x="108" y="808" type="move" name="_caronalt"/>
    </contour>
    <contour>
      <point x="74" y="580" type="line"/>
      <point x="88" y="580" type="line"/>
      <point x="108" y="808" type="line"/>
      <point x="74" y="808" type="line"/>
    </contour>
  </outline>
</glyph>
<glyph name="caron.cap" format="1">
  <advance width="457"/>
  <outline>
    <contour>
      <point x="228" y="760" type="move" name="_topUC"/>
    </contour>
    <contour>
      <point x="77" y="891" type="line"/>
      <point x="228" y="819" type="line"/>
      <point x="379" y="891" type="line"/>
      <point x="379" y="932" type="line"/>
      <point x="228" y="860" type="line"/>
      <point x="77" y="932" type="line"/>
    </contour>
  </outline>
</glyph>
<glyph name="cent.tab" format="1">
  <advance width="540"/>
  <outline>
    <contour>
      <point x="301" y="-120" type="line"/>
      <point x="336" y="-120" type="line"/>
      <point x="336" y="-9" type="line"/>
      <point x="384" y="-9"/>
      <point x="432" y="-4"/>
      <point x="456" y="4" type="curve"/>
      <point x="455" y="37" type="line"/>
      <point x="414" y="28"/>
      <point x="385" y="25"/>
      <point x="345" y="25" type="curve" smooth="yes"/>
      <point x="181" y="25"/>
      <point x="109" y="100"/>
      <point x="109" y="269" type="curve" smooth="yes"/>
      <point x="109" y="432"/>
      <point x="190" y="515"/>
      <point x="348" y="515" type="curve" smooth="yes"/>
      <point x="386" y="515"/>
      <point x="425" y="510"/>
      <point x="456" y="500" type="curve"/>
      <point x="456" y="536" type="line"/>
      <point x="423" y="544"/>
      <point x="375" y="549"/>
      <point x="336" y="549" type="curve"/>
      <point x="336" y="660" type="line"/>
      <point x="301" y="660" type="line"/>
      <point x="301" y="547" type="line"/>
      <point x="149" y="533"/>
      <point x="72" y="439"/>
      <point x="72" y="269" type="curve" smooth="yes"/>
      <point x="72" y="99"/>
      <point x="149" y="7"/>
      <point x="301" y="-7" type="curve"/>
    </contour>
  </outline>
</glyph>
<glyph name="circumflex.cap" format="1">
  <advance width="457"/>
  <outline>
    <contour>
      <point x="228" y="760" type="move" name="_topUC"/>
    </contour>
    <contour>
      <point x="77" y="819" type="line"/>
      <point x="228" y="891" type="line"/>
      <point x="379" y="819" type="line"/>
      <point x="379" y="860" type="line"/>
      <point x="228" y="932" type="line"/>
      <point x="77" y="860" type="line"/>
    </contour>
  </outline>
</glyph>
<glyph name="comma.tab" format="1">
  <advance width="270"/>
  <outline>
    <contour>
      <point x="115" y="-155" type="line"/>
      <point x="176" y="60" type="line"/>
      <point x="137" y="60" type="line"/>
      <point x="86" y="-145" type="line"/>
    </contour>
  </outline>
</glyph>
<glyph name="dieresis.cap" format="1">
  <advance width="386"/>
  <outline>
    <contour>
      <point x="194" y="760" type="move" name="_topUC"/>
    </contour>
    <contour>
      <point x="60" y="834" type="curve" smooth="yes"/>
      <point x="77" y="834"/>
      <point x="94" y="843"/>
      <point x="94" y="867" type="curve" smooth="yes"/>
      <point x="94" y="891"/>
      <point x="77" y="900"/>
      <point x="60" y="900" type="curve" smooth="yes"/>
      <point x="41" y="900"/>
      <point x="27" y="890"/>
      <point x="27" y="867" type="curve" smooth="yes"/>
      <point x="27" y="844"/>
      <point x="41" y="834"/>
    </contour>
    <contour>
      <point x="326" y="834" type="curve" smooth="yes"/>
      <point x="343" y="834"/>
      <point x="360" y="843"/>
      <point x="360" y="867" type="curve" smooth="yes"/>
      <point x="360" y="891"/>
      <point x="343" y="900"/>
      <point x="326" y="900" type="curve" smooth="yes"/>
      <point x="307" y="900"/>
      <point x="293" y="890"/>
      <point x="293" y="867" type="curve" smooth="yes"/>
      <point x="293" y="844"/>
      <point x="307" y="834"/>
    </contour>
  </outline>
</glyph>
<glyph name="divide.tab" format="1">
  <advance width="540"/>
  <outline>
    <contour>
      <point x="274" y="189" type="curve" smooth="yes"/>
      <point x="295" y="189"/>
      <point x="309" y="201"/>
      <point x="309" y="220" type="curve" smooth="yes"/>
      <point x="309" y="239"/>
      <point x="295" y="252"/>
      <point x="274" y="252" type="curve" smooth="yes"/>
      <point x="253" y="252"/>
      <point x="240" y="240"/>
      <point x="240" y="220" type="curve" smooth="yes"/>
      <point x="240" y="201"/>
      <point x="253" y="189"/>
    </contour>
    <contour>
      <point x="65" y="353" type="line"/>
      <point x="476" y="353" type="line"/>
      <point x="476" y="387" type="line"/>
      <point x="65" y="387" type="line"/>
    </contour>
    <contour>
      <point x="274" y="480" type="curve" smooth="yes"/>
      <point x="295" y="480"/>
      <point x="309" y="492"/>
      <point x="309" y="511" type="curve" smooth="yes"/>
      <point x="309" y="530"/>
      <point x="295" y="543"/>
      <point x="274" y="543" type="curve" smooth="yes"/>
      <point x="253" y="543"/>
      <point x="240" y="531"/>
      <point x="240" y="511" type="curve" smooth="yes"/>
      <point x="240" y="492"/>
      <point x="253" y="480"/>
    </contour>
  </outline>
</glyph>
<glyph name="dollar.tab" format="1">
  <advance width="540"/>
  <outline>
    <contour>
      <point x="264" y="-150" type="line"/>
      <point x="303" y="-150" type="line"/>
      <point x="303" y="-7" type="line"/>
      <point x="431" y="5"/>
      <point x="503" y="72"/>
      <point x="503" y="180" type="curve" smooth="yes"/>
      <point x="503" y="328"/>
      <point x="391" y="360"/>
      <point x="283" y="392" type="curve" smooth="yes"/>
      <point x="139" y="434"/>
      <point x="90" y="478"/>
      <point x="90" y="567" type="curve" smooth="yes"/>
      <point x="90" y="661"/>
      <point x="169" y="724"/>
      <point x="288" y="724" type="curve" smooth="yes"/>
      <point x="340" y="724"/>
      <point x="406" y="715"/>
      <point x="466" y="699" type="curve"/>
      <point x="466" y="734" type="line"/>
      <point x="407" y="748"/>
      <point x="344" y="757"/>
      <point x="294" y="758" type="curve"/>
      <point x="294" y="890" type="line"/>
      <point x="256" y="890" type="line"/>
      <point x="256" y="756" type="line"/>
      <point x="135" y="745"/>
      <point x="56" y="672"/>
      <point x="56" y="567" type="curve" smooth="yes"/>
      <point x="56" y="459"/>
      <point x="111" y="405"/>
      <point x="269" y="359" type="curve" smooth="yes"/>
      <point x="370" y="329"/>
      <point x="469" y="302"/>
      <point x="469" y="180" type="curve" smooth="yes"/>
      <point x="469" y="81"/>
      <point x="390" y="24"/>
      <point x="254" y="24" type="curve" smooth="yes"/>
      <point x="200" y="24"/>
      <point x="115" y="36"/>
      <point x="41" y="54" type="curve"/>
      <point x="41" y="20" type="line"/>
      <point x="116" y="1"/>
      <point x="195" y="-10"/>
      <point x="264" y="-10" type="curve"/>
    </contour>
  </outline>
</glyph>
<glyph name="dotaccent.cap" format="1">
  <advance width="390"/>
  <outline>
    <contour>
      <point x="195" y="760" type="move" name="_topUC"/>
    </contour>
    <contour>
      <point x="195" y="828" type="curve" smooth="yes"/>
      <point x="212" y="828"/>
      <point x="229" y="837"/>
      <point x="229" y="861" type="curve" smooth="yes"/>
      <point x="229" y="885"/>
      <point x="212" y="894"/>
      <point x="195" y="894" type="curve" smooth="yes"/>
      <point x="176" y="894"/>
      <point x="162" y="884"/>
      <point x="162" y="861" type="curve" smooth="yes"/>
      <point x="162" y="838"/>
      <point x="176" y="828"/>
    </contour>
  </outline>
</glyph>
<glyph name="dotbelow" format="1">
  <advance width="228"/>
  <outline>
    <contour>
      <point x="113" y="0" type="move" name="_bottom"/>
    </contour>
    <contour>
      <point x="113" y="-170" type="curve" smooth="yes"/>
      <point x="134" y="-170"/>
      <point x="151" y="-161"/>
      <point x="151" y="-133" type="curve" smooth="yes"/>
      <point x="151" y="-105"/>
      <point x="134" y="-95"/>
      <point x="113" y="-95" type="curve" smooth="yes"/>
      <point x="91" y="-95"/>
      <point x="76" y="-106"/>
      <point x="76" y="-133" type="curve" smooth="yes"/>
      <point x="76" y="-160"/>
      <point x="91" y="-170"/>
    </contour>
  </outline>
</glyph>
<glyph name="eight.denominator" format="1">
  <advance width="471"/>
  <outline>
    <contour>
      <point x="235" y="-3" type="curve" smooth="yes"/>
      <point x="343" y="-3"/>
      <point x="419" y="47"/>
      <point x="419" y="140" type="curve" smooth="yes"/>
      <point x="419" y="215"/>
      <point x="369" y="250"/>
      <point x="309" y="273" type="curve"/>
      <point x="347" y="294"/>
      <point x="397" y="336"/>
      <point x="397" y="415" type="curve" smooth="yes"/>
      <point x="397" y="512"/>
      <point x="328" y="554"/>
      <point x="235" y="554" type="curve" smooth="yes"/>
      <point x="141" y="554"/>
      <point x="71" y="511"/>
      <point x="71" y="415" type="curve" smooth="yes"/>
      <point x="71" y="350"/>
      <point x="105" y="315"/>
      <point x="150" y="292" type="curve"/>
      <point x="109" y="273"/>
      <point x="54" y="230"/>
      <point x="54" y="144" type="curve" smooth="yes"/>
      <point x="54" y="42"/>
      <point x="126" y="-3"/>
    </contour>
    <contour>
      <point x="235" y="31" type="curve" smooth="yes"/>
      <point x="146" y="31"/>
      <point x="88" y="66"/>
      <point x="88" y="144" type="curve" smooth="yes"/>
      <point x="88" y="236"/>
      <point x="168" y="267"/>
      <point x="193" y="275" type="curve"/>
      <point x="209" y="269"/>
      <point x="225" y="264"/>
      <point x="241" y="259" type="curve" smooth="yes"/>
      <point x="313" y="238"/>
      <point x="385" y="217"/>
      <point x="385" y="140" type="curve" smooth="yes"/>
      <point x="385" y="69"/>
      <point x="323" y="31"/>
    </contour>
    <contour>
      <point x="267" y="287" type="curve"/>
      <point x="262" y="288"/>
      <point x="257" y="290"/>
      <point x="251" y="292" type="curve" smooth="yes"/>
      <point x="179" y="314"/>
      <point x="105" y="335"/>
      <point x="105" y="415" type="curve" smooth="yes"/>
      <point x="105" y="487"/>
      <point x="161" y="520"/>
      <point x="235" y="520" type="curve" smooth="yes"/>
      <point x="308" y="520"/>
      <point x="363" y="488"/>
      <point x="363" y="415" type="curve" smooth="yes"/>
      <point x="363" y="332"/>
      <point x="292" y="297"/>
    </contour>
  </outline>
</glyph>
<glyph name="eight.tosf" format="1">
  <advance width="540"/>
  <outline>
    <contour>
      <point x="267" y="-4" type="curve" smooth="yes"/>
      <point x="412" y="-4"/>
      <point x="498" y="62"/>
      <point x="498" y="171" type="curve" smooth="yes"/>
      <point x="498" y="247"/>
      <point x="456" y="297"/>
      <point x="353" y="338" type="curve"/>
      <point x="423" y="374"/>
      <point x="470" y="443"/>
      <point x="470" y="525" type="curve" smooth="yes"/>
      <point x="470" y="626"/>
      <point x="398" y="690"/>
      <point x="268" y="690" type="curve" smooth="yes"/>
      <point x="139" y="690"/>
      <point x="65" y="627"/>
      <point x="65" y="518" type="curve" smooth="yes"/>
      <point x="65" y="450"/>
      <point x="94" y="404"/>
      <point x="173" y="366" type="curve"/>
      <point x="95" y="333"/>
      <point x="43" y="261"/>
      <point x="43" y="172" type="curve" smooth="yes"/>
      <point x="43" y="62"/>
      <point x="122" y="-4"/>
    </contour>
    <contour>
      <point x="267" y="30" type="curve" smooth="yes"/>
      <point x="143" y="30"/>
      <point x="76" y="82"/>
      <point x="76" y="172" type="curve" smooth="yes"/>
      <point x="76" y="257"/>
      <point x="135" y="327"/>
      <point x="217" y="348" type="curve"/>
      <point x="314" y="312"/>
      <point x="464" y="295"/>
      <point x="464" y="170" type="curve" smooth="yes"/>
      <point x="464" y="82"/>
      <point x="391" y="30"/>
    </contour>
    <contour>
      <point x="268" y="656" type="curve" smooth="yes"/>
      <point x="376" y="656"/>
      <point x="437" y="605"/>
      <point x="437" y="523" type="curve" smooth="yes"/>
      <point x="437" y="442"/>
      <point x="377" y="374"/>
      <point x="314" y="352" type="curve"/>
      <point x="194" y="389"/>
      <point x="99" y="415"/>
      <point x="99" y="520" type="curve" smooth="yes"/>
      <point x="99" y="606"/>
      <point x="161" y="656"/>
    </contour>
  </outline>
</glyph>
<glyph name="equal.tab" format="1">
  <advance width="540"/>
  <outline>
    <contour>
      <point x="66" y="236" type="line"/>
      <point x="473" y="236" type="line"/>
      <point x="473" y="270" type="line"/>
      <point x="66" y="270" type="line"/>
    </contour>
    <contour>
      <point x="66" y="447" type="line"/>
      <point x="473" y="447" type="line"/>
      <point x="473" y="481" type="line"/>
      <point x="66" y="481" type="line"/>
    </contour>
  </outline>
</glyph>
<glyph name="f.calt" format="1">
  <advance width="354"/>
  <outline>
    <contour>
      <point x="147" y="0" type="line"/>
      <point x="181" y="0" type="line"/>
      <point x="181" y="506" type="line"/>
      <point x="339" y="506" type="line"/>
      <point x="339" y="540" type="line"/>
      <point x="181" y="540" type="line"/>
      <point x="181" y="599" type="line" smooth="yes"/>
      <point x="185" y="751"/>
      <point x="206" y="773"/>
      <point x="371" y="785" type="curve"/>
      <point x="368" y="813" type="line"/>
      <point x="181" y="804"/>
      <point x="148" y="766"/>
      <point x="148" y="563" type="curve" smooth="yes"/>
      <point x="148" y="540" type="line"/>
      <point x="18" y="540" type="line"/>
      <point x="18" y="506" type="line"/>
      <point x="147" y="506" type="line"/>
    </contour>
  </outline>
</glyph>
<glyph name="five.denominator" format="1">
  <advance width="411"/>
  <outline>
    <contour>
      <point x="163" y="-7" type="curve" smooth="yes"/>
      <point x="295" y="-7"/>
      <point x="364" y="42"/>
      <point x="364" y="159" type="curve" smooth="yes"/>
      <point x="364" y="272"/>
      <point x="286" y="312"/>
      <point x="104" y="315" type="curve"/>
      <point x="118" y="512" type="line"/>
      <point x="343" y="512" type="line"/>
      <point x="343" y="546" type="line"/>
      <point x="87" y="546" type="line"/>
      <point x="67" y="288" type="line"/>
      <point x="73" y="283" type="line"/>
      <point x="135" y="281" type="line"/>
      <point x="267" y="278"/>
      <point x="330" y="245"/>
      <point x="330" y="159" type="curve" smooth="yes"/>
      <point x="330" y="63"/>
      <point x="274" y="27"/>
      <point x="162" y="27" type="curve" smooth="yes"/>
      <point x="129" y="27"/>
      <point x="94" y="31"/>
      <point x="58" y="38" type="curve"/>
      <point x="50" y="38" type="line"/>
      <point x="50" y="4" type="line"/>
      <point x="88" y="-3"/>
      <point x="129" y="-7"/>
    </contour>
  </outline>
</glyph>
<glyph name="five.tf" format="1">
  <advance width="540"/>
  <outline>
    <contour>
      <point x="208" y="-10" type="curve" smooth="yes"/>
      <point x="390" y="-10"/>
      <point x="484" y="55"/>
      <point x="484" y="213" type="curve" smooth="yes"/>
      <point x="484" y="366"/>
      <point x="374" y="419"/>
      <point x="120" y="421" type="curve"/>
      <point x="139" y="706" type="line"/>
      <point x="454" y="706" type="line"/>
      <point x="454" y="740" type="line"/>
      <point x="108" y="740" type="line"/>
      <point x="82" y="393" type="line"/>
      <point x="86" y="389" type="line"/>
      <point x="170" y="387" type="line" smooth="yes"/>
      <point x="359" y="383"/>
      <point x="450" y="336"/>
      <point x="450" y="213" type="curve" smooth="yes"/>
      <point x="450" y="75"/>
      <point x="369" y="24"/>
      <point x="208" y="24" type="curve" smooth="yes"/>
      <point x="161" y="24"/>
      <point x="111" y="29"/>
      <point x="61" y="39" type="curve"/>
      <point x="57" y="39" type="line"/>
      <point x="57" y="4" type="line"/>
      <point x="107" y="-5"/>
      <point x="162" y="-10"/>
    </contour>
  </outline>
</glyph>
<glyph name="five.tosf" format="1">
  <advance width="540"/>
  <outline>
    <contour>
      <point x="208" y="-166" type="curve" smooth="yes"/>
      <point x="390" y="-166"/>
      <point x="484" y="-101"/>
      <point x="484" y="57" type="curve" smooth="yes"/>
      <point x="484" y="210"/>
      <point x="374" y="263"/>
      <point x="120" y="265" type="curve"/>
      <point x="139" y="550" type="line"/>
      <point x="454" y="550" type="line"/>
      <point x="454" y="584" type="line"/>
      <point x="108" y="584" type="line"/>
      <point x="82" y="237" type="line"/>
      <point x="86" y="233" type="line"/>
      <point x="170" y="231" type="line" smooth="yes"/>
      <point x="359" y="227"/>
      <point x="450" y="180"/>
      <point x="450" y="57" type="curve" smooth="yes"/>
      <point x="450" y="-81"/>
      <point x="369" y="-132"/>
      <point x="208" y="-132" type="curve" smooth="yes"/>
      <point x="161" y="-132"/>
      <point x="111" y="-127"/>
      <point x="61" y="-117" type="curve"/>
      <point x="57" y="-117" type="line"/>
      <point x="57" y="-152" type="line"/>
      <point x="107" y="-161"/>
      <point x="162" y="-166"/>
    </contour>
  </outline>
</glyph>
<glyph name="four.denominator" format="1">
  <advance width="455"/>
  <outline>
    <contour>
      <point x="300" y="0" type="line"/>
      <point x="334" y="0" type="line"/>
      <point x="334" y="140" type="line"/>
      <point x="423" y="140" type="line"/>
      <point x="423" y="174" type="line"/>
      <point x="334" y="174" type="line"/>
      <point x="334" y="373" type="line"/>
      <point x="310" y="373" type="line"/>
      <point x="301" y="174" type="line"/>
      <point x="72" y="174" type="line"/>
      <point x="237" y="538" type="line"/>
      <point x="237" y="545" type="line"/>
      <point x="217" y="554" type="line"/>
      <point x="211" y="554" type="line"/>
      <point x="28" y="162" type="line"/>
      <point x="43" y="140" type="line"/>
      <point x="300" y="140" type="line"/>
    </contour>
  </outline>
</glyph>
<glyph name="four.osf" format="1">
  <advance width="598"/>
  <outline>
    <contour>
      <point x="47" y="33" type="line"/>
      <point x="562" y="33" type="line"/>
      <point x="562" y="67" type="line"/>
      <point x="76" y="67" type="line"/>
      <point x="76" y="71" type="line"/>
      <point x="305" y="576" type="line"/>
      <point x="305" y="580" type="line"/>
      <point x="283" y="590" type="line"/>
      <point x="279" y="590" type="line"/>
      <point x="30" y="55" type="line"/>
      <point x="30" y="51" type="line"/>
    </contour>
    <contour>
      <point x="405" y="-160" type="line"/>
      <point x="439" y="-160" type="line"/>
      <point x="439" y="341" type="line"/>
      <point x="418" y="341" type="line"/>
      <point x="405" y="97" type="line"/>
    </contour>
  </outline>
</glyph>
<glyph name="four.tf" format="1">
  <advance width="540"/>
  <outline>
    <contour>
      <point x="31" y="193" type="line"/>
      <point x="372" y="193" type="line"/>
      <point x="372" y="0" type="line"/>
      <point x="406" y="0" type="line"/>
      <point x="406" y="193" type="line"/>
      <point x="523" y="193" type="line"/>
      <point x="523" y="227" type="line"/>
      <point x="406" y="227" type="line"/>
      <point x="406" y="501" type="line"/>
      <point x="385" y="501" type="line"/>
      <point x="372" y="227" type="line"/>
      <point x="60" y="227" type="line"/>
      <point x="60" y="231" type="line"/>
      <point x="279" y="736" type="line"/>
      <point x="278" y="740" type="line"/>
      <point x="256" y="750" type="line"/>
      <point x="252" y="750" type="line"/>
      <point x="15" y="215" type="line"/>
      <point x="15" y="211" type="line"/>
    </contour>
  </outline>
</glyph>
<glyph name="hungarumlaut.cap" format="1">
  <advance width="574"/>
  <outline>
    <contour>
      <point x="297" y="760" type="move" name="_topUC"/>
    </contour>
    <contour>
      <point x="244" y="794" type="line"/>
      <point x="329" y="920" type="line"/>
      <point x="291" y="920" type="line"/>
      <point x="212" y="808" type="line"/>
    </contour>
    <contour>
      <point x="371" y="794" type="line"/>
      <point x="456" y="920" type="line"/>
      <point x="418" y="920" type="line"/>
      <point x="339" y="808" type="line"/>
    </contour>
  </outline>
</glyph>
<glyph name="minus.tab" format="1">
  <advance width="540"/>
  <outline>
    <contour>
      <point x="90" y="353" type="line"/>
      <point x="450" y="353" type="line"/>
      <point x="450" y="387" type="line"/>
      <point x="90" y="387" type="line"/>
    </contour>
  </outline>
</glyph>
<glyph name="multiply.tab" format="1">
  <advance width="540"/>
  <outline>
    <contour>
      <point x="116" y="214" type="line"/>
      <point x="270" y="347" type="line"/>
      <point x="424" y="214" type="line"/>
      <point x="450" y="238" type="line"/>
      <point x="297" y="371" type="line"/>
      <point x="450" y="504" type="line"/>
      <point x="424" y="528" type="line"/>
      <point x="270" y="394" type="line"/>
      <point x="116" y="528" type="line"/>
      <point x="90" y="504" type="line"/>
      <point x="243" y="371" type="line"/>
      <point x="90" y="238" type="line"/>
    </contour>
  </outline>
</glyph>
<glyph name="nine.numerator" format="1">
  <advance width="471"/>
  <outline>
    <contour>
      <point x="175" y="192" type="curve" smooth="yes"/>
      <point x="327" y="192"/>
      <point x="416" y="308"/>
      <point x="416" y="507" type="curve" smooth="yes"/>
      <point x="416" y="671"/>
      <point x="351" y="755"/>
      <point x="223" y="755" type="curve" smooth="yes"/>
      <point x="116" y="755"/>
      <point x="44" y="682"/>
      <point x="44" y="573" type="curve" smooth="yes"/>
      <point x="44" y="475"/>
      <point x="113" y="414"/>
      <point x="224" y="414" type="curve" smooth="yes"/>
      <point x="272" y="414"/>
      <point x="331" y="435"/>
      <point x="381" y="471" type="curve"/>
      <point x="371" y="317"/>
      <point x="295" y="226"/>
      <point x="175" y="226" type="curve" smooth="yes"/>
      <point x="145" y="226"/>
      <point x="119" y="230"/>
      <point x="81" y="240" type="curve"/>
      <point x="81" y="204" type="line"/>
      <point x="119" y="196"/>
      <point x="147" y="192"/>
    </contour>
    <contour>
      <point x="224" y="448" type="curve" smooth="yes"/>
      <point x="133" y="448"/>
      <point x="79" y="495"/>
      <point x="79" y="573" type="curve" smooth="yes"/>
      <point x="79" y="662"/>
      <point x="136" y="721"/>
      <point x="223" y="721" type="curve" smooth="yes"/>
      <point x="328" y="721"/>
      <point x="381" y="652"/>
      <point x="382" y="512" type="curve"/>
      <point x="334" y="473"/>
      <point x="273" y="448"/>
    </contour>
  </outline>
</glyph>
<glyph name="nine.tf" format="1">
  <advance width="540"/>
  <outline>
    <contour>
      <point x="255" y="752" type="curve" smooth="yes"/>
      <point x="125" y="752"/>
      <point x="38" y="654"/>
      <point x="38" y="508" type="curve" smooth="yes"/>
      <point x="38" y="376"/>
      <point x="122" y="295"/>
      <point x="255" y="295" type="curve" smooth="yes"/>
      <point x="319" y="295"/>
      <point x="395" y="326"/>
      <point x="454" y="378" type="curve"/>
      <point x="445" y="155"/>
      <point x="349" y="22"/>
      <point x="195" y="22" type="curve" smooth="yes"/>
      <point x="158" y="22"/>
      <point x="127" y="27"/>
      <point x="84" y="40" type="curve"/>
      <point x="84" y="4" type="line"/>
      <point x="125" y="-7"/>
      <point x="160" y="-12"/>
      <point x="196" y="-12" type="curve" smooth="yes"/>
      <point x="381" y="-12"/>
      <point x="489" y="147"/>
      <point x="489" y="416" type="curve" smooth="yes"/>
      <point x="489" y="639"/>
      <point x="410" y="752"/>
    </contour>
    <contour>
      <point x="256" y="329" type="curve" smooth="yes"/>
      <point x="142" y="329"/>
      <point x="74" y="396"/>
      <point x="74" y="508" type="curve" smooth="yes"/>
      <point x="74" y="634"/>
      <point x="145" y="718"/>
      <point x="255" y="718" type="curve" smooth="yes"/>
      <point x="388" y="718"/>
      <point x="454" y="621"/>
      <point x="455" y="419" type="curve"/>
      <point x="398" y="364"/>
      <point x="320" y="329"/>
    </contour>
  </outline>
</glyph>
<glyph name="numbersign.tab" format="1">
  <advance width="540"/>
  <outline>
    <contour>
      <point x="311" y="0" type="line"/>
      <point x="347" y="0" type="line"/>
      <point x="367" y="246" type="line"/>
      <point x="491" y="246" type="line"/>
      <point x="491" y="280" type="line"/>
      <point x="370" y="280" type="line"/>
      <point x="385" y="460" type="line"/>
      <point x="492" y="460" type="line"/>
      <point x="492" y="494" type="line"/>
      <point x="388" y="494" type="line"/>
      <point x="408" y="740" type="line"/>
      <point x="374" y="740" type="line"/>
      <point x="353" y="494" type="line"/>
      <point x="196" y="494" type="line"/>
      <point x="216" y="740" type="line"/>
      <point x="182" y="740" type="line"/>
      <point x="161" y="494" type="line"/>
      <point x="49" y="494" type="line"/>
      <point x="49" y="460" type="line"/>
      <point x="158" y="460" type="line"/>
      <point x="143" y="280" type="line"/>
      <point x="49" y="280" type="line"/>
      <point x="49" y="246" type="line"/>
      <point x="140" y="246" type="line"/>
      <point x="119" y="0" type="line"/>
      <point x="155" y="0" type="line"/>
      <point x="175" y="246" type="line"/>
      <point x="332" y="246" type="line"/>
    </contour>
    <contour>
      <point x="193" y="460" type="line"/>
      <point x="350" y="460" type="line"/>
      <point x="335" y="280" type="line"/>
      <point x="178" y="280" type="line"/>
    </contour>
  </outline>
</glyph>
<glyph name="one.denominator" format="1">
  <advance width="307"/>
  <outline>
    <contour>
      <point x="182" y="0" type="line"/>
      <point x="216" y="0" type="line"/>
      <point x="216" y="546" type="line"/>
      <point x="191" y="546" type="line"/>
      <point x="30" y="451" type="line"/>
      <point x="30" y="445" type="line"/>
      <point x="34" y="425" type="line"/>
      <point x="44" y="425" type="line"/>
      <point x="182" y="501" type="line"/>
    </contour>
  </outline>
</glyph>
<glyph name="one.numerator" format="1">
  <advance width="307"/>
  <outline>
    <contour>
      <point x="182" y="200" type="line"/>
      <point x="216" y="200" type="line"/>
      <point x="216" y="746" type="line"/>
      <point x="191" y="746" type="line"/>
      <point x="30" y="651" type="line"/>
      <point x="30" y="645" type="line"/>
      <point x="34" y="625" type="line"/>
      <point x="44" y="625" type="line"/>
      <point x="182" y="701" type="line"/>
    </contour>
  </outline>
</glyph>
<glyph name="one.tf" format="1">
  <advance width="540"/>
  <outline>
    <contour>
      <point x="348" y="0" type="line"/>
      <point x="383" y="0" type="line"/>
      <point x="383" y="740" type="line"/>
      <point x="355" y="740" type="line"/>
      <point x="82" y="611" type="line"/>
      <point x="82" y="607" type="line"/>
      <point x="88" y="585" type="line"/>
      <point x="97" y="585" type="line"/>
      <point x="343" y="692" type="line"/>
      <point x="348" y="692" type="line"/>
    </contour>
  </outline>
</glyph>
<glyph name="one.tosf" format="1">
  <advance width="540"/>
  <outline>
    <contour>
      <point x="356" y="0" type="line"/>
      <point x="391" y="0" type="line"/>
      <point x="391" y="583" type="line"/>
      <point x="363" y="583" type="line"/>
      <point x="90" y="454" type="line"/>
      <point x="90" y="450" type="line"/>
      <point x="96" y="428" type="line"/>
      <point x="105" y="428" type="line"/>
      <point x="351" y="535" type="line"/>
      <point x="356" y="535" type="line"/>
    </contour>
  </outline>
</glyph>
<glyph name="periodcentered.tab" format="1">
  <advance width="270"/>
  <outline>
    <contour>
      <point x="99" y="370" type="move" name="_periodcentered"/>
    </contour>
    <contour>
      <point x="134" y="337" type="curve" smooth="yes"/>
      <point x="151" y="337"/>
      <point x="170" y="346"/>
      <point x="170" y="370" type="curve" smooth="yes"/>
      <point x="170" y="394"/>
      <point x="151" y="403"/>
      <point x="134" y="403" type="curve" smooth="yes"/>
      <point x="114" y="403"/>
      <point x="99" y="393"/>
      <point x="99" y="370" type="curve" smooth="yes"/>
      <point x="99" y="347"/>
      <point x="114" y="337"/>
    </contour>
  </outline>
</glyph>
<glyph name="plusminus.tab" format="1">
  <advance width="540"/>
  <outline>
    <contour>
      <point x="68" y="413" type="line"/>
      <point x="251" y="413" type="line"/>
      <point x="251" y="238" type="line"/>
      <point x="287" y="238" type="line"/>
      <point x="287" y="413" type="line"/>
      <point x="470" y="413" type="line"/>
      <point x="470" y="447" type="line"/>
      <point x="287" y="447" type="line"/>
      <point x="287" y="622" type="line"/>
      <point x="251" y="622" type="line"/>
      <point x="251" y="447" type="line"/>
      <point x="68" y="447" type="line"/>
    </contour>
    <contour>
      <point x="68" y="113" type="line"/>
      <point x="470" y="113" type="line"/>
      <point x="470" y="147" type="line"/>
      <point x="68" y="147" type="line"/>
    </contour>
  </outline>
</glyph>
<glyph name="quotedbl.tab" format="1">
  <advance width="270"/>
  <outline>
    <contour>
      <point x="9" y="808" type="line"/>
      <point x="9" y="480" type="line"/>
      <point x="23" y="480" type="line"/>
      <point x="54" y="804" type="line"/>
      <point x="54" y="808" type="line"/>
    </contour>
    <contour>
      <point x="232" y="808" type="line"/>
      <point x="232" y="480" type="line"/>
      <point x="246" y="480" type="line"/>
      <point x="277" y="804" type="line"/>
      <point x="277" y="808" type="line"/>
    </contour>
  </outline>
</glyph>
<glyph name="quotesingle.tab" format="1">
  <advance width="270"/>
  <outline>
    <contour>
      <point x="121" y="808" type="line"/>
      <point x="121" y="480" type="line"/>
      <point x="136" y="480" type="line"/>
      <point x="162" y="804" type="line"/>
      <point x="162" y="808" type="line"/>
    </contour>
  </outline>
</glyph>
<glyph name="ring.cap" format="1">
  <advance width="474"/>
  <outline>
    <contour>
      <point x="237" y="760" type="move" name="_topUC"/>
    </contour>
    <contour>
      <point x="238" y="806" type="curve" smooth="yes"/>
      <point x="305" y="806"/>
      <point x="356" y="851"/>
      <point x="356" y="911" type="curve" smooth="yes"/>
      <point x="356" y="972"/>
      <point x="305" y="1018"/>
      <point x="238" y="1018" type="curve" smooth="yes"/>
      <point x="170" y="1018"/>
      <point x="118" y="972"/>
      <point x="118" y="911" type="curve" smooth="yes"/>
      <point x="118" y="851"/>
      <point x="170" y="806"/>
    </contour>
    <contour>
      <point x="238" y="840" type="curve" smooth="yes"/>
      <point x="186" y="840"/>
      <point x="153" y="867"/>
      <point x="153" y="911" type="curve" smooth="yes"/>
      <point x="153" y="956"/>
      <point x="186" y="984"/>
      <point x="238" y="984" type="curve" smooth="yes"/>
      <point x="289" y="984"/>
      <point x="321" y="956"/>
      <point x="321" y="911" type="curve" smooth="yes"/>
      <point x="321" y="867"/>
      <point x="289" y="840"/>
    </contour>
  </outline>
</glyph>
